<svg id="Layer_1" data-name="Layer 1" xmlns="http://www.w3.org/2000/svg" viewBox="0 0 81 67.55273"><defs><style>.cls-1{fill:#283149;}</style></defs><title>business icon</title><path class="cls-1" d="M766.09175,958.73047H749.26953v-3.53315a6.75005,6.75005,0,0,0-6.75005-6.75005H722.32232a6.75005,6.75005,0,0,0-6.75005,6.75005v3.53315H698.735a6.74173,6.74173,0,0,0-6.735,6.735v10.08726a6.75005,6.75005,0,0,0,6.75005,6.75005h26.94721V980.668a1.68755,1.68755,0,0,1,1.68755-1.68755H737.457a1.68755,1.68755,0,0,1,1.68755,1.68755v1.63471h26.94753a6.74973,6.74973,0,0,0,6.74973-6.74973V965.48052A6.75005,6.75005,0,0,0,766.09175,958.73047Zm-23.46675-.1582h-20.25V955.25h20.25Z" transform="translate(-692 -948.44727)"/><path class="cls-1" d="M772.06376,984.071a1.68945,1.68945,0,0,0-1.77.16643,6.66351,6.66351,0,0,1-4.04414,1.38759H739.14453v5.11518a1.68755,1.68755,0,0,1-1.68755,1.68755H727.38482a1.68755,1.68755,0,0,1-1.68755-1.68755V985.625H698.75a6.66386,6.66386,0,0,1-4.04414-1.38759A1.68672,1.68672,0,0,0,692,985.58228v23.66767A6.75005,6.75005,0,0,0,698.75005,1016h67.4999A6.75005,6.75005,0,0,0,773,1009.24995V985.58228A1.68768,1.68768,0,0,0,772.06376,984.071Z" transform="translate(-692 -948.44727)"/></svg>