<svg id="Layer_1" data-name="Layer 1" xmlns="http://www.w3.org/2000/svg" viewBox="0 0 81 85.64467"><defs><style>.cls-1{fill:#545e73;}.cls-2{fill:#38454f;}.cls-3{fill:#404b69;}.cls-4{fill:#91bae1;}.cls-5{fill:#8697cb;}.cls-6{fill:#48a0dc;}.cls-7{fill:#b1d3ef;}</style></defs><title>dev tool icon</title><path class="cls-1" d="M927.31357,951.53548h0c-1.11756-6.81352-17.08281-12.21609-36.62239-12.21609s-35.50484,5.40257-36.62239,12.21609H854v56.49941h.0688c1.11755,6.812,17.08433,12.21609,36.62239,12.21609s35.50483-5.40409,36.62239-12.21609h.06879V951.53548Z" transform="translate(-854 -939.27318)"/><path class="cls-2" d="M890.69118,1001.92168C870.42695,1001.92168,854,996.105,854,988.93112v19.10377h.0688c1.11755,6.81775,17.08433,12.22641,36.62239,12.22641s35.50483-5.40866,36.62239-12.22641h.06879V988.93112C927.38237,996.105,910.95542,1001.92168,890.69118,1001.92168Z" transform="translate(-854 -939.27318)"/><path class="cls-2" d="M854,988.14309v.76415a4.75057,4.75057,0,0,1,.06877-.76415Z" transform="translate(-854 -939.27318)"/><path class="cls-2" d="M927.3136,988.14309a4.75048,4.75048,0,0,1,.06877.76415v-.76415Z" transform="translate(-854 -939.27318)"/><path class="cls-3" d="M890.69118,983.5343C870.42695,983.5343,854,977.71759,854,970.54374v19.10377h.0688c1.11755,6.81775,17.08433,12.22641,36.62239,12.22641s35.50483-5.40866,36.62239-12.22641h.06879V970.54374C927.38237,977.71759,910.95542,983.5343,890.69118,983.5343Z" transform="translate(-854 -939.27318)"/><path class="cls-3" d="M854,969.92279v.76415a4.75057,4.75057,0,0,1,.06877-.76415Z" transform="translate(-854 -939.27318)"/><path class="cls-3" d="M927.3136,969.92279a4.75048,4.75048,0,0,1,.06877.76415v-.76415Z" transform="translate(-854 -939.27318)"/><ellipse class="cls-4" cx="36.67925" cy="12.99057" rx="36.67925" ry="12.99057"/><path class="cls-5" d="M890.69118,965.31408c-20.26424,0-36.69118-5.81672-36.69118-12.99057v19.10377h.0688c1.11755,6.81776,17.08433,12.22642,36.62239,12.22642s35.50483-5.40866,36.62239-12.22642h.06879V952.32351C927.38237,959.49736,910.95542,965.31408,890.69118,965.31408Z" transform="translate(-854 -939.27318)"/><path class="cls-5" d="M854,951.53548v.76415a4.75055,4.75055,0,0,1,.06877-.76415Z" transform="translate(-854 -939.27318)"/><path class="cls-5" d="M927.3136,951.53548a4.75113,4.75113,0,0,1,.06877.76415v-.76415Z" transform="translate(-854 -939.27318)"/><path class="cls-6" d="M927.42726,1008.3a10.85432,10.85432,0,0,0-10.69658-10.86776,10.63348,10.63348,0,0,0-9.208,5.41936,6.42116,6.42116,0,0,0-2.04334-.33623,6.632,6.632,0,0,0-6.43109,5.32461,8.22541,8.22541,0,0,0-4.54822,7.38322,8.09988,8.09988,0,0,0,7.9594,8.19017h16.46746c.09323,0,.18187-.0107.27509-.01375.0917.00306.18187.01375.27509.01375h6.587A7.6426,7.6426,0,0,0,927.42726,1008.3Z" transform="translate(-854 -939.27318)"/><path class="cls-7" d="M926.061,1024.91785h-6.587c-.09628,0-.19257-.00612-.28732-.01223-.07183.00611-.16506.01223-.26134.01223H902.4594a9.61615,9.61615,0,0,1-9.4877-9.71695,9.82584,9.82584,0,0,1,4.76219-8.41024,8.19144,8.19144,0,0,1,7.74238-5.82741,7.85449,7.85449,0,0,1,1.351.11615,12.18865,12.18865,0,0,1,9.9034-5.19928,12.40073,12.40073,0,0,1,12.15611,11.20551,9.18166,9.18166,0,0,1-2.82583,17.83223Zm-6.93391-3.00884.28427-.16716H926.061a5.91038,5.91038,0,0,0,5.88243-6.03676,6.04921,6.04921,0,0,0-4.808-5.98941l-1.25741-.23689v-1.24251a9.33077,9.33077,0,0,0-9.14726-9.35933,9.04366,9.04366,0,0,0-7.883,4.65368l-.62508,1.08662-1.18749-.39889a4.86546,4.86546,0,0,0-1.55734-.25828,5.13091,5.13091,0,0,0-4.93489,4.11419l-.15589.72594-.66481.32706a6.76324,6.76324,0,0,0,2.73719,12.78174Z" transform="translate(-854 -939.27318)"/></svg>