<svg id="Layer_1" data-name="Layer 1" xmlns="http://www.w3.org/2000/svg" xmlns:xlink="http://www.w3.org/1999/xlink" viewBox="0 0 105.50785 65.28987"><defs><style>.cls-1,.cls-4,.cls-6{fill:none;}.cls-1,.cls-2,.cls-3{stroke:#404b69;}.cls-1,.cls-11,.cls-2,.cls-3,.cls-4,.cls-5{stroke-miterlimit:10;}.cls-1,.cls-2,.cls-3,.cls-4{stroke-width:4px;}.cls-2{fill:#dbedf3;}.cls-3{fill:#283149;}.cls-4{stroke:#f73859;}.cls-5,.cls-7{fill:#fff;}.cls-5{stroke:#fff;stroke-width:0.5px;}.cls-8{fill:#ff0855;}.cls-9{fill:#4c94fc;}.cls-10{fill:#e4e8ef;}.cls-11{fill:#f490aa;stroke:#f490aa;stroke-width:3px;}.cls-12{isolation:isolate;}</style></defs><title>front end icon</title><line class="cls-1" x1="34.68447" y1="62.3665" x2="76.59179" y2="62.3665"/><polygon class="cls-2" points="66.115 61.868 66.115 52.389 45.161 52.389 45.032 61.868 66.115 61.868"/><rect class="cls-3" x="17.72199" y="2" width="75.83229" height="50.38856" rx="1" ry="1"/><rect class="cls-2" x="17.72199" y="42.41063" width="75.83229" height="9.47904"/><line class="cls-4" x1="19.21868" y1="5.74173" x2="92.55649" y2="5.74173"/><circle class="cls-5" cx="24.18449" cy="5.7794" r="1.49491"/><circle class="cls-5" cx="34.15055" cy="5.7794" r="1.49491"/><circle class="cls-5" cx="338.6597" cy="963.60955" r="1.49491" transform="translate(-448.68769 -896.93215) rotate(-8.53077)"/><line class="cls-6" x1="40.67123" y1="5.99117" x2="88.06642" y2="5.99117"/><path class="cls-7" d="M352,965.07188h44a1.5009,1.5009,0,0,0,0-3H352a1.5009,1.5009,0,0,0,0,3Z" transform="translate(-309.49215 -957.83015)"/><path class="cls-8" d="M332.20311,971.05864h13.96911a1.5009,1.5009,0,0,0,0-3H332.20311a1.5009,1.5009,0,0,0,0,3Z" transform="translate(-309.49215 -957.83015)"/><path class="cls-9" d="M354.16339,971.05864h31.43049a1.5009,1.5009,0,0,0,0-3H354.16339a1.5009,1.5009,0,0,0,0,3Z" transform="translate(-309.49215 -957.83015)"/><path class="cls-9" d="M340.68435,976.54871h44.9007a1.5009,1.5009,0,0,0,0-3h-44.9007a1.5009,1.5009,0,0,0,0,3Z" transform="translate(-309.49215 -957.83015)"/><path class="cls-10" d="M338.68877,981.53768h10.97573a1.5009,1.5009,0,0,0,0-3H338.68877a1.5009,1.5009,0,0,0,0,3Z" transform="translate(-309.49215 -957.83015)"/><path class="cls-9" d="M361.65787,981.53768h16.46359a1.5009,1.5009,0,0,0,0-3H361.65787a1.5009,1.5009,0,0,0,0,3Z" transform="translate(-309.49215 -957.83015)"/><path class="cls-9" d="M345.17222,986.03H362.6336a1.5009,1.5009,0,0,0,0-3H345.17222a1.5009,1.5009,0,0,0,0,3Z" transform="translate(-309.49215 -957.83015)"/><path class="cls-9" d="M370.62477,986.03h15.96469a1.5009,1.5009,0,0,0,0-3H370.62477a1.5009,1.5009,0,0,0,0,3Z" transform="translate(-309.49215 -957.83015)"/><path class="cls-8" d="M339.68656,990.52h9.97793a1.5009,1.5009,0,0,0,0-3h-9.97793a1.5009,1.5009,0,0,0,0,3Z" transform="translate(-309.49215 -957.83015)"/><path class="cls-10" d="M339.18766,995.50237h17.96028a1.5009,1.5009,0,0,0,0-3H339.18766a1.5009,1.5009,0,0,0,0,3Z" transform="translate(-309.49215 -957.83015)"/><path class="cls-10" d="M364.6336,995.50237H391.574a1.5009,1.5009,0,0,0,0-3H364.6336a1.5009,1.5009,0,0,0,0,3Z" transform="translate(-309.49215 -957.83015)"/><polygon class="cls-11" points="1.508 56.863 1.628 43.683 13.103 37.197 24.457 43.892 24.337 57.072 12.862 63.558 1.508 56.863"/><image class="cls-12" width="512" height="512" transform="translate(4.75067 40.91394) scale(0.03212 0.03698)" xlink:href="../../icons and vectors/badge-css-3-512.png"/><image class="cls-12" width="2000" height="2000" transform="translate(89.06421 7.98676) scale(0.00822 0.01047)" xlink:href="../../icons and vectors/html5-logoreal1.png"/></svg>