<svg id="Layer_1" data-name="Layer 1" xmlns="http://www.w3.org/2000/svg" xmlns:xlink="http://www.w3.org/1999/xlink" viewBox="0 0 405.526 402.569"><defs><style>.cls-1{fill:url(#linear-gradient);}.cls-2{fill:#eceff1;}.cls-3{fill:url(#linear-gradient-2);}.cls-4{fill:#475887;}.cls-15,.cls-5{opacity:0.2;isolation:isolate;}.cls-6{fill:url(#linear-gradient-3);}.cls-7{fill:#ffcc80;}.cls-8{fill:url(#linear-gradient-4);}.cls-9{fill:#faf8e4;}.cls-10{opacity:0.6;}.cls-11{fill:url(#linear-gradient-5);}.cls-12{fill:url(#linear-gradient-6);}.cls-13,.cls-15{fill:#fff;}.cls-14{fill:url(#linear-gradient-7);}.cls-16{fill:url(#linear-gradient-8);}.cls-17{fill:url(#linear-gradient-9);}</style><linearGradient id="linear-gradient" x1="494.12" y1="674.62" x2="494.12" y2="493.62" gradientTransform="translate(-282.09399 -272.05099)" gradientUnits="userSpaceOnUse"><stop offset="0" stop-color="gray" stop-opacity="0.25"/><stop offset="0.54" stop-color="gray" stop-opacity="0.12"/><stop offset="1" stop-color="gray" stop-opacity="0.1"/></linearGradient><linearGradient id="linear-gradient-2" x1="498.0384" y1="509.42993" x2="828.39999" y2="509.42993" gradientTransform="translate(119.60001 3038.07007)" xlink:href="#linear-gradient"/><linearGradient id="linear-gradient-3" x1="539.62" y1="409.62" x2="539.62" y2="341.62" xlink:href="#linear-gradient"/><linearGradient id="linear-gradient-4" x1="438.62821" y1="525.26846" x2="438.62821" y2="482.87539" gradientTransform="matrix(0, -1, -1, 0, 1219.21967, 3970.2849)" xlink:href="#linear-gradient"/><linearGradient id="linear-gradient-5" x1="409.81284" y1="531.09307" x2="409.81284" y2="488.70001" gradientTransform="matrix(0, -1, -1, 0, 1252.94452, 3950.72636)" xlink:href="#linear-gradient"/><linearGradient id="linear-gradient-6" x1="455.91537" y1="557.24435" x2="455.91537" y2="499.78036" gradientTransform="matrix(0, -1, -1, 0, 1223.53839, 4009.7467)" xlink:href="#linear-gradient"/><linearGradient id="linear-gradient-7" x1="416.85628" y1="565.13671" x2="416.85628" y2="507.67272" gradientTransform="matrix(0, -1, -1, 0, 1269.25147, 3983.23489)" xlink:href="#linear-gradient"/><linearGradient id="linear-gradient-8" x1="-1500.4879" y1="1576.62221" x2="-1500.4879" y2="1543.80397" gradientTransform="matrix(-0.64997, 0.75996, 0.75996, 0.64997, -1779.23792, 153.61365)" xlink:href="#linear-gradient"/><linearGradient id="linear-gradient-9" x1="-999.56869" y1="1143.91851" x2="-999.56869" y2="1094.86638" gradientTransform="translate(1479.43541 -369.80792) rotate(32.36019)" xlink:href="#linear-gradient"/></defs><title>mailbox vector</title><rect class="cls-1" x="191.526" y="221.569" width="41" height="181"/><rect class="cls-2" x="194.526" y="221.569" width="35" height="178"/><path class="cls-3" d="M915.60128,3474H730.3615a49.21712,49.21712,0,0,0-18.4764,4.11154c-18.83015,8.33345-29.79,21.4131-32.8851,50.42018V3596l-48.14067-.50952c-9.68125,0-13.22093,15.22113-13.22093,25.50952H948V3508.37689C948,3489.39206,933.514,3474,915.60128,3474Z" transform="translate(-587.474 -3393.431)"/><path class="cls-4" d="M737,3481H920.5333A22.44966,22.44966,0,0,1,943,3503.43259h0V3615H737Z" transform="translate(-587.474 -3393.431)"/><path class="cls-4" d="M733,3480.73312h0A49.90363,49.90363,0,0,1,783,3530.54v60.10895A24.35107,24.35107,0,0,1,758.64893,3615H707.37546A24.37546,24.37546,0,0,1,683,3590.62454V3530.54a49.90368,49.90368,0,0,1,50-49.80692Z" transform="translate(-587.474 -3393.431)"/><path class="cls-5" d="M733,3480.73312h0A49.90363,49.90363,0,0,1,783,3530.54v60.10895A24.35107,24.35107,0,0,1,758.64893,3615H707.37546A24.37546,24.37546,0,0,1,683,3590.62454V3530.54a49.90368,49.90368,0,0,1,50-49.80692Z" transform="translate(-587.474 -3393.431)"/><polygon class="cls-6" points="278.526 69.569 252.224 69.569 236.526 69.569 236.526 100.053 236.526 137.569 255.526 137.569 255.526 99.569 278.526 99.569 278.526 69.569"/><polygon class="cls-7" points="275.526 69.569 253.526 69.569 240.526 69.569 240.526 97.81 240.526 132.569 253.526 132.569 253.526 97.569 275.526 97.569 275.526 69.569"/><rect class="cls-8" x="693.95122" y="3497.1667" width="42.39307" height="68.97998" transform="translate(-3464.51853 421.4039) rotate(-83.06)"/><rect class="cls-9" x="695.09002" y="3497.93787" width="39.56244" height="66.64142" transform="translate(-3464.36644 420.77941) rotate(-83.06)"/><g class="cls-10"><rect class="cls-4" x="687.37091" y="3510.33378" width="6.2749" height="8.48083" transform="translate(-3469.22341 381.92663) rotate(-83.06)"/><rect class="cls-4" x="706.61468" y="3514.81044" width="2.03448" height="32.55777" transform="translate(-3470.56302 413.44433) rotate(-83.06)"/><rect class="cls-4" x="710.75914" y="3524.4682" width="1.35449" height="23.73968" transform="translate(-3472.4285 421.83543) rotate(-83.06)"/></g><rect class="cls-11" x="721.85145" y="3506.42353" width="42.39307" height="68.97998" transform="translate(-3449.17848 457.23804) rotate(-83.06)"/><rect class="cls-9" x="722.99026" y="3507.20024" width="39.56244" height="66.64142" transform="translate(-3449.03189 456.61843) rotate(-83.06)"/><g class="cls-10"><rect class="cls-4" x="715.27559" y="3519.59724" width="6.2749" height="8.48083" transform="translate(-3453.88604 417.771) rotate(-83.06)"/><rect class="cls-4" x="734.51937" y="3524.07403" width="2.03448" height="32.55774" transform="translate(-3455.22575 449.28883) rotate(-83.06)"/><rect class="cls-4" x="738.65282" y="3533.731" width="1.35449" height="23.73968" transform="translate(-3457.10015 457.66832) rotate(-83.06)"/></g><rect class="cls-12" x="666.29404" y="3507.08175" width="57.46399" height="93.49918" transform="translate(-3504.22111 420.9249) rotate(-83.06)"/><rect class="cls-13" x="667.84023" y="3508.12038" width="53.63269" height="90.33133" transform="translate(-3504.00464 420.07874) rotate(-83.06)"/><g class="cls-10"><rect class="cls-4" x="657.38128" y="3524.9263" width="8.50293" height="11.4939" transform="translate(-3510.59108 367.41637) rotate(-83.06)"/><rect class="cls-4" x="683.4578" y="3530.9963" width="2.75873" height="44.13461" transform="translate(-3512.41677 410.13571) rotate(-83.06)"/><rect class="cls-4" x="689.07667" y="3544.08144" width="1.841" height="32.18179" transform="translate(-3514.93688 421.5077) rotate(-83.06)"/></g><rect class="cls-14" x="704.11476" y="3519.62902" width="57.46399" height="93.49918" transform="translate(-3483.42561 469.4997) rotate(-83.06)"/><rect class="cls-13" x="705.65483" y="3520.67788" width="53.63269" height="90.33136" transform="translate(-3483.22469 468.65647) rotate(-83.06)"/><g class="cls-10"><rect class="cls-4" x="695.19963" y="3537.48196" width="8.50293" height="11.4939" transform="translate(-3489.80599 415.9962) rotate(-83.06)"/><rect class="cls-4" x="721.27613" y="3543.55203" width="2.75873" height="44.13458" transform="translate(-3491.63174 458.71557) rotate(-83.06)"/><rect class="cls-4" x="726.89438" y="3556.63701" width="1.841" height="32.18182" transform="translate(-3494.15228 470.08681) rotate(-83.06)"/></g><path class="cls-5" d="M731.81053,3480.88376h0a50.36165,50.36165,0,0,0-19.13655,3.75943,50.9542,50.9542,0,0,1,7.13649-.50864h0A49.9993,49.9993,0,0,1,770,3533.94147V3613h12v-82.30936A49.9992,49.9992,0,0,0,731.81053,3480.88376Z" transform="translate(-587.474 -3393.431)"/><path class="cls-4" d="M641.23074,3598H783v17H624.04427A17.094,17.094,0,0,1,641.23074,3598Z" transform="translate(-587.474 -3393.431)"/><path class="cls-15" d="M641.23074,3598H783v17H624.04427A17.094,17.094,0,0,1,641.23074,3598Z" transform="translate(-587.474 -3393.431)"/><polygon class="cls-16" points="363.431 39.021 361.789 39.823 361.977 39.485 361.834 39.53 362.038 39.38 384.164 0 395.475 9.648 405.183 18.632 402.397 19.992 405.526 25.515 363.431 39.021"/><polygon class="cls-4" points="394.358 10.676 403.226 18.902 363.022 38.888 384.418 11.467 394.358 10.676"/><polygon class="cls-5" points="394.358 10.676 403.226 18.902 363.022 38.888 384.418 11.467 394.358 10.676"/><polygon class="cls-4" points="384.009 1.852 363.022 38.888 394.358 10.676 384.009 1.852"/><polygon class="cls-4" points="403.486 25.266 363.067 38.617 396.852 13.396 403.486 25.266"/><polygon class="cls-17" points="67.266 48.569 69.908 48.491 69.499 47.569 69.726 47.569 69.372 47.983 21.351 2.444 9.697 20.837 0 37.617 4.489 38.313 2.499 48.569 67.266 48.569"/><polygon class="cls-4" points="11.709 21.794 2.852 37.147 67.78 47.717 25.962 18.598 11.709 21.794"/><polygon class="cls-5" points="11.709 21.794 2.852 37.147 67.78 47.717 25.962 18.598 11.709 21.794"/><polygon class="cls-4" points="22.374 4.97 67.78 47.717 11.709 21.794 22.374 4.97"/><polygon class="cls-4" points="5.246 46.169 67.603 47.364 9.393 26.687 5.246 46.169"/></svg>