<svg id="Layer_1" data-name="Layer 1" xmlns="http://www.w3.org/2000/svg" xmlns:xlink="http://www.w3.org/1999/xlink" viewBox="0 0 1024 768"><defs><style>.cls-1,.cls-21{fill:none;}.cls-2{fill:#f9f9f9;}.cls-3{fill:url(#linear-gradient);}.cls-4{fill:url(#linear-gradient-2);}.cls-5{fill:#fff;}.cls-6{fill:url(#linear-gradient-3);}.cls-16,.cls-7{fill:#283149;}.cls-11,.cls-17,.cls-7{opacity:0.1;}.cls-11,.cls-7{isolation:isolate;}.cls-8{fill:#d6d6e3;}.cls-9{fill:#aebee1;}.cls-10{fill:#535461;}.cls-12{fill:#e3edf9;}.cls-13{fill:url(#linear-gradient-4);}.cls-14{fill:#f8b9bf;}.cls-15{fill:#d9dfe8;}.cls-18{fill:#68739d;}.cls-19{fill:#6394e2;}.cls-20{fill:#b96b6b;}.cls-21{stroke:#535461;stroke-miterlimit:10;stroke-width:2px;}.cls-22{fill:url(#linear-gradient-5);}.cls-23{fill:#fa595f;}.cls-24{fill:#f37291;}.cls-25{fill:#96a2d0;}</style><linearGradient id="linear-gradient" x1="505.95903" y1="6519.93886" x2="789.38546" y2="6738.88221" gradientTransform="matrix(1, 0, 0, -1, 214.34, 9179.04004)" gradientUnits="userSpaceOnUse"><stop offset="0" stop-color="#d4145a"/><stop offset="1" stop-color="#93278f"/></linearGradient><linearGradient id="linear-gradient-2" x1="359.66" y1="6716.54004" x2="484.66" y2="6716.54004" gradientTransform="matrix(1, 0, 0, -1, 214.34, 9179.04004)" gradientUnits="userSpaceOnUse"><stop offset="0" stop-color="#93278f"/><stop offset="1" stop-color="#d4145a"/></linearGradient><linearGradient id="linear-gradient-3" x1="391.66" y1="6503.04004" x2="464.66" y2="6503.04004" xlink:href="#linear-gradient-2"/><linearGradient id="linear-gradient-4" x1="-108.5889" y1="-5991.35362" x2="-108.5889" y2="-6151.04405" gradientTransform="matrix(1, 0.09, -0.09, 1, 503.23, 8654.72021)" gradientUnits="userSpaceOnUse"><stop offset="0" stop-color="gray" stop-opacity="0.25"/><stop offset="0.54" stop-color="gray" stop-opacity="0.12"/><stop offset="1" stop-color="gray" stop-opacity="0.1"/></linearGradient><linearGradient id="linear-gradient-5" x1="368.72522" y1="-6086.83016" x2="368.72522" y2="-6245.50168" gradientTransform="translate(388.98 8739.33984)" xlink:href="#linear-gradient-4"/></defs><title>our mission vector</title><rect class="cls-1" width="1024" height="768"/><path class="cls-2" d="M668.04087,2352C570.81618,2352,492,2438.69589,492,2545.641v17.71819C492,2670.30387,570.81618,2757,668.04087,2757H1025V2352Z" transform="translate(-1 -2306)"/><path class="cls-3" d="M733.00343,2405A143.95966,143.95966,0,0,0,589,2548.916h0v13.08429A143.99976,143.99976,0,0,0,732.99976,2706H1025V2405Z" transform="translate(-1 -2306)"/><line class="cls-1" x1="573" y1="157" x2="698" y2="157"/><path class="cls-4" d="M574,2467H699c5.79108,0,5.80066-9,0-9H574C568.20892,2458,568.19934,2467,574,2467Z" transform="translate(-1 -2306)"/><line class="cls-1" x1="588" y1="175" x2="639" y2="175"/><path class="cls-5" d="M589,2484h51c3.86072,0,3.86713-6,0-6H589C585.13928,2478,585.13287,2484,589,2484Z" transform="translate(-1 -2306)"/><line class="cls-1" x1="714" y1="383" x2="615" y2="383"/><path class="cls-5" d="M715,2685H616c-5.79108,0-5.80066,9,0,9h99C720.79108,2694,720.80066,2685,715,2685Z" transform="translate(-1 -2306)"/><line class="cls-1" x1="678" y1="370" x2="605" y2="370"/><path class="cls-6" d="M679,2673H606c-3.86072,0-3.86713,6,0,6h73C682.86072,2679,682.86713,2673,679,2673Z" transform="translate(-1 -2306)"/><path class="cls-7" d="M993.3111,2589.90991c-12.80786,19.26611-9.56628,46.04492-3.11743,67.25586,2.17133,7.10034,4.625,14.60376,3.167,22.45166-1.78363,9.59741-9.0545,16.98926-16.50842,21.1272-13.58331,7.54712-29.35034,6.92651-41.04773-1.60986-10.10919-7.37939-16.97992-19.97022-27.29687-26.98682-17.24353-11.70044-40.2691-5.44067-60.1524,4.61572-14.0672,7.10644-29.51166,16.17041-42.84375,10.48438-9.38019-4.00146-15.46-14.77759-18.48126-26.41284-1.45789-5.61768-2.41327-11.73755-5.52142-16.071a20.6103,20.6103,0,0,0-6.91418-5.77881c-23.48462-13.25757-54.46973-3.45874-77.19128-18.36646-15.33276-10.05029-24.45557-30.2561-27.86145-51.70581s-1.72778-44.2644.549-66.71607c1.61609-15.95312,3.93323-33.02,12.83264-45.80908a40.95885,40.95885,0,0,1,38.15363-17.66553c13.46857,1.62232,25.31165,9.65625,35.61932,19.356,12.88226,12.09741,24.61993,27.4397,40.97638,31.63965,11.139,2.86938,23.14343.17676,34.8501-1.24072,19.57312-2.342,38.96942-1.03906,58.23547.50879,18.44708,1.48267,37.01215,3.2229,54.3363,9.54468,12.25879,4.4729,21.81891,13.38159,33.31152,19.3064,7.49115,3.86182,15.83533,4.53809,22.855,9.616,8.64813,6.25049,16.29126,17.58472,13.28552,31.59009C1011.69,2572.37793,1000.10742,2579.67358,993.3111,2589.90991Z" transform="translate(-1 -2306)"/><rect class="cls-7" x="940" y="212" width="13" height="19"/><rect class="cls-7" x="941" y="214" width="10" height="16"/><rect class="cls-7" x="914" y="199" width="20" height="19"/><rect class="cls-7" x="916" y="200" width="16" height="16"/><rect class="cls-7" x="686" y="170" width="60" height="2"/><rect class="cls-7" x="686" y="178" width="60" height="2"/><rect class="cls-8" x="787" y="273" width="6" height="68"/><path class="cls-9" d="M972,2586.67977v-61.11259a6.246,6.246,0,0,1,6.08439-6.41731q.16188-.00607.324-.004h0A6.54248,6.54248,0,0,1,985,2525.56719v73.96173A6.61292,6.61292,0,0,1,978.396,2606H937.65955a6.57192,6.57192,0,0,1-6.57735-6.47109h0A6.66008,6.66008,0,0,1,937.65955,2593h27.594A6.6021,6.6021,0,0,0,972,2586.67977Z" transform="translate(-1 -2306)"/><path class="cls-10" d="M972,2586.67977v-61.11259a6.246,6.246,0,0,1,6.08439-6.41731q.16188-.00607.324-.004h0A6.54248,6.54248,0,0,1,985,2525.56719v73.96173A6.61292,6.61292,0,0,1,978.396,2606H937.65955a6.57192,6.57192,0,0,1-6.57735-6.47109h0A6.66008,6.66008,0,0,1,937.65955,2593h27.594A6.6021,6.6021,0,0,0,972,2586.67977Z" transform="translate(-1 -2306)"/><path class="cls-8" d="M932.96311,2599a6.31892,6.31892,0,0,1,6.29361-6h26.44081A6.32145,6.32145,0,0,0,972,2586.66h0v-60.31026a6.32358,6.32358,0,0,1,6-6.33718V2599Z" transform="translate(-1 -2306)"/><path class="cls-9" d="M727,2588.47406v-62.88275A6.5321,6.5321,0,0,0,720.52783,2519l-.05445-.00024h0a6.43151,6.43151,0,0,0-6.475,6.38769q-.00073.10217.00164.20386v76.03744a6.11705,6.11705,0,0,0,5.84724,6.37539q.30522.01316.61062-.00414h40.74879a6.25849,6.25849,0,0,0,6.57-5.9308q.01087-.21231.00731-.42511h0A6.67821,6.67821,0,0,0,761.20665,2595H733.61584a6.53057,6.53057,0,0,1-6.61523-6.44458l-.00055-.06285Z" transform="translate(-1 -2306)"/><path class="cls-10" d="M727,2588.47406v-62.88275A6.5321,6.5321,0,0,0,720.52783,2519l-.05445-.00024h0a6.43151,6.43151,0,0,0-6.475,6.38769q-.00073.10217.00164.20386v76.03744a6.11705,6.11705,0,0,0,5.84724,6.37539q.30522.01316.61062-.00414h40.74879a6.25849,6.25849,0,0,0,6.57-5.9308q.01087-.21231.00731-.42511h0A6.67821,6.67821,0,0,0,761.20665,2595H733.61584a6.53057,6.53057,0,0,1-6.61523-6.44458l-.00055-.06285Z" transform="translate(-1 -2306)"/><path class="cls-8" d="M766.095,2601a6.32416,6.32416,0,0,0-6.30294-6H733.31486A6.326,6.326,0,0,1,727,2588.66282h0v-60.31309a6.32778,6.32778,0,0,0-6-6.33127V2601Z" transform="translate(-1 -2306)"/><rect class="cls-8" x="908" y="273" width="6" height="69"/><rect class="cls-11" x="787" y="273" width="6" height="5"/><rect class="cls-11" x="908" y="273" width="6" height="5"/><path class="cls-11" d="M809.8432,2537a17.03936,17.03936,0,0,1-.38672,3H809v-3Z" transform="translate(-1 -2306)"/><path class="cls-10" d="M835.92171,2570.98705a1.90149,1.90149,0,0,1-1.79089,2.01172l-.01963.00122H815v-1h15.902a.97877.97877,0,0,0,.76956-1.46861l-14.42033-28.8221A1.27894,1.27894,0,0,0,816.13355,2541H809v-4h9.008a.89585.89585,0,0,1,.78236.49243l16.531,31.16072A5.19479,5.19479,0,0,1,835.92171,2570.98705Z" transform="translate(-1 -2306)"/><path class="cls-10" d="M800.65082,2565.761l-.25433.428-2.37915-1.58813L805.37817,2508h1.89526s.07758.2605.20471.75684C808.74683,2513.64868,814.97858,2541.35205,800.65082,2565.761Z" transform="translate(-1 -2306)"/><path class="cls-11" d="M807.475,2508.75708l-6.82422,57.00391-.25433.428-2.37915-1.58813L805.37817,2508h1.89526S807.3479,2508.27,807.475,2508.75708Z" transform="translate(-1 -2306)"/><rect class="cls-8" x="772.23069" y="2534.95259" width="58.71625" height="4.4978" transform="translate(-1813.93518 725.36782) rotate(-83.17)"/><path class="cls-12" d="M780.62889,2571.59523c-.00184.314-.2559.56821-.57.40477h-.85323c-.3148.16527-.57-.09-.57-.40477a.27621.27621,0,0,1,0-.06663A.62272.62272,0,0,1,779.199,2571h.85323a.63628.63628,0,0,1,.54991.462A.52779.52779,0,0,1,780.62889,2571.59523Z" transform="translate(-1 -2306)"/><path class="cls-12" d="M783.0082,2571.59512c-.00184.31409-.256.56835-.57013.40488h-.85345c-.31488.16531-.57013-.09-.57013-.40488a.56126.56126,0,0,1,.02335-.15665.5373.5373,0,0,1,.14334-.24324.74205.74205,0,0,1,.40009-.19522h.85345a.65616.65616,0,0,1,.52342.36211A.58682.58682,0,0,1,783.0082,2571.59512Z" transform="translate(-1 -2306)"/><path class="cls-12" d="M785.05438,2571a1.37234,1.37234,0,0,1-.53046,1h-.79407s-.53046-.387-.53046-.67993a.50288.50288,0,0,1,.04651-.22021c.093-.18579.27411-.31177.48077-.09985h.79407c.29126-.21216.47925.31372.47925.31372V2571Z" transform="translate(-1 -2306)"/><path class="cls-12" d="M787.506,2571.59512c-.00184.31409-.256.56835-.57013.40488h-.85345c-.31488.165-.56993-.09026-.56967-.40514a.56952.56952,0,0,1,.10293-.32616l.06665-.07347a.74205.74205,0,0,1,.40009-.19522h.85345a.75094.75094,0,0,1,.41341.212A.55.55,0,0,1,787.506,2571.59512Z" transform="translate(-1 -2306)"/><path class="cls-11" d="M780.44366,2571.34595l.11554.09766a.53353.53353,0,0,1-.51019.55591l-.01984.00049h-.79407a.5305.5305,0,0,1-.53046-.53052h0a.257.257,0,0,1,0-.062Z" transform="translate(-1 -2306)"/><path class="cls-11" d="M782.89545,2571.26172a.54457.54457,0,0,1,.04346.20776.53358.53358,0,0,1-.53046.53052h-.79407a.5305.5305,0,0,1-.53046-.53052h0a.52221.52221,0,0,1,.02173-.14575Z" transform="translate(-1 -2306)"/><path class="cls-11" d="M784.97681,2571.19043A.5288.5288,0,0,1,784.527,2572H783.733a.5305.5305,0,0,1-.53046-.53052h0a.50288.50288,0,0,1,.04651-.22021Z" transform="translate(-1 -2306)"/><path class="cls-11" d="M787.43665,2571.46948a.53358.53358,0,0,1-.53046.53052h-.79407a.53046.53046,0,0,1-.43427-.83447l1.613-.05591A.51173.51173,0,0,1,787.43665,2571.46948Z" transform="translate(-1 -2306)"/><path class="cls-8" d="M791.998,2574H777v-.69775a1.18248,1.18248,0,0,1,1.12827-1.19434l12.02873-.425a1.80066,1.80066,0,0,1,1.84294,1.75928l.00006.00146.001.06006Z" transform="translate(-1 -2306)"/><path class="cls-10" d="M867.01286,2570.98705a1.90354,1.90354,0,0,0,1.79505,2.01172l.02032.00122H888v-1H872.03633a.97855.97855,0,0,1-.77161-1.46861l14.45886-28.8221A1.28237,1.28237,0,0,1,886.8442,2541H894v-4h-9.0256a.898.898,0,0,0-.77161.48925L867.62764,2568.65A5.18562,5.18562,0,0,0,867.01286,2570.98705Z" transform="translate(-1 -2306)"/><path class="cls-10" d="M901.972,2565.761l.25433.428,2.37915-1.58813L897.24463,2508h-1.89526s-.07758.2605-.20471.75684C893.87286,2513.64868,887.62866,2541.35205,901.972,2565.761Z" transform="translate(-1 -2306)"/><path class="cls-11" d="M895.14465,2508.75708l6.82422,57.00391.25433.428,2.37915-1.58813L897.24463,2508h-1.89526S895.27179,2508.27,895.14465,2508.75708Z" transform="translate(-1 -2306)"/><rect class="cls-8" x="898.78756" y="2507.83734" width="4.4978" height="58.71631" transform="translate(-296.33878 -2180.83974) rotate(-6.83)"/><path class="cls-12" d="M921.9908,2571.59523c.00184.314.256.56821.57.40477h.85323c.3148.16527.57-.09.57-.40477h0a.2762.2762,0,0,0,0-.06663A.62272.62272,0,0,0,923.4207,2571h-.85323a.63637.63637,0,0,0-.55.462A.52483.52483,0,0,0,921.9908,2571.59523Z" transform="translate(-1 -2306)"/><path class="cls-12" d="M919.61165,2571.59512c.00184.31409.256.56835.57013.40488h.85345c.31488.16531.57013-.09.57013-.40488h0a.56126.56126,0,0,0-.02335-.15665.5373.5373,0,0,0-.14334-.24324.74205.74205,0,0,0-.40009-.19522h-.87018a.65616.65616,0,0,0-.52342.36211A.586.586,0,0,0,919.61165,2571.59512Z" transform="translate(-1 -2306)"/><path class="cls-12" d="M917.56531,2571a1.37234,1.37234,0,0,0,.53046,1h.79407s.53046-.387.53046-.67993h0a.50208.50208,0,0,0-.04657-.22021c-.093-.18579-.27411-.31177-.48077-.09985h-.79407c-.2912-.21216-1.09888.31372-1.09888.31372V2571Z" transform="translate(-1 -2306)"/><path class="cls-12" d="M915.11363,2571.59512c.00184.31409.256.56835.57013.40488h.85345c.31488.165.56993-.09026.56967-.40514a.56952.56952,0,0,0-.10293-.32616l-.06665-.07347a.74205.74205,0,0,0-.40009-.19522h-.85345a.75094.75094,0,0,0-.41341.212A.55.55,0,0,0,915.11363,2571.59512Z" transform="translate(-1 -2306)"/><path class="cls-11" d="M922.176,2571.34595l-.11554.09766a.53357.53357,0,0,0,.51019.55591l.01984.00049h.79407a.5305.5305,0,0,0,.53046-.53052h0a.25705.25705,0,0,0,0-.062Z" transform="translate(-1 -2306)"/><path class="cls-11" d="M919.72424,2571.26172a.54457.54457,0,0,0-.04346.20776.53358.53358,0,0,0,.53046.53052h.79407a.5305.5305,0,0,0,.53046-.53052h0a.52222.52222,0,0,0-.02173-.14575Z" transform="translate(-1 -2306)"/><path class="cls-11" d="M917.64288,2571.19043a.5288.5288,0,0,0,.44977.80957h.79407a.5305.5305,0,0,0,.53046-.53052h0a.50208.50208,0,0,0-.04657-.22021Z" transform="translate(-1 -2306)"/><path class="cls-11" d="M915.183,2571.46948a.53358.53358,0,0,0,.53046.53052h.79407a.53046.53046,0,0,0,.43427-.83447l-1.613-.05591A.51173.51173,0,0,0,915.183,2571.46948Z" transform="translate(-1 -2306)"/><path class="cls-8" d="M911,2574h15v-.69775a1.21859,1.21859,0,0,0-1.20349-1.19434l-12.8307-.425A1.87067,1.87067,0,0,0,910,2573.44214l-.00006-.44067,1.00006.06006Z" transform="translate(-1 -2306)"/><path class="cls-13" d="M974.30353,2581.845c7.15613-12.13794,4.56293-36.62134,4.85144-37.0896.25745-.4126-.72894-11.94238-7.305-14.759-1.188-2.35425-2.35742-5.00659-2.35742-5.00659a2.078,2.078,0,0,1-.37842.28223q-.07745-.21094-.152-.428c-.08374-.24512-.16132-.49634-.23883-.74756a4.784,4.784,0,0,0,.56146.14258,2.33754,2.33754,0,0,0,1.50134-.1333,1.6715,1.6715,0,0,0,.43115-.332,3.2691,3.2691,0,0,0,1.04535-1.551l1.91388-4.58472a35.68007,35.68007,0,0,0,2.19-6.34351,17.86107,17.86107,0,0,0-.76306-9.88281,6.30414,6.30414,0,0,0-2.14343-3.12671c-2.131-1.44556-5.09644-.44678-7.53149-1.29346-.80029-.27905-1.523-.75073-2.32336-1.03589a7.144,7.144,0,0,0-5.34149.48389,25.41834,25.41834,0,0,0-4.46368,3.10181c-.71655.54907-1.86115,1.1167-2.7049,1.86108a2.72466,2.72466,0,0,0-1.32764,2.42871c.13647,1.16333,1.36176,1.86108,2.50323,2.134.18921.04346.38464.07764.577.11157a11.167,11.167,0,0,0,4.76764,18.54956,26.16974,26.16974,0,0,1,1.53967,3.47974l-.26038.50342a16.55835,16.55835,0,0,0-3.25214,1.11035c-.89026.73828.974,7.20264.974,7.20264-.47461.60181-.9585,1.28735-1.44861,2.02246a43.59782,43.59782,0,0,0-6.87384,18.78833c-.31018,2.45361-.71344,4.96313-1.22528,7.34839l-22.23151-4.45752-.04657.54907-.53046-.13037h0l-1.66882-.4126-.06512.37524-.25433-.12109c-4.13489-1.93872-11.10175-4.41406-15.81976-1.86108-4.97858,2.68018,5.76648,6.241,12.662,8.13623a11.20244,11.20244,0,0,0-6.20386,1.94482c-5.00031,3.74707,9.14136,5.69824,15.81976,6.38989l.2699.02783v.14258l2.314.21411.54285.04956.05273.82519s3.31287.54273,7.73932,1.20044a135.01566,135.01566,0,0,1-15.63367,2.64893,11.43871,11.43871,0,0,0-9.74622,8.20459,7.29535,7.29535,0,0,0-.11163,3.94556c1.29041,4.50708-.2854,37.66357-.64209,44.8042l-8.17352,4.70557s-12.7179,1.551-4.24652,4.532a17.42022,17.42022,0,0,0,2.33575.62036c-1.1167.71973-1.02051,1.65942,2.27063,2.81348,8.47754,2.97168,28.184-.13037,28.184-.13037s-.43115-3.49268-1.1322-6.39624l.21716.01856s-2.03485-7.57178,1.05157-11.39014-.518-32.88037-.518-32.88037,5.40356-2.23657,21.55524-2.38232c13.02808,3.344,19.37769-8.62646,19.28772-14.8147A3.29358,3.29358,0,0,1,974.30353,2581.845Z" transform="translate(-1 -2306)"/><path class="cls-14" d="M926.48022,2563.03491l-1.38037,5.5835s-1.24078-.27905-3.10193-.75684c-6.3031-1.63159-19.5979-5.54932-14.26886-8.4248,4.59393-2.48145,11.35925-.06836,15.37622,1.8147,1.47034.69165,2.57458,1.312,3.06781,1.60376C926.381,2562.9729,926.48022,2563.03491,926.48022,2563.03491Z" transform="translate(-1 -2306)"/><path class="cls-11" d="M926.09247,2564.6106l-.99261,4.03247s-1.24078-.27905-3.10193-.75684l1.11981-6.61011c1.47034.69165,2.57458,1.312,3.06781,1.60376Z" transform="translate(-1 -2306)"/><polygon class="cls-15" points="925.096 263.025 921.243 262.072 922.44 255.012 925.521 255.772 925.096 263.025"/><polygon class="cls-11" points="925.096 263.025 923.433 262.615 924.06 255.413 925.521 255.772 925.096 263.025"/><path class="cls-16" d="M963.269,2539.783s-7.39807-4.27441-10.6861,7.98755-3.59821,17.9104-3.59821,17.9104l-23.36365-4.67139-.74133,8.53345s24.97974,8.06494,28.122,7.47876S966.34,2559.34082,966.34,2559.34082,975.60846,2546.09229,963.269,2539.783Z" transform="translate(-1 -2306)"/><g class="cls-17"><path d="M926.48022,2563.03491l-1.38037,5.5835s-1.24078-.27905-3.10193-.75684c-6.3031-1.63159-19.5979-5.54932-14.26886-8.4248,4.59393-2.48145,11.35925-.06836,15.37622,1.8147,1.47034.69165,2.57458,1.312,3.06781,1.60376C926.381,2562.9729,926.48022,2563.03491,926.48022,2563.03491Z" transform="translate(-1 -2306)"/><path class="cls-11" d="M926.09247,2564.6106l-.99261,4.03247s-1.24078-.27905-3.10193-.75684l1.11981-6.61011c1.47034.69165,2.57458,1.312,3.06781,1.60376Z" transform="translate(-1 -2306)"/><polygon points="925.096 263.025 921.243 262.072 922.44 255.012 925.521 255.772 925.096 263.025"/><polygon class="cls-11" points="925.096 263.025 923.433 262.615 924.06 255.413 925.521 255.772 925.096 263.025"/><path d="M963.269,2540.093s-7.39807-4.27441-10.6861,7.98755-3.59821,17.9104-3.59821,17.9104l-23.36365-4.67139-.74133,8.53345s24.97974,8.06494,28.122,7.47876S966.34,2559.65088,966.34,2559.65088,975.60846,2546.40234,963.269,2540.093Z" transform="translate(-1 -2306)"/></g><path class="cls-18" d="M916.21289,2634.79468l-9.53839,5.49341s-12.358,1.51367-4.12555,4.39844,27.37134-.1272,27.37134-.1272-1.064-8.59839-2.54669-9.79907S916.21289,2634.79468,916.21289,2634.79468Z" transform="translate(-1 -2306)"/><path class="cls-19" d="M953.3894,2573.15967a66.3887,66.3887,0,0,1-13.177,4.625,132.04883,132.04883,0,0,1-15.401,2.62427,11.10816,11.10816,0,0,0-9.467,7.9502,7.08471,7.08471,0,0,0-.10858,3.84643c1.40515,4.9104-.69171,44.82593-.69171,44.82593l14.486,1.34009s-1.97589-7.35474,1.02362-11.06152-.5025-31.92187-.5025-31.92187,5.24841-2.17139,20.93176-2.314c14.52942,3.72241,20.51611-12.18115,18.27338-16.63867S953.3894,2573.15967,953.3894,2573.15967Z" transform="translate(-1 -2306)"/><g class="cls-17"><path d="M916.21289,2634.79468l-9.53839,5.49341s-12.358,1.51367-4.12555,4.39844,27.37134-.1272,27.37134-.1272-1.064-8.59839-2.54669-9.79907S916.21289,2634.79468,916.21289,2634.79468Z" transform="translate(-1 -2306)"/><path d="M953.3894,2573.15967a66.3887,66.3887,0,0,1-13.177,4.625,132.04883,132.04883,0,0,1-15.401,2.62427,11.10816,11.10816,0,0,0-9.467,7.9502,7.08471,7.08471,0,0,0-.10858,3.84643c1.40515,4.9104-.69171,44.82593-.69171,44.82593l14.486,1.34009s-1.97589-7.35474,1.02362-11.06152-.5025-31.92187-.5025-31.92187,5.24841-2.17139,20.93176-2.314c14.52942,3.72241,20.51611-12.18115,18.27338-16.63867S953.3894,2573.15967,953.3894,2573.15967Z" transform="translate(-1 -2306)"/></g><path class="cls-18" d="M920.68585,2638.1294l-9.53839,5.49341s-12.35187,1.50122-4.12555,4.39844,27.37134-.1272,27.37134-.1272-1.064-8.59839-2.54669-9.79907S920.68585,2638.1294,920.68585,2638.1294Z" transform="translate(-1 -2306)"/><path class="cls-19" d="M954.94037,2596.40845c-15.68329.14258-20.93176,2.314-20.93176,2.314s3.50208,28.22754.5025,31.92188-1.02362,11.06152-1.02362,11.06152l-14.486-1.34009s.02484-.47144.06512-1.31519c.34741-6.93579,1.87665-39.13379.62036-43.51074a7.08493,7.08493,0,0,1,.10858-3.834,11.111,11.111,0,0,1,9.464-7.96875,128.293,128.293,0,0,0,15.39795-2.62427l.242-.062a65.8256,65.8256,0,0,0,12.935-4.563s13.12421-1.17871,15.36694,3.27881a5.27358,5.27358,0,0,1,.45911,2.24878C973.77209,2588.03027,967.5993,2599.65625,954.94037,2596.40845Z" transform="translate(-1 -2306)"/><path class="cls-14" d="M933.09351,2569.99243l-.53046,5.73853s-1.2749-.09009-3.17017-.28857c-6.47369-.6731-20.20593-2.56519-15.35138-6.20386,4.17517-3.12671,11.22278-1.762,15.47546-.49634,1.551.46533,2.74213.915,3.27252,1.12915C932.985,2569.946,933.09351,2569.99243,933.09351,2569.99243Z" transform="translate(-1 -2306)"/><path class="cls-14" d="M971.6225,2532.47485s-1.94183,1.52-4.31476,3.18872c-2.60254.58936-5.62378,1.07642-7.80133,1.39282a12.384,12.384,0,0,0-.56769-7.7207,29.06076,29.06076,0,0,0-3.89288-7.15918l13.12732-4.09766c-1.02985,2.60864-.56458,5.5835.31018,8.17041A26.93863,26.93863,0,0,0,971.6225,2532.47485Z" transform="translate(-1 -2306)"/><path class="cls-11" d="M932.94464,2571.60864l-.38153,4.12256s-1.2749-.09009-3.17017-.28857l.12408-6.70337c1.551.46533,2.74213.915,3.27252,1.12915Z" transform="translate(-1 -2306)"/><polygon class="cls-15" points="932.605 269.973 928.654 269.607 928.784 262.448 931.945 262.739 932.605 269.973"/><path class="cls-11" d="M971.6225,2532.47485s-1.94183,1.52-4.31476,3.18872c-2.60254.58936-5.62378,1.07642-7.80133,1.39282a12.384,12.384,0,0,0-.56769-7.7207c3.2074-.93066,7.79511-2.134,9.54773-3.10181A26.93721,26.93721,0,0,0,971.6225,2532.47485Z" transform="translate(-1 -2306)"/><path class="cls-15" d="M968.99823,2526.38892s2.19617,4.98486,3.57959,7.23682-16.07416,4.34277-16.07416,4.34277-1.81152-6.27515-.94611-6.99487S967.53723,2527.84668,968.99823,2526.38892Z" transform="translate(-1 -2306)"/><path class="cls-11" d="M973.68524,2582.01856a15.70782,15.70782,0,0,1-2.71729,3.51758c-7.71136,7.32666-20.35168-.3103-26.05615-4.48535a65.8256,65.8256,0,0,0,12.935-4.563s13.12421-1.17871,15.36688,3.27881A5.273,5.273,0,0,1,973.68524,2582.01856Z" transform="translate(-1 -2306)"/><path class="cls-16" d="M971.01764,2585.012c-8.766,8.32544-23.88477-2.69873-27.96069-5.94629-.66071-.52734-1.02985-.853-1.02985-.853,1.60992-1.50757,3.02435-4.70239,4.14416-8.61084a75.56556,75.56556,0,0,0,2.25513-11.40894,42.34125,42.34125,0,0,1,6.67535-18.24854c.47461-.71338.9306-1.38037,1.40515-1.96362,3.30975-4.20923,8.87146-6.88306,8.87146-6.88306,11.73767-3.43066,13.31659,13.98047,13.00323,14.48291S981.20746,2575.33081,971.01764,2585.012Z" transform="translate(-1 -2306)"/><path class="cls-11" d="M972.15289,2561.21094s-7.547,18.42529-10.56512,19.477c-1.72778.59863-10.956-.53662-18.53088-1.61914-.66071-.52734-1.02985-.853-1.02985-.853,1.60992-1.50757,3.02435-4.70239,4.14417-8.61084l9.75555.46533s-.54285-5.627.89026-18.24561,9.37708-9.49194,9.37708-9.49194C979.337,2546.73438,972.15289,2561.21094,972.15289,2561.21094Z" transform="translate(-1 -2306)"/><polygon class="cls-11" points="932.605 269.973 930.899 269.815 930.446 262.603 931.945 262.739 932.605 269.973"/><path class="cls-16" d="M966.00488,2541.52s-7.944-3.12354-9.37708,9.49194-.89026,18.24561-.89026,18.24561l-23.801-1.13843.53662,8.54883s25.90411,4.25268,28.9223,3.20435,10.56512-19.477,10.56512-19.477S979.13531,2545.91846,966.00488,2541.52Z" transform="translate(-1 -2306)"/><path class="cls-11" d="M966.53845,2522.84033c-.34741-1.886,1.62231-1.86108,2.32953-3.6355l-13.12732,4.09766a28.9781,28.9781,0,0,1,2.43188,3.86816,10.8867,10.8867,0,0,0,2.08759.40332C963.39,2527.87158,964.36707,2524.79126,966.53845,2522.84033Z" transform="translate(-1 -2306)"/><circle class="cls-14" cx="960.55364" cy="2515.64392" r="10.8443" transform="translate(-1633.80912 934.62474) rotate(-84.72)"/><path class="cls-11" d="M949.85321,2505.8479c.13336,1.12915,1.32452,1.81763,2.43188,2.072a10.65613,10.65613,0,0,1,3.27875.85913c1.551.95532,1.96973,3.07715,1.77429,4.90088-.10858,1.02979-.26367,2.29224.58008,2.89111a2.24693,2.24693,0,0,0,.86853.3103,8.1474,8.1474,0,0,0,2.67383.093,3.80361,3.80361,0,0,1,1.551-.04028,2.36027,2.36027,0,0,1,1.45172,1.92017c.1582.82813.07135,1.69043.19855,2.5249a5.24224,5.24224,0,0,0,4.13177,4.262,2.27438,2.27438,0,0,0,1.45789-.13037,2.91425,2.91425,0,0,0,1.14459-1.58813l1.86114-4.45435a34.70041,34.70041,0,0,0,2.12793-6.1604,17.34629,17.34629,0,0,0-.74133-9.59741,6.15048,6.15048,0,0,0-2.08142-3.03687c-2.069-1.40527-4.96307-.43433-7.31433-1.24072-.77856-.26977-1.47961-.729-2.25513-1.00488a6.9447,6.9447,0,0,0-5.18951.47143,24.54592,24.54592,0,0,0-4.34271,3.02441C952.22931,2502.88257,949.62054,2503.89673,949.85321,2505.8479Z" transform="translate(-1 -2306)"/><path class="cls-20" d="M950.13861,2505.60913c.13336,1.12915,1.32452,1.81763,2.43188,2.072a10.65616,10.65616,0,0,1,3.27875.85913c1.551.95532,1.96973,3.07715,1.77429,4.90088-.10858,1.02978-.26367,2.29224.58008,2.89111a2.24689,2.24689,0,0,0,.86853.3103,8.14737,8.14737,0,0,0,2.67383.093,3.80361,3.80361,0,0,1,1.551-.04028,2.36027,2.36027,0,0,1,1.45172,1.92017c.1582.82813.07135,1.69043.19855,2.5249a5.24224,5.24224,0,0,0,4.13177,4.262,2.27438,2.27438,0,0,0,1.45789-.13037,2.91425,2.91425,0,0,0,1.14459-1.58813l1.86114-4.45435a34.70043,34.70043,0,0,0,2.12793-6.1604,17.34629,17.34629,0,0,0-.74133-9.59741,6.15049,6.15049,0,0,0-2.08142-3.03687c-2.069-1.40527-4.96307-.43433-7.31433-1.24072-.77856-.26978-1.47961-.729-2.25513-1.00488a6.94586,6.94586,0,0,0-5.18951.47144,24.54587,24.54587,0,0,0-4.34271,3.02441C952.51776,2502.64356,949.909,2503.658,950.13861,2505.60913Z" transform="translate(-1 -2306)"/><path class="cls-11" d="M959.1217,2548.44971s-4.14105,16.08667-8.26349,17.57544-2.30164,1.91089-2.30164,1.91089" transform="translate(-1 -2306)"/><rect class="cls-8" x="953" y="302" width="5" height="29"/><rect class="cls-11" x="953" y="301" width="5" height="2"/><path class="cls-8" d="M945,2607.22412v.59961c.67743.79224,1.33252,1.42188,2.12488,1.17627h19.7168A.88713.88713,0,0,0,968,2607.82373h0v-.59961A.92064.92064,0,0,0,966.84167,2606h-19.7168C946.33252,2605.80225,945.67743,2606.43189,945,2607.22412Z" transform="translate(-1 -2306)"/><path class="cls-11" d="M946.14642,2606H967.987c-.20764.01685-.65564-.23071-1.12286,1h-19.598C946.8,2605.77051,946.35345,2606.01782,946.14642,2606Z" transform="translate(-1 -2306)"/><path class="cls-8" d="M940.23291,2635h33.50073a2.21985,2.21985,0,0,1,1.70605,1.99219h0c0,.94214-.76386,1.70605-1.70605,1.00781H940.23291c-.9422.69824-1.70605-.06567-1.70605-1.00781h0A2.21985,2.21985,0,0,1,940.23291,2635Z" transform="translate(-1 -2306)"/><circle class="cls-10" cx="972.46814" cy="335.14136" r="2.25198"/><circle class="cls-10" cx="939.6684" cy="335.14136" r="2.25198"/><circle class="cls-10" cx="956.06824" cy="335.14136" r="2.25198"/><path class="cls-8" d="M953.63672,265h29.72662A2.63666,2.63666,0,0,1,986,267.63666v.72662A2.63672,2.63672,0,0,1,983.36328,271H953.63666A2.63666,2.63666,0,0,1,951,268.36334v-.72662A2.63672,2.63672,0,0,1,953.63672,265Z"/><path class="cls-11" d="M959.31714,2635.353s-1.76813,1.74634-4.50092,0" transform="translate(-1 -2306)"/><path class="cls-11" d="M987,2574v.75122A2.24878,2.24878,0,0,1,984.75122,2577H954.24878A2.24878,2.24878,0,0,1,952,2574.75122V2574Z" transform="translate(-1 -2306)"/><rect class="cls-8" x="922" y="273" width="6" height="78"/><rect class="cls-11" x="922" y="273" width="6" height="5"/><rect class="cls-8" x="739" y="304" width="5" height="29"/><rect class="cls-11" x="739" y="304" width="5" height="2"/><path class="cls-8" d="M754,2609.38843v.60181c-.67255.7937-1.32764,1.42529-2.1214,1.00977H732.1618A.79108.79108,0,0,1,731,2609.99023h0v-.60181A1.06537,1.06537,0,0,1,732.1618,2608h19.7168c.79376-.0249,1.44885.60669,2.1214,1.40039h0Z" transform="translate(-1 -2306)"/><path class="cls-11" d="M753.03638,2609H731.19263c.17548-.84106.64795-1.10205,1.12292-1h19.598C752.38849,2607.89795,752.8609,2608.15894,753.03638,2609Z" transform="translate(-1 -2306)"/><path class="cls-8" d="M725.26984,2638h33.50073c.9422-.54248,1.70605.22144,1.70605,1.16357h0A1.918,1.918,0,0,1,758.77057,2641H725.26984a1.918,1.918,0,0,1-1.70605-1.83643h0C723.56378,2638.22144,724.32764,2637.45752,725.26984,2638Z" transform="translate(-1 -2306)"/><circle class="cls-10" cx="724.71771" cy="337.25684" r="2.25198"/><circle class="cls-10" cx="757.51434" cy="337.25684" r="2.25198"/><circle class="cls-10" cx="741.1145" cy="337.25684" r="2.25198"/><path class="cls-11" d="M739.8656,2637.46851s1.76813,1.74634,4.50092,0" transform="translate(-1 -2306)"/><path class="cls-21" d="M854.68939,2548.41235s-5.04993-9.17847-3.20428-17.15674a15.87254,15.87254,0,0,0-.884-10.00049,26.70138,26.70138,0,0,0-2.36676-4.262" transform="translate(-1 -2306)"/><path class="cls-16" d="M849.35406,2512c.26367,1.20361-1.1477,5.1709-1.1477,5.1709s-2.94373-3.00879-3.21051-4.2124a2.23315,2.23315,0,0,1,1.98145-2.875,2.14992,2.14992,0,0,1,1.23523.27393A2.24687,2.24687,0,0,1,849.3385,2512Z" transform="translate(-1 -2306)"/><path class="cls-16" d="M854.41949,2518c-.43115,1.15381-3.77191,3.72241-3.77191,3.72241s-.83752-4.12549-.40326-5.27319a2.23382,2.23382,0,0,1,3.2926-1.21069,2.1528,2.1528,0,0,1,.87012.99463,2.25488,2.25488,0,0,1,.0155,1.76685Z" transform="translate(-1 -2306)"/><path class="cls-16" d="M856.76459,2529.24878c-.95538.77857-5.13367,1.30274-5.13367,1.30274s1.36176-3.98291,2.31714-4.76148a2.23028,2.23028,0,0,1,2.84631,3.43433Z" transform="translate(-1 -2306)"/><path class="cls-16" d="M856.594,2538c-.80957.93066-4.839,2.15283-4.839,2.15283s.66693-4.15649,1.4765-5.084a2.2307,2.2307,0,0,1,3.64447,2.55127,2.31461,2.31461,0,0,1-.285.37988Z" transform="translate(-1 -2306)"/><path class="cls-16" d="M846.00006,2522.78125c1.04846.64819,5.25775.62036,5.25775.62036s-1.86114-3.7749-2.90961-4.42334a2.23062,2.23062,0,0,0-2.71039,3.52881,2.32728,2.32728,0,0,0,.36218.26172Z" transform="translate(-1 -2306)"/><path class="cls-16" d="M846.06293,2533.35889c1.19421.3103,5.205-.96777,5.205-.96777s-2.90649-3.04614-4.10071-3.3501a2.23028,2.23028,0,0,0-1.10431,4.31787Z" transform="translate(-1 -2306)"/><path class="cls-16" d="M847.33038,2543.64478c1.12286.50244,5.295-.07446,5.295-.07446s-2.35126-3.49268-3.47412-3.99536a2.23066,2.23066,0,0,0-1.8208,4.07275Z" transform="translate(-1 -2306)"/><path class="cls-16" d="M849.35406,2512c.26367,1.20361-1.1477,5.1709-1.1477,5.1709s-2.94373-3.00879-3.21051-4.2124a2.23315,2.23315,0,0,1,1.98145-2.875,2.14992,2.14992,0,0,1,1.23523.27393A2.24687,2.24687,0,0,1,849.3385,2512Z" transform="translate(-1 -2306)"/><path class="cls-16" d="M854.41949,2518c-.43115,1.15381-3.77191,3.72241-3.77191,3.72241s-.83752-4.12549-.40326-5.27319a2.23382,2.23382,0,0,1,3.2926-1.21069,2.1528,2.1528,0,0,1,.87012.99463,2.25488,2.25488,0,0,1,.0155,1.76685Z" transform="translate(-1 -2306)"/><path class="cls-16" d="M856.76459,2529.24878c-.95538.77857-5.13367,1.30274-5.13367,1.30274s1.36176-3.98291,2.31714-4.76148a2.23028,2.23028,0,0,1,2.84631,3.43433Z" transform="translate(-1 -2306)"/><path class="cls-16" d="M856.594,2538c-.80957.93066-4.839,2.15283-4.839,2.15283s.66693-4.15649,1.4765-5.084a2.2307,2.2307,0,0,1,3.64447,2.55127,2.31461,2.31461,0,0,1-.285.37988Z" transform="translate(-1 -2306)"/><path class="cls-16" d="M846.00006,2522.78125c1.04846.64819,5.25775.62036,5.25775.62036s-1.86114-3.7749-2.90961-4.42334a2.23062,2.23062,0,0,0-2.71039,3.52881,2.32728,2.32728,0,0,0,.36218.26172Z" transform="translate(-1 -2306)"/><path class="cls-16" d="M846.06293,2533.35889c1.19421.3103,5.205-.96777,5.205-.96777s-2.90649-3.04614-4.10071-3.3501a2.23028,2.23028,0,0,0-1.10431,4.31787Z" transform="translate(-1 -2306)"/><path class="cls-16" d="M847.33038,2543.64478c1.12286.50244,5.295-.07446,5.295-.07446s-2.35126-3.49268-3.47412-3.99536a2.23066,2.23066,0,0,0-1.8208,4.07275Z" transform="translate(-1 -2306)"/><path class="cls-16" d="M852.63593,2574.19507h0a5.31666,5.31666,0,0,1-5.31793-5.31543c.00006-.11206.00354-.22437.01056-.33618L848.81439,2545h7.64313l1.48584,23.54346a5.31677,5.31677,0,0,1-4.97113,5.64111Q852.80432,2574.19482,852.63593,2574.19507Z" transform="translate(-1 -2306)"/><rect class="cls-7" x="693" y="152" width="4" height="18"/><rect class="cls-7" x="698" y="152" width="4" height="18"/><rect class="cls-7" x="704" y="152" width="4" height="18"/><rect class="cls-7" x="709" y="152" width="4" height="18"/><rect class="cls-7" x="721" y="152" width="4" height="18"/><rect class="cls-7" x="726" y="152" width="4" height="18"/><rect class="cls-7" x="693" y="156" width="4" height="1"/><rect class="cls-7" x="693" y="167" width="4" height="1"/><rect class="cls-7" x="698" y="156" width="4" height="1"/><rect class="cls-7" x="698" y="167" width="4" height="1"/><rect class="cls-7" x="704" y="156" width="4" height="1"/><rect class="cls-7" x="704" y="167" width="4" height="1"/><rect class="cls-7" x="709" y="156" width="4" height="1"/><rect class="cls-7" x="709" y="167" width="4" height="1"/><rect class="cls-7" x="715" y="156" width="4" height="1"/><rect class="cls-7" x="715" y="167" width="4" height="1"/><rect class="cls-7" x="721" y="156" width="4" height="1"/><rect class="cls-7" x="721" y="167" width="4" height="1"/><rect class="cls-7" x="726" y="156" width="4" height="1"/><rect class="cls-7" x="726" y="167" width="4" height="1"/><rect class="cls-7" x="715" y="152" width="4" height="18"/><rect class="cls-7" x="735.10594" y="2458.12523" width="4.34271" height="17.99121" transform="matrix(0.90748, -0.42009, 0.42009, 0.90748, -969.19263, -1768.03322)"/><rect class="cls-7" x="732.95705" y="2462.01389" width="4.34265" height="0.93066" transform="matrix(0.90748, -0.42009, 0.42009, 0.90748, -967.44156, -1769.36537)"/><rect class="cls-7" x="737.64577" y="2472.14671" width="4.34271" height="0.93066" transform="matrix(0.90748, -0.42009, 0.42009, 0.90748, -971.26443, -1766.45825)"/><path class="cls-22" d="M788.45348,2643.76147l-7.86386-5.02832c-.04022-7.08179-.15167-39.959,1.31837-44.35742a7.24024,7.24024,0,0,0,.06191-3.91162,11.30762,11.30762,0,0,0-9.26273-8.54272,132.8396,132.8396,0,0,1-15.31922-3.30347c4.39774-.45606,7.69367-.84985,7.69367-.84985l.08665-.81592L768,2576.81567v-.12109l.26927-.01562c6.61355-.394,20.65779-1.70605,15.88561-5.63306a10.9891,10.9891,0,0,0-6.02554-2.196c6.889-1.57568,17.65581-4.62817,12.85578-7.49732-4.56172-2.72339-11.54666-.58325-15.71536,1.157l-.25684.10864-.04643-.37524-1.665.335h0l-.52921.10547-.02474-.5459-23.3626,3.61694a80.09617,80.09617,0,0,0-.95319-8.0061c.523-3.49268,2.95555-8.58618,2.09827-11.31885-.99652-3.17334-5.08782-4.2124-6.80854-7.07861-.45183-.74756-.90061-1.44849-1.34006-2.06274a21.69231,21.69231,0,0,0-3.29593-3.57031,15.10271,15.10271,0,0,1,1.21314-5.35083,25.9452,25.9452,0,0,1,1.63407-3.28809,11.043,11.043,0,0,0,8.18261-12.71777c1.4793.636,3.27741.70093,4.20275-.5398l-.43946-.17065a1.40351,1.40351,0,0,0,.12382-.14575,8.29782,8.29782,0,0,1-2.56247-1.36182,3.00812,3.00812,0,0,1-.44872-.667c-.42709-.86865-.37755-1.91089-.78605-2.79175a3.22877,3.22877,0,0,0-.80153-1.04834,5.51467,5.51467,0,0,0-2.61822-1.50122,33.02216,33.02216,0,0,1-3.36406-.93066,11.35671,11.35671,0,0,0-12.10373-3.41211l-.38687.1333a5.048,5.048,0,0,0-9.84453-2.2334,5.05236,5.05236,0,0,1,1.34933-3.02124c-.08049.06836-.164.1333-.24136.20483a5.07058,5.07058,0,0,0-.22,7.15576l.0003.00024.08976.08691a5.07647,5.07647,0,0,0,1.26579,1.1106,5.05983,5.05983,0,0,1-3.33-4.14722v.3103a5.05489,5.05489,0,0,0,5.33436,4.7605h.00055l.03455-.0022.1393-.01562-.07428.10229a11.4074,11.4074,0,0,0,1.02132,14.09814,5.27778,5.27778,0,0,0,.81085,1.30273,4.20893,4.20893,0,0,0,.37444.37842,4.79485,4.79485,0,0,0,3.23713,1.49512q.30948.36914.65919.71045a18.50347,18.50347,0,0,1-.79848,2.55591,27.1117,27.1117,0,0,1-2.45108,4.73657c-6.68473,1.90454-7.27274,13.28247-7.03138,13.71362.28779.51489-.99652,18.38208,3.95512,39.96509-.20425,6.16968,3.38569,16.37183,16.13007,13.68262,15.93819.853,21.16531,3.30054,21.16531,3.30054s-1.51336,27.78393.64682,31.82886c1.35243,2.53418.393,6.25659-.619,8.88379a9.77175,9.77175,0,0,0-.89128,2.05957c-.30948.65454-.53543,1.05151-.53543,1.05151h.21662c-.817,2.84448-1.39576,6.27832-1.39576,6.27832s19.32077,3.93018,27.81908,1.35864c3.299-.99878,3.43523-1.9231,2.36443-2.68628a17.16511,17.16511,0,0,0,2.33348-.51172C800.95023,2645.86768,788.45348,2643.76147,788.45348,2643.76147Z" transform="translate(-1 -2306)"/><path class="cls-23" d="M746.18109,2511.74146a11.1669,11.1669,0,1,1-11.16693-11.167,11.16679,11.16679,0,0,1,11.16693,11.167Z" transform="translate(-1 -2306)"/><path class="cls-14" d="M771.33459,2564.20435l1.1322,5.65161s1.2594-.22632,3.12366-.62036c6.36823-1.34937,19.82434-4.68091,14.61316-7.78882-4.4823-2.67065-11.3468-.5708-15.44135,1.13525-1.50134.62036-2.63043,1.19727-3.136,1.46729C771.437,2564.14551,771.33459,2564.20435,771.33459,2564.20435Z" transform="translate(-1 -2306)"/><path class="cls-11" d="M772.02789,2565.79883l.81268,4.05737s1.2594-.22632,3.12366-.62036l-.82825-6.65356c-1.50134.62036-2.63043,1.19727-3.136,1.46729Z" transform="translate(-1 -2306)"/><polygon class="cls-15" points="770.106 264.207 773.996 263.428 773.115 256.321 770 256.945 770.106 264.207"/><polygon class="cls-11" points="770.106 264.207 771.784 263.868 771.477 256.65 770 256.945 770.106 264.207"/><path class="cls-16" d="M735.60669,2539.34863s7.57178-3.94556,10.32318,8.45264,2.79175,18.05,2.79175,18.05l23.54974-3.63867.366,8.55811s-25.31165,6.95752-28.42291,6.23169-12.55658-18.25488-12.55658-18.25488S723.00354,2545.115,735.60669,2539.34863Z" transform="translate(-1 -2306)"/><g class="cls-17"><path d="M771.33459,2564.20435l1.1322,5.65161s1.2594-.22632,3.12366-.62036c6.36823-1.34937,19.82434-4.68091,14.61316-7.78882-4.4823-2.67065-11.3468-.5708-15.44135,1.13525-1.50134.62036-2.63043,1.19727-3.136,1.46729C771.437,2564.14551,771.33459,2564.20435,771.33459,2564.20435Z" transform="translate(-1 -2306)"/><path class="cls-11" d="M772.02789,2565.79883l.81268,4.05737s1.2594-.22632,3.12366-.62036l-.82825-6.65356c-1.50134.62036-2.63043,1.19727-3.136,1.46729Z" transform="translate(-1 -2306)"/><polygon points="770.106 264.207 773.996 263.428 773.115 256.321 770 256.945 770.106 264.207"/><polygon class="cls-11" points="770.106 264.207 771.784 263.868 771.477 256.65 770 256.945 770.106 264.207"/><path d="M736.227,2539.969s7.57178-3.94556,10.32318,8.45264,2.79175,18.05,2.79175,18.05l23.54974-3.63867.366,8.55811s-25.31165,6.95752-28.42291,6.23169-12.55658-18.25488-12.55658-18.25488S723.624,2545.7356,736.227,2539.969Z" transform="translate(-1 -2306)"/></g><path class="cls-24" d="M778.4411,2636.34888l9.28717,5.89356s12.28052,2.05664,3.927,4.57837-27.33722-1.33374-27.33722-1.33374,1.44238-8.54272,2.97784-9.6748S778.4411,2636.34888,778.4411,2636.34888Z" transform="translate(-1 -2306)"/><path class="cls-25" d="M744.00977,2573.12866a66.30553,66.30553,0,0,0,12.95984,5.2019,129.28265,129.28265,0,0,0,15.26764,3.30347,11.108,11.108,0,0,1,9.10413,8.37524,7.08474,7.08474,0,0,1-.059,3.834c-1.6192,4.84522-1.29041,44.81348-1.29041,44.81348l-14.52942.698s2.29852-7.26147-.53351-11.09546,1.91077-31.866,1.91077-31.866-5.14606-2.40088-20.81079-3.23535c-14.6814,3.10181-19.95776-13.07471-17.51965-17.42969S744.00977,2573.12866,744.00977,2573.12866Z" transform="translate(-1 -2306)"/><g class="cls-17"><path d="M778.4411,2636.34888l9.28717,5.89356s12.28052,2.05664,3.927,4.57837-27.33722-1.33374-27.33722-1.33374,1.44238-8.54272,2.97784-9.6748S778.4411,2636.34888,778.4411,2636.34888Z" transform="translate(-1 -2306)"/><path d="M744.00977,2573.12866a66.30553,66.30553,0,0,0,12.95984,5.2019,129.28265,129.28265,0,0,0,15.26764,3.30347,11.108,11.108,0,0,1,9.10413,8.37524,7.08474,7.08474,0,0,1-.059,3.834c-1.6192,4.84522-1.29041,44.81348-1.29041,44.81348l-14.52942.698s2.29852-7.26147-.53351-11.09546,1.91077-31.866,1.91077-31.866-5.14606-2.40088-20.81079-3.23535c-14.6814,3.10181-19.95776-13.07471-17.51965-17.42969S744.00977,2573.12866,744.00977,2573.12866Z" transform="translate(-1 -2306)"/></g><path class="cls-24" d="M773.813,2639.48486l9.28717,5.89355s12.28052,2.05664,3.927,4.57837-27.33722-1.33374-27.33722-1.33374,1.44238-8.54273,2.97784-9.67481S773.813,2639.48486,773.813,2639.48486Z" transform="translate(-1 -2306)"/><path class="cls-25" d="M741.04944,2596.29053c15.66467.83447,20.81079,3.23535,20.81079,3.23535s-1.48584,27.241.62036,31.20532c2.2489,4.2063-2.01,11.75635-2.01,11.75635l14.52942-.698v-1.31519c-.04346-6.94214-.14893-39.17725,1.29352-43.49829a7.08473,7.08473,0,0,0,.059-3.834,11.111,11.111,0,0,0-9.10413-8.37524,128.46631,128.46631,0,0,1-15.26764-3.30054l-.23883-.07446a65.05993,65.05993,0,0,1-12.7179-5.12744s-9.67487-.66992-12.09747,3.68506c-.31018.56445-1.64709,1.675-1.703,2.57153C724.86047,2588.52026,728.2757,2598.98,741.04944,2596.29053Z" transform="translate(-1 -2306)"/><path class="cls-14" d="M764.42352,2570.86426l.27606,5.75708s1.278-.03418,3.18256-.14893c6.49854-.38769,20.30206-1.67187,15.612-5.52148-4.03247-3.30982-11.13586-2.25513-15.43823-1.17871-1.57886.397-2.79175.79419-3.319.9834C764.532,2570.82373,764.42352,2570.86426,764.42352,2570.86426Z" transform="translate(-1 -2306)"/><path class="cls-14" d="M727.56958,2531.68384s1.86114,1.60376,4.169,3.37793c2.57458.70093,5.58344,1.32446,7.73309,1.73706a12.40788,12.40788,0,0,1,.90887-7.6897,29.06554,29.06554,0,0,1,4.20618-6.98242l-12.935-4.67456c.9151,2.6521.31018,5.6145-.6731,8.14868A26.94,26.94,0,0,1,727.56958,2531.68384Z" transform="translate(-1 -2306)"/><path class="cls-11" d="M764.501,2572.48657l.19855,4.13477s1.278-.03418,3.18256-.14893l.17371-6.70337c-1.57886.397-2.79175.79419-3.319.9834Z" transform="translate(-1 -2306)"/><polygon class="cls-15" points="762.651 270.817 766.612 270.628 766.798 263.468 763.628 263.62 762.651 270.817"/><path class="cls-16" d="M725.8728,2584.19629c8.37518,8.707,23.99335-1.64087,28.19336-4.70557.68243-.49951,1.064-.8064,1.064-.8064-1.551-1.57886-4.03247-3.0398-4.9848-6.99487a85.931,85.931,0,0,1-1.84253-12.25879c-.25745-3.27246,3.12366-9.50439,2.14655-12.61231s-5.00031-4.12866-6.69086-6.94214c-.44354-.73193-.884-1.42065-1.3183-2.02246-3.12054-4.34277-8.55823-7.26782-8.55823-7.26782-11.58569-3.95483-12.49451,12.59058-12.206,13.10571S720.63989,2562.44556,725.8728,2584.19629Z" transform="translate(-1 -2306)"/><path class="cls-11" d="M725.786,2560.46777s6.72809,18.7417,9.69659,19.92358c1.69989.67627,10.9715-.05273,18.58362-.80029.68243-.49951,1.064-.8064,1.064-.8064-1.551-1.57886-2.81342-4.83276-3.76263-8.78467l-9.76794.03418s.791-5.5835-.08374-18.26709-8.949-9.895-8.949-9.895C719.25024,2545.69019,725.786,2560.46777,725.786,2560.46777Z" transform="translate(-1 -2306)"/><polygon class="cls-11" points="762.651 270.817 764.36 270.736 765.133 263.549 763.628 263.62 762.651 270.817"/><path class="cls-16" d="M732.79633,2540.83789s8.065-2.77,8.949,9.895S741.83838,2569,741.83838,2569l23.829-.08691-.9151,8.51782s-26.05615,3.10181-29.034,1.92627-9.69971-19.92041-9.69971-19.92041S719.47668,2544.65625,732.79633,2540.83789Z" transform="translate(-1 -2306)"/><path class="cls-11" d="M733.091,2522.28809c.43115-1.86108-1.551-1.92017-2.17133-3.72241l12.94122,4.65283a28.96066,28.96066,0,0,0-2.59943,3.75635,10.88739,10.88739,0,0,1-2.10309.3103C736.013,2527.44043,735.17242,2524.3291,733.091,2522.28809Z" transform="translate(-1 -2306)"/><circle class="cls-14" cx="739.38205" cy="2515.36959" r="10.84432" transform="translate(-120.83568 -2267.62756) rotate(-2.7501)"/><path class="cls-11" d="M733.77344,2549.00806s3.43073,16.251,7.48181,17.9104,2.21478,2.01318,2.21478,2.01318" transform="translate(-1 -2306)"/><path class="cls-11" d="M747.912,2558.18652s-2.86615.89649-6.20386-3.38721" transform="translate(-1 -2306)"/><circle class="cls-23" cx="725.3288" cy="194.2644" r="4.9631"/><path class="cls-23" d="M722.84229,2502.8855a4.9631,4.9631,0,0,1,0-6.79c-.08063.06519-.16132.13037-.23572.20166a4.96379,4.96379,0,1,0,6.7926,7.24l.00684-.00635h0c.07758-.07129.14581-.14893.214-.22339A4.9629,4.9629,0,0,1,722.84229,2502.8855Z" transform="translate(-1 -2306)"/><path class="cls-23" d="M725.22363,2504.759A4.963,4.963,0,0,1,720,2500.41626v.3103a4.96347,4.96347,0,0,0,9.90753-.62036,2.6373,2.6373,0,0,0-.03412-.3103A4.963,4.963,0,0,1,725.22363,2504.759Z" transform="translate(-1 -2306)"/><path class="cls-11" d="M743.37384,2504.5791a22.23678,22.23678,0,0,0,3.72229,1.08887,4.61378,4.61378,0,0,1,3.05231,2.18994c.40015.8623.35364,1.88281.7724,2.73584.60175,1.24072,1.99146,1.81152,3.26941,2.29858-1.09808,1.47339-3.45557,1.07324-4.99408.07129s-2.8631-2.48144-4.65289-2.86938a4.36724,4.36724,0,0,0-4.59393,2.04419,11.03308,11.03308,0,0,0-.90576,2.81665,10.55837,10.55837,0,0,1-4.03247,6.45508c-2.17133,1.42993-5.40668,1.42065-7.10962-.53662a8.79051,8.79051,0,0,1-1.6192-4.17822,8.48951,8.48951,0,0,1-.23883-2.11231c.09924-1.78052,1.28418-3.29736,2.48157-4.61865,1.41138-1.551,2.91272-3.03979,4.414-4.51953,1.29657-1.27808,2.79175-3.44312,4.74591-3.59522C739.937,2501.66968,741.52826,2503.67651,743.37384,2504.5791Z" transform="translate(-1 -2306)"/><path class="cls-23" d="M743.06366,2504.269a22.23678,22.23678,0,0,0,3.72229,1.08887,4.61378,4.61378,0,0,1,3.05231,2.18994c.40015.8623.35364,1.88281.7724,2.73584.60175,1.24072,1.99146,1.81152,3.26941,2.29858-1.09808,1.47339-3.45557,1.07324-4.99408.07129s-2.8631-2.48145-4.65289-2.86938a4.36724,4.36724,0,0,0-4.59393,2.04419,11.03309,11.03309,0,0,0-.90576,2.81665,10.55837,10.55837,0,0,1-4.03247,6.45508c-2.17133,1.42993-5.40668,1.42065-7.10962-.53662a8.79052,8.79052,0,0,1-1.6192-4.17822,8.48951,8.48951,0,0,1-.23883-2.1123c.09924-1.78052,1.28418-3.29736,2.48157-4.61865,1.41138-1.551,2.91272-3.0398,4.414-4.51953,1.29657-1.27808,2.79175-3.44312,4.74591-3.59522C739.62677,2501.35938,741.218,2503.36646,743.06366,2504.269Z" transform="translate(-1 -2306)"/><path class="cls-8" d="M713.63672,267h29.72662A2.63666,2.63666,0,0,1,746,269.63666v.72662A2.63672,2.63672,0,0,1,743.36328,273H713.63666A2.63666,2.63666,0,0,1,711,270.36334v-.72662A2.63672,2.63672,0,0,1,713.63672,267Z"/><path class="cls-11" d="M712,2576v.75122A2.24878,2.24878,0,0,0,714.24878,2579H744.7511A2.2489,2.2489,0,0,0,747,2576.7511V2576Z" transform="translate(-1 -2306)"/><rect class="cls-8" x="773" y="273" width="6" height="78"/><rect class="cls-11" x="773" y="273" width="6" height="5"/><rect class="cls-8" x="770" y="267" width="161" height="10"/></svg>