<svg id="Layer_1" data-name="Layer 1" xmlns="http://www.w3.org/2000/svg" viewBox="0 0 98.72861 79.82955"><defs><style>.cls-1,.cls-3{fill:#283149;}.cls-1,.cls-4{stroke:#283149;stroke-width:0.25px;}.cls-1,.cls-4,.cls-5,.cls-6,.cls-7,.cls-8{stroke-miterlimit:10;}.cls-2,.cls-4{fill:#404b69;}.cls-5,.cls-6{fill:none;}.cls-5,.cls-8{stroke:#e22951;stroke-width:6px;}.cls-6,.cls-7{stroke:#f73859;}.cls-6{stroke-width:5px;}.cls-7{fill:#f73859;stroke-width:7px;}.cls-8{fill:#e22951;}</style></defs><title>student icon</title><path class="cls-1" d="M156.01773,976.39757v30.65523a54.21578,54.21578,0,0,0,51.9108,0V977.00015l-24.91719,7.23092Z" transform="translate(-132.60882 -950.42905)"/><polygon class="cls-1" points="98.391 14.081 97.991 14.081 98.291 14.171 94.146 15.407 90.3 16.553 74.311 21.321 49.364 28.759 22.339 20.701 8.429 16.553 4.583 15.407 0.438 14.171 0.737 14.081 0.337 14.081 0.337 16.553 0.737 16.553 0.438 16.643 22.339 23.173 49.364 31.231 74.311 23.793 98.291 16.643 97.991 16.553 98.391 16.553 98.391 14.081"/><polygon class="cls-2" points="0.476 14.191 49.293 0.025 98.097 14.191 49.286 28.356 0.476 14.191"/><path class="cls-3" d="M181.89513,950.48267,230.48389,964.583l.12924.0375-3.97291,1.15293-3.84369,1.11543-15.98137,4.63778-24.92,7.23175-26.99789-7.83474-13.9035-4.03478L137.15,965.77349l-3.97292-1.15293.12923-.0375,48.58877-14.10037m0-.05363L133.292,964.53359l-.29968.087,4.14337,1.2024,3.84368,1.11543,13.9035,4.03478,27.01224,7.83891,24.93437-7.23591,15.98137-4.63778,3.84369-1.11543,4.14337-1.2024-.29969-.087L181.89513,950.429Z" transform="translate(-132.60882 -950.42905)"/><path class="cls-4" d="M181.99105,984.14024s-2.77049,25.8487-25.97332,22.82741V976.4192Z" transform="translate(-132.60882 -950.42905)"/><path class="cls-5" d="M182.22092,964.66979l-34.98505,3.19933a1.904,1.904,0,0,0-1.7239,1.83614v44.038" transform="translate(-132.60882 -950.42905)"/><path class="cls-6" d="M182.9419,964.61652l-33.95071,3.10473a3.04631,3.04631,0,0,0-2.75824,2.93781v42.87822" transform="translate(-132.60882 -950.42905)"/><ellipse class="cls-1" cx="49.45946" cy="14.24074" rx="5.02151" ry="2.01418"/><path class="cls-7" d="M149.22493,1011.80369c-.18744-2.24951-1.77682-3.93127-3.56453-3.93127h-.605c.26841,8.51648-1.9433,14.91223-5.35145,17.09732l-.05685.68246c-.016.19161.07165.3478.19579.3478h10.34025c.12414,0,.21177-.15619.19579-.3478Z" transform="translate(-132.60882 -950.42905)"/><path class="cls-8" d="M145.05542,1007.35743h-.52794c-1.8771,0-3.54622,1.76905-3.74423,4.14534l-1.07931,12.952C143.11211,1022.26971,145.32385,1015.87395,145.05542,1007.35743Z" transform="translate(-132.60882 -950.42905)"/></svg>