<svg id="Layer_1" data-name="Layer 1" xmlns="http://www.w3.org/2000/svg" viewBox="0 0 45.76929 51.58509"><defs><style>.cls-1{fill:#283149;}</style></defs><title>technical support icon</title><path class="cls-1" d="M221.99669,2180.27686a7.86148,7.86148,0,1,0,.00043,0Zm5.10739,11.6687-1.22969,1.22949a.25912.25912,0,0,1-.36664,0l-2.4221-2.42212-.0919.09155a.25912.25912,0,0,1-.36664,0l-.58736-.5874a.25988.25988,0,0,1,0-.3667l.60211-.60205-.53593-.53589-1.34825,1.34863a2.03,2.03,0,0,1-1.92274,2.70532.17319.17319,0,0,1-.12233-.05127.17719.17719,0,0,1-.03787-.05664.17368.17368,0,0,1,.03787-.18945l.56613-.56641-.33809-1.26318-1.263-.33838-.5666.56641a.17422.17422,0,0,1-.29716-.12256,2.02963,2.02963,0,0,1,2.70522-1.92261l1.34825-1.34839-1.77965-1.77954-1.26048-.81128-.56223-.99243.59467-.59448.992.56226.81149,1.26025,1.77942,1.77954,1.2067-1.20679a2.03,2.03,0,0,1,1.92274-2.70532.17415.17415,0,0,1,.12233.29736l-.56636.56641.33846,1.26318,1.26308.33838.5666-.56641a.174.174,0,0,1,.297.12231,2.02964,2.02964,0,0,1-2.70523,1.92285l-1.2067,1.20679.53569.53589.60211-.60205a.25956.25956,0,0,1,.367,0l.58711.58716a.25951.25951,0,0,1,0,.36694l-.09154.09155,2.4221,2.42212a.25862.25862,0,0,1,.00134.36572l-.00093.001Z" transform="translate(-184.0891 -2144.41491)"/><path class="cls-1" d="M217.87291,2179.18164l-4.83394-1.92725-2.34614-1.97654a1.56192,1.56192,0,0,0-2.10759.08689l-3.2605,3.2417-3.26931-3.24278a1.56289,1.56289,0,0,0-2.10764-.08559l-2.34506,1.97583-10.01471,3.99365c-3.22475,1.28418-3.22215,12.70435-3.49892,13.75244h30.811a9.62085,9.62085,0,0,1,2.97276-15.81836Z" transform="translate(-184.0891 -2144.41491)"/><path class="cls-1" d="M194.07385,2165l.84705-.005c1.264,6.66326,5.74928,10.45438,10.43074,10.45438s7.40123-2.24547,9.20487-6.38344a11.04015,11.04015,0,0,1-6.178,2.29281,1.4285,1.4285,0,0,1-1.19066.6413h-1.364a5.307,5.307,0,0,1-1.28471-1.45581,1.36745,1.36745,0,0,1,.85612-1.73389c.14066-.04761.43663.1897.43663.1897h1.46435a1.2641,1.2641,0,0,1,1.03065.55276,8.0963,8.0963,0,0,0,6.7666-4.55252l1.84792-.00079A2.05941,2.05941,0,0,0,219,2162.94v-5.348a2.3224,2.3224,0,0,0-.95816-1.9096,12.61392,12.61392,0,0,0-25.08369-.00026,2.32256,2.32256,0,0,0-.95816,1.9096v5.14039A2.17762,2.17762,0,0,0,194.07382,2165ZM205.3232,2148.519c5.126,0,9.38925,3.38037,10.17516,7.79077a2.07435,2.07435,0,0,0-.65944.40454c-1.22757-3.87573-4.77425-6.17969-9.51572-6.17969s-8.29015,2.30249-9.51936,6.17651a2.07792,2.07792,0,0,0-.65578-.40112C195.93407,2151.89941,200.19717,2148.519,205.3232,2148.519Z" transform="translate(-184.0891 -2144.41491)"/></svg>