<svg id="Layer_1" data-name="Layer 1" xmlns="http://www.w3.org/2000/svg" viewBox="0 0 111.72499 76.64509"><defs><style>.cls-1,.cls-4{fill:none;}.cls-1,.cls-2,.cls-3{stroke:#404b69;}.cls-1,.cls-2,.cls-3,.cls-4{stroke-miterlimit:10;stroke-width:4px;}.cls-2{fill:#dbedf3;}.cls-3,.cls-6{fill:#283149;}.cls-4{stroke:#f73859;}.cls-5{fill:#4c94fc;}</style></defs><title>backend icon</title><line class="cls-1" x1="32.08158" y1="72.33148" x2="74.38971" y2="72.33148"/><polygon class="cls-2" points="63.813 71.828 63.813 62.258 42.659 62.258 42.528 71.828 63.813 71.828"/><rect class="cls-3" x="14.95686" y="11.38763" width="76.55757" height="50.87049" rx="1" ry="1"/><rect class="cls-2" x="14.95686" y="52.18475" width="76.55757" height="9.5697"/><line class="cls-4" x1="16.72499" y1="15.16514" x2="89.72499" y2="15.16514"/><path class="cls-5" d="M530.38593,965.62846h38.27878a1.5009,1.5009,0,0,0,0-3H530.38593a1.5009,1.5009,0,0,0,0,3Z" transform="translate(-494.27501 -942.9193)"/><path class="cls-5" d="M530.38593,970.16147H569a1.5009,1.5009,0,0,0,0-3H530.38593a1.5009,1.5009,0,0,0,0,3Z" transform="translate(-494.27501 -942.9193)"/><path class="cls-5" d="M530.38593,974.70182h38.27878a1.5009,1.5009,0,0,0,0-3H530.38593a1.5009,1.5009,0,0,0,0,3Z" transform="translate(-494.27501 -942.9193)"/><path class="cls-5" d="M530.38593,979.24217h38.27878a1.5009,1.5009,0,0,0,0-3H530.38593a1.5009,1.5009,0,0,0,0,3Z" transform="translate(-494.27501 -942.9193)"/><path class="cls-5" d="M530.38593,984.27885h38.27878a1.5009,1.5009,0,0,0,0-3H530.38593a1.5009,1.5009,0,0,0,0,3Z" transform="translate(-494.27501 -942.9193)"/><path class="cls-6" d="M603.98429,1012.89966a4.08631,4.08631,0,0,0-4.00567-3.6929,4.01823,4.01823,0,0,0-3.26376,1.71348,2.57513,2.57513,0,0,0-.44474-.03827,2.69847,2.69847,0,0,0-2.55157,1.92048,3.238,3.238,0,0,0-1.56944,2.77119,3.16891,3.16891,0,0,0,3.12678,3.20282h5.42651c.03022,0,.05942-.002.08614-.004.03123.002.06247.004.09468.004H603.054a3.0257,3.0257,0,0,0,.93027-5.8768Zm-1.06912,4.86946h-2.192l-.08561.50367H595.1365a2.82937,2.82937,0,0,1-2.10058-2.89225,2.31078,2.31078,0,0,1,1.30909-1.74l.10851-.05338.05137-.23924a1.69,1.69,0,0,1,1.62635-1.35538,1.61735,1.61735,0,0,1,.51375.08461l.39134.13145.20551-.35811a2.98112,2.98112,0,0,1,2.59793-1.53317,3.167,3.167,0,0,1,3.07439,3.084v.40948l.35457.07807a1.99315,1.99315,0,0,1,1.58454,1.97388,1.82906,1.82906,0,0,1-1.9381,1.90639Z" transform="translate(-494.27501 -942.9193)"/><path class="cls-6" d="M592.43734,1011.9303a4.17708,4.17708,0,0,1,3.46121-2.26651,5.42529,5.42529,0,0,1,7.32413-.48637l.19515-.08983v-4.73448a10.31722,10.31722,0,0,1-2.53094,1.19218,29.62974,29.62974,0,0,1-8.74822,1.36142q-.65728.0204-1.31257.02064c-.4377,0-.87739-.00706-1.3166-.02115a29.55982,29.55982,0,0,1-8.76535-1.36847,10.27142,10.27142,0,0,1-2.50973-1.18462v4.73448c1.43344,1.4964,6.24245,2.87645,12.5917,2.87645C591.37663,1011.964,591.911,1011.94995,592.43734,1011.9303Z" transform="translate(-494.27501 -942.9193)"/><path class="cls-6" d="M589.63495,1005.34282c.16419.00453.32789.00907.4946.01159q.3445.006.69657.006c.23471,0,.46641-.002.69657-.00553.16622-.00252.33041-.00756.4946-.01159.05844-.00151.11786-.00252.17578-.004,5.66777-.18082,9.89608-1.4682,11.22475-2.85479v-4.735c-2.45185,1.68376-7.6336,2.57424-12.5917,2.57424s-10.14035-.89049-12.5917-2.57424v4.73448c1.32868,1.3871,5.557,2.67448,11.22475,2.85479C589.51708,1005.3403,589.57651,1005.34131,589.63495,1005.34282Z" transform="translate(-494.27501 -942.9193)"/><path class="cls-6" d="M603.41782,995.94488v-1.16146a.464.464,0,0,0-.068-.23068c-.56561-2.16627-4.91076-4.30233-12.5237-4.30233-7.59431,0-11.93544,2.12548-12.51817,4.28622a.48851.48851,0,0,0-.07353.24679v1.16146c1.4284,1.49136,6.20317,2.86789,12.5917,2.86789S601.98893,997.43624,603.41782,995.94488Z" transform="translate(-494.27501 -942.9193)"/><path class="cls-6" d="M590.49872,1015.85942a4.739,4.739,0,0,1,.62909-2.34256c-.10123.00051-.199.00352-.3017.00352-6.21829,0-10.50955-1.1534-12.5917-2.61957v4.13058a.47348.47348,0,0,0,.05893.22715c.59485,2.46545,5.91659,4.30587,12.53277,4.30587.47849,0,.94739-.01208,1.41079-.03123A4.73656,4.73656,0,0,1,590.49872,1015.85942Z" transform="translate(-494.27501 -942.9193)"/><path class="cls-6" d="M512.38445,957.70748a9.78635,9.78635,0,0,0-.10375-1.50476l-1.4788-.31132-.54485-1.60852,1.01182-1.14154a8.00433,8.00433,0,0,0-.8302-1.24535l-1.45286.49294-1.27125-1.11558.31132-1.50476a9.35448,9.35448,0,0,0-1.3491-.67456l-.98586,1.14154-1.66042-.33728-.49294-1.45286a9.78637,9.78637,0,0,0-1.50476.10375l-.31132,1.4788-1.60852.54485-1.14154-1.01182a8.00433,8.00433,0,0,0-1.24535.8302l.49294,1.45286-1.11558,1.27125-1.50476-.31132a9.35527,9.35527,0,0,0-.67456,1.3491l1.14154,1.01182-.33728,1.66042-1.453.46706a9.78635,9.78635,0,0,0,.10375,1.50476l1.50476.31132.54485,1.60852-1.01182,1.14154a8.00434,8.00434,0,0,0,.8302,1.24535l1.45286-.49294,1.27125,1.11558-.33728,1.50476a9.35518,9.35518,0,0,0,1.3491.67454l1.01182-1.14154,1.66042.33728.49294,1.45286a9.78635,9.78635,0,0,0,1.50476-.10375l.31132-1.4788,1.60852-.54485,1.14154,1.01182a8.00433,8.00433,0,0,0,1.24535-.8302l-.49294-1.45286,1.11558-1.27125,1.50476.31132a9.35518,9.35518,0,0,0,.67454-1.3491l-1.14154-1.01182.33728-1.66042,1.4271-.467Zm-9.05459,4.79971A5.03315,5.03315,0,1,1,508.363,957.474a5.03315,5.03315,0,0,1-5.03316,5.03316Z" transform="translate(-494.27501 -942.9193)"/><path class="cls-6" d="M524.3707,950.13177l1.08969-.441a9.00846,9.00846,0,0,0-.15566-1.1675l-1.1675-.15566-.49294-1.21938.72647-.934a6.26558,6.26558,0,0,0-.70051-.934l-1.08969.441-1.03779-.80426.15566-1.1675-.07787-.05191a8.3195,8.3195,0,0,0-1.01182-.41513l-.72647.934-1.2972-.18161-.441-1.11558a8.93569,8.93569,0,0,0-1.1675.1297l-.15566,1.1675-1.24535.51889-.934-.72647a6.26557,6.26557,0,0,0-.934.70051l.441,1.08969-.80426,1.03779-1.1675-.15566a6.88456,6.88456,0,0,0-.467,1.08969l.934.72647-.18161,1.2972-1.08969.441a9.00846,9.00846,0,0,0,.15566,1.1675l1.1675.15566.49294,1.21938-.72647.934a6.26557,6.26557,0,0,0,.70051.934l1.08969-.441,1.03777.80426-.15566,1.1675.07787.05191a8.3195,8.3195,0,0,0,1.01182.41513l.72647-.934,1.2972.18161.441,1.08969a6.01107,6.01107,0,0,0,1.1675-.15566l.15566-1.1675,1.21938-.49294.934.72647a6.26558,6.26558,0,0,0,.934-.70051l-.441-1.08969.80426-1.03777,1.1675.15566a6.88456,6.88456,0,0,0,.467-1.08969l-.934-.72647ZM518.42945,954a4.00825,4.00825,0,1,1,.02625,0Q518.44259,954,518.42945,954Z" transform="translate(-494.27501 -942.9193)"/></svg>