<svg id="Layer_1" data-name="Layer 1" xmlns="http://www.w3.org/2000/svg" xmlns:xlink="http://www.w3.org/1999/xlink" viewBox="0 0 448.28662 171"><defs><style>.cls-1{fill:#f9f9f9;}.cls-2{fill:url(#linear-gradient);}.cls-3{fill:none;}.cls-4{fill:url(#linear-gradient-2);}.cls-5{fill:#fff;}.cls-6{fill:url(#linear-gradient-3);}</style><linearGradient id="linear-gradient" x1="-410.55978" y1="5405.54004" x2="147.47685" y2="5405.54004" gradientTransform="matrix(1, 0, 0, -1, 214.34, 9179.04004)" gradientUnits="userSpaceOnUse"><stop offset="0.24865" stop-color="#93278f"/><stop offset="1" stop-color="#d4145a"/></linearGradient><linearGradient id="linear-gradient-2" x1="50.66" y1="5447.04004" x2="113.66" y2="5447.04004" gradientTransform="matrix(1, 0, 0, -1, 214.34, 9179.04004)" gradientUnits="userSpaceOnUse"><stop offset="0" stop-color="#d4145a"/><stop offset="1" stop-color="#d4145a"/></linearGradient><linearGradient id="linear-gradient-3" x1="108.66" y1="5360.54004" x2="175.66" y2="5360.54004" xlink:href="#linear-gradient-2"/></defs><title>bottom most gradient vector</title><path class="cls-1" d="M251.54973,3671H1v171H449.28662C435.31876,3745.301,352.11732,3671,251.54973,3671Z" transform="translate(-1 -3671)"/><path class="cls-2" d="M201.73278,3705H1v137H360.15355A160.11208,160.11208,0,0,0,201.73278,3705Z" transform="translate(-1 -3671)"/><line class="cls-3" x1="264" y1="61" x2="327" y2="61"/><path class="cls-4" d="M265,3735h63c3.86072,0,3.8671-6,0-6H265C261.13928,3729,261.1329,3735,265,3735Z" transform="translate(-1 -3671)"/><path class="cls-5" d="M328,3834h70c3.86072,0,3.8671-6,0-6H328C324.13928,3828,324.1329,3834,328,3834Z" transform="translate(-1 -3671)"/><path class="cls-6" d="M323,3823h67c5.79108,0,5.80066-9,0-9H323C317.20892,3814,317.19934,3823,323,3823Z" transform="translate(-1 -3671)"/></svg>