<svg id="Layer_1" data-name="Layer 1" xmlns="http://www.w3.org/2000/svg" viewBox="0 0 56.10934 56"><defs><style>.cls-1{fill:#283149;}</style></defs><title>code quality icon</title><path class="cls-1" d="M125.23066,1918H70.87846a.88553.88553,0,0,0-.87846.89244v54.215a.88564.88564,0,0,0,.87857.89255h54.3522a.88565.88565,0,0,0,.87857-.89255v-54.21581A.88526.88526,0,0,0,125.23066,1918Zm-.87462,54.33H71.75342v-41.08151h52.60251V1972.33Zm0-42.86282H71.75342v-9.68588h52.60251v9.68588Z" transform="translate(-70 -1918)"/><path class="cls-1" d="M116.74375,1921.78529H106.48632a.89967.89967,0,0,0-.89648.76.88646.88646,0,0,0,.86754,1.02136h10.25738a.89972.89972,0,0,0,.89653-.76A.88651.88651,0,0,0,116.74375,1921.78529Z" transform="translate(-70 -1918)"/><path class="cls-1" d="M121.43826,1921.78529H119.597a.89967.89967,0,0,0-.89648.76.88646.88646,0,0,0,.86754,1.02136h1.84153a.89941.89941,0,0,0,.89625-.76A.88662.88662,0,0,0,121.43826,1921.78529Z" transform="translate(-70 -1918)"/><path class="cls-1" d="M98.9496,1920.856a3.749,3.749,0,1,0,3.68985,3.74855A3.72379,3.72379,0,0,0,98.9496,1920.856Zm0,5.71211a1.96381,1.96381,0,1,1,1.93281-1.96356A1.95059,1.95059,0,0,1,98.9496,1926.56811Z" transform="translate(-70 -1918)"/><path class="cls-1" d="M88.64148,1920.856a3.749,3.749,0,1,0,3.68985,3.74855A3.72379,3.72379,0,0,0,88.64148,1920.856Zm0,5.71211a1.96381,1.96381,0,1,1,1.93281-1.96356A1.95059,1.95059,0,0,1,88.64148,1926.56811Z" transform="translate(-70 -1918)"/><path class="cls-1" d="M78.33325,1920.856a3.749,3.749,0,1,0,3.68985,3.74855A3.72379,3.72379,0,0,0,78.33325,1920.856Zm0,5.71211a1.96381,1.96381,0,1,1,1.93281-1.96356A1.95059,1.95059,0,0,1,78.33325,1926.56811Z" transform="translate(-70 -1918)"/><path class="cls-1" d="M88.46483,1943.3788a2.68944,2.68944,0,0,0-1.05464-2.21748,2.52727,2.52727,0,0,0-.98221-.46445,2.6062,2.6062,0,0,0-2.41047.66571l-8.90254,8.56811a2.7065,2.7065,0,0,0,.05523,3.93915l8.90265,8.09228a2.60806,2.60806,0,0,0,1.75649.682h.00033a2.54494,2.54494,0,0,0,1.41489-.41319,2.70989,2.70989,0,0,0,.34313-4.25986l-6.76918-6.153,6.82452-6.568A2.68,2.68,0,0,0,88.46483,1943.3788Zm-2.03057.55666-7.51712,7.23469a.90237.90237,0,0,0,.01841,1.31316l7.4803,6.79938a.90362.90362,0,0,1,.069,1.26028.86886.86886,0,0,1-1.24065.07l-8.90254-8.09217a.902.902,0,0,1-.01852-1.31294l8.90254-8.56811a.86516.86516,0,0,1,.60361-.24471l.02433.00034a.86688.86688,0,0,1,.614.27833.90272.90272,0,0,1-.03342,1.26173Z" transform="translate(-70 -1918)"/><path class="cls-1" d="M120.91016,1949.93069l-8.90254-8.56811a2.60976,2.60976,0,0,0-3.72612.10231,2.711,2.711,0,0,0,.10071,3.78518l6.82452,6.568-6.76918,6.153a2.71087,2.71087,0,0,0-.20679,3.78095,2.62169,2.62169,0,0,0,1.96459.8921h.00033a2.60761,2.60761,0,0,0,1.75659-.68213l8.90254-8.09217a2.70687,2.70687,0,0,0,.05535-3.93915Zm-1.23165,2.56988-9.01134,8.19107a.6556.6556,0,0,1-.44105.17119h-.11068a.76615.76615,0,0,1-.3565-.08442.9093.9093,0,0,1-.2062-1.48132l7.51852-6.83423a.907.907,0,0,0,.01851-1.31989l-7.61616-7.33a.85674.85674,0,0,1-.22675-.69185.91823.91823,0,0,1,.89474-.79774.87215.87215,0,0,1,.607.2454l8.94816,8.612a.90618.90618,0,0,1,.2756.66392v.00023h.00011A.904.904,0,0,1,119.67851,1952.50057Z" transform="translate(-70 -1918)"/><path class="cls-1" d="M104.77445,1943.54368a2.65439,2.65439,0,0,0-1.2298-1.62433l-.00011-.00011a2.61661,2.61661,0,0,0-3.59911.98451L91.0429,1958.612a2.704,2.704,0,0,0,.96909,3.65648,2.60586,2.60586,0,0,0,1.3132.35738,2.63681,2.63681,0,0,0,2.28569-1.34189l8.90254-15.70817A2.69761,2.69761,0,0,0,104.77445,1943.54368Zm-1.78366,1.14126-8.90243,15.70828a.88005.88005,0,0,1-.76306.44745.85487.85487,0,0,1-.43671-.11924.90142.90142,0,0,1-.32307-1.21886l8.90265-15.70828a.87642.87642,0,0,1,.76285-.44689.8626.8626,0,0,1,.43693.1189.88417.88417,0,0,1,.40986.5413A.89863.89863,0,0,1,102.99079,1944.68495Z" transform="translate(-70 -1918)"/></svg>