<svg id="Layer_1" data-name="Layer 1" xmlns="http://www.w3.org/2000/svg" xmlns:xlink="http://www.w3.org/1999/xlink" viewBox="0 0 623.92458 514"><defs><style>.cls-1{fill:#f9f9f9;}.cls-2{fill:url(#linear-gradient);}.cls-3{fill:url(#linear-gradient-2);}.cls-4{fill:#fff;}.cls-5{fill:url(#linear-gradient-3);}.cls-6{fill:url(#linear-gradient-4);}.cls-7{fill:url(#linear-gradient-5);}.cls-8{opacity:0.7;}.cls-9{fill:url(#linear-gradient-6);}.cls-10{fill:#bdbdbd;}.cls-11,.cls-23{opacity:0.1;}.cls-12{fill:#535461;}.cls-13{opacity:0.5;}.cls-14{fill:url(#linear-gradient-7);}.cls-15{fill:#283149;}.cls-16{fill:#e0e0e0;}.cls-17,.cls-18,.cls-20,.cls-22{fill:none;stroke-miterlimit:10;}.cls-17{stroke:#283149;stroke-width:2px;}.cls-18{stroke:#fff;}.cls-19{fill:url(#linear-gradient-8);}.cls-20,.cls-22{stroke:#535461;}.cls-20{stroke-width:3px;opacity:0.6;}.cls-20,.cls-22,.cls-23{isolation:isolate;}.cls-21{fill:#4db6ac;}.cls-22{opacity:0.3;}.cls-24{fill:url(#linear-gradient-9);}.cls-25{fill:#3ad29f;}.cls-26{fill:#4d8af0;}.cls-27{fill:#f55f44;}</style><linearGradient id="linear-gradient" x1="-182.65026" y1="7665.13111" x2="175.83183" y2="7389.14491" gradientTransform="matrix(1, 0, 0, -1, 214.34, 9179.04004)" gradientUnits="userSpaceOnUse"><stop offset="0" stop-color="#93278f"/><stop offset="1" stop-color="#d4145a"/></linearGradient><linearGradient id="linear-gradient-2" x1="-40.12355" y1="-7171.10134" x2="17.99436" y2="-7249.05875" gradientTransform="translate(428.67999 8758.08008)" xlink:href="#linear-gradient"/><linearGradient id="linear-gradient-3" x1="25.46216" y1="-7204.25501" x2="58.7492" y2="-7248.90521" gradientTransform="translate(428.67999 8758.08008)" xlink:href="#linear-gradient"/><linearGradient id="linear-gradient-4" x1="-37.43215" y1="-6917.19415" x2="15.32899" y2="-6987.96585" gradientTransform="translate(428.67999 8758.08008)" gradientUnits="userSpaceOnUse"><stop offset="0" stop-color="#d4145a"/><stop offset="1" stop-color="#93278f"/></linearGradient><linearGradient id="linear-gradient-5" x1="-10.52704" y1="-6950.67923" x2="20.63673" y2="-6992.48094" xlink:href="#linear-gradient-4"/><linearGradient id="linear-gradient-6" x1="-99.90001" y1="-6831.08008" x2="-99.90001" y2="-7006.08008" gradientTransform="translate(314.39999 8559.08008)" gradientUnits="userSpaceOnUse"><stop offset="0" stop-color="gray" stop-opacity="0.25"/><stop offset="0.54" stop-color="gray" stop-opacity="0.12"/><stop offset="1" stop-color="gray" stop-opacity="0.1"/></linearGradient><linearGradient id="linear-gradient-7" x1="-214.17999" y1="-7108.08008" x2="-214.17999" y2="-7178.08008" gradientTransform="translate(428.67999 7379.08008)" xlink:href="#linear-gradient-6"/><linearGradient id="linear-gradient-8" x1="-274.71017" y1="-6888.14113" x2="-210.69578" y2="-6888.14113" xlink:href="#linear-gradient-6"/><linearGradient id="linear-gradient-9" x1="24.60001" y1="-6868.07975" x2="61.60001" y2="-6868.07975" xlink:href="#linear-gradient-6"/></defs><title>computer vector</title><path class="cls-1" d="M623.92458,1636c0,141.93317-109.32543,257-244.17668,257H1V1379H379.7479c126.21683,0,230.0619,100.80039,242.84924,230.08224Q623.91246,1622.34867,623.92458,1636Z" transform="translate(0 -1379)"/><path class="cls-2" d="M511.5,1635.5c0,110.73-89.77,200.5-200.5,200.5H0V1435H311c103.64,0,188.91,78.64,199.41,179.5A202.34011,202.34011,0,0,1,511.5,1635.5Z" transform="translate(0 -1379)"/><path class="cls-3" d="M338.06037,1552H497.17049c5.14758,0,5.15611-8,0-8H338.06037C332.91277,1544,332.90424,1552,338.06037,1552Z" transform="translate(0 -1379)"/><path class="cls-4" d="M399.72,1518H558.83007c5.14758,0,5.15614-8,0-8H399.72C394.57235,1510,394.56385,1518,399.72,1518Z" transform="translate(0 -1379)"/><path class="cls-5" d="M425.21118,1534h91.14893a2.50155,2.50155,0,1,0,0-5H425.21118A2.50155,2.50155,0,1,0,425.21118,1534Z" transform="translate(0 -1379)"/><path class="cls-6" d="M345.26675,1809H489.99017c4.68216,0,4.68988-7,0-7H345.26675C340.58463,1802,340.57687,1809,345.26675,1809Z" transform="translate(0 -1379)"/><path class="cls-4" d="M369.054,1774H513.7774c4.68213,0,4.68988-7,0-7H369.054C364.37186,1767,364.36411,1774,369.054,1774Z" transform="translate(0 -1379)"/><path class="cls-7" d="M391.23493,1789h84.99981c3.21726,0,3.2226-5,0-5H391.23493C388.01767,1784,388.01232,1789,391.23493,1789Z" transform="translate(0 -1379)"/><g class="cls-8"><path class="cls-9" d="M309.00716,1553H120.07976A6.09865,6.09865,0,0,0,114,1559.114v129.772a6.09865,6.09865,0,0,0,6.07976,6.114H185v23h-3.14172A2.85828,2.85828,0,0,0,179,1720.85828h0V1725h6v3h59v-3h6v-3.94843A3.05157,3.05157,0,0,0,246.94843,1718H244v1h1v-24h64.00716A6.05612,6.05612,0,0,0,315,1688.886V1559.114A6.05622,6.05622,0,0,0,309.00716,1553Z" transform="translate(0 -1379)"/></g><rect class="cls-10" x="186" y="313" width="58" height="34"/><g class="cls-11"><path d="M185.82792,1695h57.75714c.69615-3.0269,1.25385-5,1.25385-5h-60.384S185.07408,1691.96544,185.82792,1695Z" transform="translate(0 -1379)"/></g><path class="cls-12" d="M121.02241,1554H307.98117A6.01883,6.01883,0,0,1,314,1560.01883V1675H115V1560.05992a6.06479,6.06479,0,0,1,6.02237-6.0598Z" transform="translate(0 -1379)"/><path class="cls-10" d="M307.9812,1694H121.01885A6.01885,6.01885,0,0,1,115,1687.98115V1675H314v12.9812A6.0188,6.0188,0,0,1,307.9812,1694Z" transform="translate(0 -1379)"/><circle class="cls-12" cx="214.64688" cy="305.62659" r="3.36459"/><path class="cls-10" d="M183.042,1716h63.916a2.955,2.955,0,0,1,3.042,2.8595h0V1723H180v-3.95786a3.042,3.042,0,0,1,3.042-3.042h0Z" transform="translate(0 -1379)"/><g class="cls-13"><path class="cls-14" d="M154.6823,201H274.31775A1.68225,1.68225,0,0,1,276,202.68225v66.63547A1.68228,1.68228,0,0,1,274.31772,271H154.68225A1.68225,1.68225,0,0,1,153,269.31775V202.6823A1.6823,1.6823,0,0,1,154.6823,201Z"/></g><path class="cls-4" d="M156.68225,201H273.31772A1.68228,1.68228,0,0,1,275,202.68228v65.63547A1.68225,1.68225,0,0,1,273.31775,270H156.6823A1.6823,1.6823,0,0,1,155,268.3177V202.68225A1.68225,1.68225,0,0,1,156.68225,201Z"/><g class="cls-13"><path class="cls-15" d="M189.6823,211h9.63541A1.6823,1.6823,0,0,1,201,212.6823v8.63545A1.68225,1.68225,0,0,1,199.31775,223H189.6823A1.6823,1.6823,0,0,1,188,221.3177V212.6823A1.6823,1.6823,0,0,1,189.6823,211Z"/></g><path class="cls-16" d="M205.91394,1590h34.44949a.67849.67849,0,0,1,.66171.67273h0c-.04257.38159-.29965.7052-.66171.32727H205.91394c-.36206.37793-.61913.05432-.6617-.32727h0A.67847.67847,0,0,1,205.91394,1590Z" transform="translate(0 -1379)"/><path class="cls-16" d="M205.91394,1594h28.412c.35645-.0791.60429.25867.66171.65039h0a.571.571,0,0,1-.54021.60022c-.04062.00208-.08136-.00012-.12151-.25061h-28.412c-.31128.29456-.60458.08313-.65511-.22815a.57079.57079,0,0,1-.00659-.12146h0C205.30965,1594.25867,205.55751,1593.9209,205.91394,1594Z" transform="translate(0 -1379)"/><g class="cls-13"><path class="cls-15" d="M189.6823,230h9.63541A1.6823,1.6823,0,0,1,201,231.6823v8.63545A1.68225,1.68225,0,0,1,199.31775,242h-9.6355A1.68225,1.68225,0,0,1,188,240.31775V231.6823A1.6823,1.6823,0,0,1,189.6823,230Z"/></g><path class="cls-16" d="M205.91394,1609h34.44949c.35713-.50391.60587-.16773.66171.22278h0a.57991.57991,0,0,1-.55229.60632c-.03656.00171-.0732,0-.10942.1709H205.91394a.96029.96029,0,0,1-.65645-.66785.57872.57872,0,0,1-.00525-.10937h0C205.30809,1608.83228,205.55682,1608.49609,205.91394,1609Z" transform="translate(0 -1379)"/><path class="cls-16" d="M205.91394,1613h34.44949c.366-.4856.63725-.17578.66171.19678h0a.93172.93172,0,0,1-.66171.80322H205.91394a.93168.93168,0,0,1-.6617-.80322h0C205.27669,1612.82422,205.54791,1612.5144,205.91394,1613Z" transform="translate(0 -1379)"/><g class="cls-13"><path class="cls-15" d="M189.6823,248h9.63541A1.6823,1.6823,0,0,1,201,249.6823v8.63545A1.68225,1.68225,0,0,1,199.31775,260H189.6823A1.6823,1.6823,0,0,1,188,258.3177V249.6823A1.6823,1.6823,0,0,1,189.6823,248Z"/></g><path class="cls-16" d="M205.91394,1627h34.44949a.86218.86218,0,0,1,.66171.77283h0c-.0213.37134-.29536.67908-.66171.22717H205.91394c-.36635.4519-.64041.14416-.6617-.22717h0A.86217.86217,0,0,1,205.91394,1627Z" transform="translate(0 -1379)"/><path class="cls-16" d="M205.84665,1631H240.67a.76379.76379,0,0,1,.55806.53955c.00725.04639.00781.09338-.22806.13989v.13452c.26442.32825-.00172.59436-.33.186H205.84665c-.32829.40833-.59441.14221-.84665-.186v-.13452c.27394-.23047.40646-.47156.6369-.53845A.27187.27187,0,0,0,205.84665,1631Z" transform="translate(0 -1379)"/><line class="cls-17" x1="215" y1="190" x2="215" y2="181"/><line class="cls-17" x1="215" y1="204" x2="215" y2="193"/><circle class="cls-15" cx="214.64688" cy="203.56787" r="1.49537"/><circle class="cls-18" cx="214.64688" cy="191.23108" r="1.49537"/><line class="cls-17" x1="215" y1="190" x2="215" y2="181"/><line class="cls-17" x1="215" y1="204" x2="215" y2="193"/><circle class="cls-15" cx="214.64688" cy="203.56787" r="1.49537"/><circle class="cls-18" cx="214.64688" cy="191.23108" r="1.49537"/><line class="cls-17" x1="215" y1="278" x2="215" y2="290"/><line class="cls-17" x1="215" y1="268" x2="215" y2="279"/><circle class="cls-15" cx="214.64688" cy="267.86865" r="1.49537"/><line class="cls-17" x1="147" y1="237" x2="135" y2="237"/><line class="cls-17" x1="157" y1="237" x2="147" y2="237"/><circle class="cls-15" cx="157.63606" cy="237.02673" r="1.49537"/><g class="cls-11"><rect x="186" y="337" width="58" height="1"/></g><g class="cls-8"><path class="cls-19" d="M100.16251,1690H73.19937l.37242-2.83166c7.6197-6.84131,12.5468-25.0675,12.5468-25.0675a2.52614,2.52614,0,0,0-.324.067,18.9317,18.9317,0,0,0-9.87283,4.94568l.94594-8.06665c14.07744-3.03149,19.66-21.65247,19.66-21.65247-8.98275,1.99243-14.58393,5.076-18.06233,8.0033l1.3854-11.85034c9.519,3.26611,19.36579-14.08484,19.36579-14.08484l-.37242-.07825.18621-.11914-.283.10059c-10.52084-2.26794-16.14437,3.74658-17.96922,6.24548l.13779-1.162A20.06273,20.06273,0,0,1,80,1626.639v-.156c-.76772,1.95178-1.51407,3.95715-2.13046,6.00391h0A34.5358,34.5358,0,0,1,76,1637.49646v-.02246a14.30426,14.30426,0,0,0-11.30463-13.43958s1.1776,23.20435,10.06755,19.40613h0c-.82245,3.36462-1.49537,6.60205-2.07856,9.746h0q-.557,3.0694-.972,5.98145l-.05234.05981.05234-.0448-.02243.15332h0q-.37384,2.64294-.63553,5.15149c.172-3.22253-.415-12.53113-11.38347-21.27905,0,0-14.57981,25.623,10.28064,30.655.05607.04858.11215.09717.16449.14209l-.03739-.11584.22431.04858.10094-1.31592a138.09387,138.09387,0,0,0,.086,16.48645h0c.02617.37378.05234.74768.07851.891H43.192c-10.44513,21.816,5.802,33.47168,5.802,32.99988H93.98408C111.3388,1701.59583,100.16251,1690.19983,100.16251,1690Z" transform="translate(0 -1379)"/></g><path class="cls-20" d="M71.46562,1698.45874s-7.103-31.02881,8.59835-71.02991" transform="translate(0 -1379)"/><path class="cls-15" d="M44.12,1689H98.446s10.71738,13.67393-5.913,34H49.66345S34.1417,1708.95657,44.12,1689Z" transform="translate(0 -1379)"/><path class="cls-21" d="M79.27517,1629.485s5.46182-9.71985,18.54627-6.72913c0,0-10.81523,18.41541-20.56128,12.38538Z" transform="translate(0 -1379)"/><path class="cls-21" d="M75.8134,1639.79932a14.111,14.111,0,0,0-11.26384-12.55737s1.12152,21.68286,9.71988,18.13135Z" transform="translate(0 -1379)"/><path class="cls-21" d="M72.26938,1654.48s2.00005-10.41516,22.93517-14.90137c0,0-6.6768,21.54077-23.89968,20.67712Z" transform="translate(0 -1379)"/><path class="cls-21" d="M70.57214,1666.17s2.20193-10.89-10.88252-20.98376c0,0-14.206,24.17627,10.27316,28.72229Z" transform="translate(0 -1379)"/><path class="cls-21" d="M70.02243,1681.13867s-1.5178-15.391,14.93123-18.38184c0,0-6.00763,21.49219-14.95366,25.324Z" transform="translate(0 -1379)"/><path class="cls-22" d="M77.44708,1635.27954s14.206-10.84143,20.18744-12.71057" transform="translate(0 -1379)"/><path class="cls-22" d="M71.2787,1660.14s17.1967-18.31824,23.92585-20.56128" transform="translate(0 -1379)"/><path class="cls-22" d="M64.54955,1627.24194s10.46756,14.20606,9.71988,17.94434" transform="translate(0 -1379)"/><path class="cls-22" d="M59.68962,1645.18628s5.60762,25.42126,10.09372,28.78577" transform="translate(0 -1379)"/><path class="cls-22" d="M70.15717,1688.1781s8.97219-24.67358,14.95366-25.42126" transform="translate(0 -1379)"/><g class="cls-11"><path d="M98.71314,1689H43.80136l-.37384,1h53.432s10.68735,13.64152-5.44,34h1.20673C109.74579,1703.0761,98.71314,1689,98.71314,1689Z" transform="translate(0 -1379)"/></g><rect class="cls-16" x="33" y="345" width="363" height="12"/><rect class="cls-16" x="48" y="357" width="332" height="5"/><rect class="cls-23" x="48" y="357" width="332" height="1"/><line class="cls-17" x1="291" y1="237" x2="293" y2="237"/><line class="cls-17" x1="271" y1="237" x2="288" y2="237"/><circle class="cls-15" cx="271.28384" cy="237.02673" r="1.49536"/><circle class="cls-18" cx="289.60208" cy="237.02673" r="1.49536"/><g class="cls-8"><path class="cls-24" d="M374.50428,1718.843l.03776-.056q.1171-.17926.23038-.37377l.04155-.071q.10957-.18329.20776-.37377l.034-.0636c.07551-.14575.14732-.29162.21155-.44481h0a8.83217,8.83217,0,0,0,.355-.93833l.03776-.12341c.034-.11584.068-.2318.09819-.34765l.03776-.16455q.03772-.15692.068-.31774a1.00519,1.00519,0,0,1,.034-.17944c.01131-.05981.034-.20935.0491-.31774a.81391.81391,0,0,1,.02268-.18322A1.9613,1.9613,0,0,0,376,1714.544V1683h-6v-15h-6v14.99988l-4,1V1662h-6v22h-3v-25h-6v25l-6-1v30.87852A9.28978,9.28978,0,0,0,348.44265,1723h18.12989a9.54841,9.54841,0,0,0,7.64477-3.76077h0Q374.357,1719.04111,374.50428,1718.843Z" transform="translate(0 -1379)"/></g><rect class="cls-12" x="346" y="294" width="6" height="37"/><rect class="cls-25" x="346" y="282" width="6" height="12"/><rect class="cls-12" x="354" y="297" width="6" height="37"/><rect class="cls-26" x="354" y="285" width="6" height="12"/><rect class="cls-12" x="364" y="304" width="6" height="37"/><rect class="cls-27" x="364" y="291" width="6" height="12"/><path class="cls-15" d="M340,1684h34v30.31522A8.68478,8.68478,0,0,1,365.31522,1723H348.68479A8.79341,8.79341,0,0,1,340,1714.10193h0V1684Z" transform="translate(0 -1379)"/><g class="cls-11"><path d="M340,1685v1h33v29.80786a7.54759,7.54759,0,0,1-1.67355,5.417C373.4523,1719.56152,374,1714.3125,374,1714.3125V1685Z" transform="translate(0 -1379)"/></g></svg>