<svg id="Layer_1" data-name="Layer 1" xmlns="http://www.w3.org/2000/svg" viewBox="0 0 46.09906 46.09929"><defs><style>.cls-1{fill:#283149;}</style></defs><title>lifetime support icon</title><path class="cls-1" d="M635.76954,2166.0436A2.2741,2.2741,0,0,0,633.84319,2165h-6.214a7.63632,7.63632,0,0,0,2.01029-4.01225,2.78938,2.78938,0,0,0-.67166-2.15727A2.42431,2.42431,0,0,0,627.159,2158h-.10832a2.52175,2.52175,0,0,0-2.52845,2.5083,3.22034,3.22034,0,0,1-.91736,1.25767,7.18383,7.18383,0,0,1-2.73865,1.6019,3.355,3.355,0,0,0-1.40946.9221,9.11491,9.11491,0,0,1-.95075.87594,1.41543,1.41543,0,0,0-.665-.16567h-4.4091A1.43174,1.43174,0,0,0,612,2166.432v12.97131s1.10248,1.4917,1.92633,1.59668h4.61957c.55176-.11133,1.30457-1,1.30457-1h11.96211a1.9489,1.9489,0,0,0,1.65787-.90542,2.46158,2.46158,0,0,0,.10888-2.6152,10.45816,10.45816,0,0,1,1.91378-5.17128,2.32159,2.32159,0,0,0-.40622-1.31467,2.81066,2.81066,0,0,0,.71014-3.91092ZM633.58466,2169h-.39831a.68483.68483,0,0,0-.64622.43807.70652.70652,0,0,0,.67505.96778.72339.72339,0,0,1,.659.36175A.80665.80665,0,0,1,633.19472,2172H632.415a6.69352,6.69352,0,0,0-.65942.96851.721.721,0,0,0,.68884.98755.73817.73817,0,0,1,.67242.36914.82318.82318,0,0,1-.265,1.13355,3.0308,3.0308,0,0,0-.42828.54126h-.7702s-.7218-.05884-.7218.33984a.72181.72181,0,0,0,.7218.72192h0a.819.819,0,0,1,.81805.81812.74393.74393,0,0,1-.71936.76758c-.033.001-.06592,0-.09869.35254H620v-7.2793a.64858.64858,0,0,0-.66907-.72192c-.39868,0-1.33093.72192-1.33093.72192v7.68579s.53564.0481.50909-.40649h-4.58582c-.02655.45459-.0481.43311.07672.40649h0v-12.3291c-.12482-.02661-.07678-.07739-.07678-.07739h4.6955c.01575.0293.0285.042.38129.05786h0v1.74243c-.35321.13086-.29559.25537-.1955.3396a.74408.74408,0,0,0,1.05182.02686.46711.46711,0,0,0,.14368-.533v-1.55591c.08783-.0354.085-.07007.08252-.10474a10.98768,10.98768,0,0,0,1.25372-1.155,2.081,2.081,0,0,1,.86627-.58594,8.88083,8.88083,0,0,0,3.49481-2.10937,3.69445,3.69445,0,0,0,1.31671-2.34082.75663.75663,0,0,1,.03711-.29077,1.22805,1.22805,0,0,1,1.17548-.86206,1.09227,1.09227,0,0,1,.82452.38794,1.52211,1.52211,0,0,1,.34656,1.15283,7.72718,7.72718,0,0,1-2.91589,4.56323.75087.75087,0,0,0,.12317,1.23242.26339.26339,0,0,0,.23242.03418h7.01111a.87133.87133,0,0,1,.55908.28687,1.25894,1.25894,0,0,1-.82294,2.17383Z" transform="translate(-600.90092 -2147.90104)"/><path class="cls-1" d="M616.25128,2176.38013a.72559.72559,0,1,0,.72559.72559h0A.7283.7283,0,0,0,616.25128,2176.38013Z" transform="translate(-600.90092 -2147.90104)"/><path class="cls-1" d="M645.71332,2170.95044l1.24-3.28125a.72154.72154,0,0,0-.11194-.70654l-2.19324-2.73755.16528-3.50391a.72184.72184,0,0,0-.32465-.63721l-2.93176-1.92578-.92541-3.3833a.7219.7219,0,0,0-.50574-.50586l-3.38342-.92529-1.92578-2.93164a.72294.72294,0,0,0-.63727-.32471l-3.50378.16528-2.73749-2.19312a.722.722,0,0,0-.70654-.11182l-3.28125,1.24-3.281-1.24a.72135.72135,0,0,0-.70654.11182l-2.73749,2.19312-3.50378-.16528a.72084.72084,0,0,0-.63727.32471l-1.92572,2.93188-3.38342.92529a.7219.7219,0,0,0-.50574.50586l-.92542,3.3833-2.93176,1.92578a.7217.7217,0,0,0-.32465.63721l.16528,3.50391-2.19324,2.73755a.72184.72184,0,0,0-.11194.70654l1.23993,3.28125-1.24,3.28125a.72154.72154,0,0,0,.11194.70654l2.19324,2.73755-.16528,3.50391a.72184.72184,0,0,0,.32465.63721l2.93176,1.92578.92542,3.3833a.7219.7219,0,0,0,.50574.50586l3.38342.92529,1.92572,2.93188a.7243.7243,0,0,0,.63727.32471l3.50378-.16528,2.73749,2.19312a.72135.72135,0,0,0,.70654.11182l3.28125-1.24,3.28125,1.24a.72232.72232,0,0,0,.70642-.11182l2.73749-2.19312,3.50378.16528a.7224.7224,0,0,0,.63727-.32471l1.92578-2.93188,3.38342-.92529a.7219.7219,0,0,0,.50574-.50586l.92542-3.3833,2.93176-1.92578a.7217.7217,0,0,0,.32465-.63721l-.16528-3.50391,2.19324-2.73755a.72184.72184,0,0,0,.11194-.70654Zm-1.44684.25513,1.19086,3.15112-2.10632,2.62891a.72155.72155,0,0,0-.15778.48535l.15881,3.365-2.81555,1.84937a.72206.72206,0,0,0-.3.41284l-.88873,3.24927-3.24933.88867a.722.722,0,0,0-.4129.3l-1.84949,2.81543-3.365-.15894a.722.722,0,0,0-.48529.15772l-2.629,2.10644-3.15118-1.19092a.72318.72318,0,0,0-.51031,0l-3.15118,1.19092-2.629-2.10644a.72324.72324,0,0,0-.48529-.15772l-3.365.15894-1.84943-2.81543a.72183.72183,0,0,0-.4129-.3l-3.24933-.88867-.88873-3.24927a.72233.72233,0,0,0-.3-.41284l-2.81555-1.84937.15881-3.365a.72155.72155,0,0,0-.15778-.48535l-2.10632-2.62891,1.19092-3.15112a.72168.72168,0,0,0,0-.51025l-1.19092-3.15112,2.10632-2.62891a.72155.72155,0,0,0,.15778-.48535l-.15881-3.365,2.81555-1.84937a.72206.72206,0,0,0,.3-.41284l.88873-3.24927,3.24933-.88867a.722.722,0,0,0,.4129-.3l1.84943-2.81543,3.365.15894a.722.722,0,0,0,.48529-.15771l2.629-2.10644,3.15118,1.19092a.72319.72319,0,0,0,.51031,0l3.15118-1.19092,2.629,2.10644a.72177.72177,0,0,0,.48529.15771l3.365-.15894,1.84949,2.81543a.72183.72183,0,0,0,.4129.3l3.24933.88867.88873,3.24927a.72233.72233,0,0,0,.3.41284l2.81555,1.84937-.15881,3.365a.72155.72155,0,0,0,.15778.48535l2.10632,2.62891-1.19092,3.15112a.658.658,0,0,0,.00012.51025Z" transform="translate(-600.90092 -2147.90104)"/><path class="cls-1" d="M637.51312,2158.48706c-.17963-.19556-.36591-.38989-.554-.57788s-.38251-.37427-.578-.554a.72181.72181,0,0,0-.97626,1.06348h0c.18036.16577.35986.33765.53345.51123s.34558.353.51129.53345a.72181.72181,0,0,0,1.06354-.97607Z" transform="translate(-600.90092 -2147.90104)"/><path class="cls-1" d="M633.81781,2155.38525a18.43267,18.43267,0,0,0-24.00653,27.40649.72183.72183,0,1,0,1.10468-.92944,16.98943,16.98943,0,0,1,22.1261-25.25952.72183.72183,0,0,0,.77576-1.21753Z" transform="translate(-600.90092 -2147.90104)"/><path class="cls-1" d="M639.48285,2161.05029a.72178.72178,0,1,0-1.21747.77564,16.98915,16.98915,0,0,1-25.25952,22.12646.72173.72173,0,1,0-.93884,1.09643l.00946.00806a18.35824,18.35824,0,0,0,11.84583,4.31421q.37665,0,.75531-.01538a18.43413,18.43413,0,0,0,14.80518-28.30542Z" transform="translate(-600.90092 -2147.90104)"/></svg>