<svg id="Layer_1" data-name="Layer 1" xmlns="http://www.w3.org/2000/svg" viewBox="0 0 57.01829 52"><defs><style>.cls-1{fill:#283149;}</style></defs><title>responsive icon</title><path class="cls-1" d="M443.59328,1967h-6.2058a.47405.47405,0,0,1-.38749-.52281v-1.95438a.47405.47405,0,0,0-.38749-.52281h-8.22488a.47427.47427,0,0,0-.38763.52294v1.95412a.47405.47405,0,0,1-.38749.52281h-5.20573a.44734.44734,0,0,0-.40678.47749v2.04525a.44713.44713,0,0,0,.40662.47737h21.18675a.44713.44713,0,0,0,.40662-.47737v-2.04609A.44676.44676,0,0,0,443.59328,1967Z" transform="translate(-399.99278 -1918)"/><path class="cls-1" d="M454.18976,1918h-44.419A3.09134,3.09134,0,0,0,407,1921.33325v8.45385c0,1.06263-.06765,1.2129.54376,1.2129h1.0484c.51306,0,.40783-.15026.40783-1.23265v-8.022a.7011.7011,0,0,1,.64334-.74538h43.69144a.74446.74446,0,0,1,.66522.8004V1954H423.08939S422,1953.99759,422,1955.69563v3.6053C422,1961,423.15537,1961,423.15537,1961h31.03457A3.08494,3.08494,0,0,0,457,1957.6954v-36.39068A3.08515,3.08515,0,0,0,454.18976,1918Zm-22.40207,40.44312a1.528,1.528,0,1,1,1.24832-1.502A1.393,1.393,0,0,1,431.78769,1958.44312Z" transform="translate(-399.99278 -1918)"/><path class="cls-1" d="M418.16731,1934H401.8325A2.02183,2.02183,0,0,0,400,1936.17044v31.65888A2.02217,2.02217,0,0,0,401.83281,1970H418.1675A2.02183,2.02183,0,0,0,420,1967.82956v-31.659A2.022,2.022,0,0,0,418.16731,1934Zm-10.29033,2h3.80649a5.83536,5.83536,0,0,1,.3446.76538.38248.38248,0,0,1-.28213.46143c-.01434.00342-.02884.006-.04349-.22681h-3.80408c-.19992.22144-.35452.05408-.35175-.14624a.372.372,0,0,1,.32437-.41431l.006-.00073Zm1.889,32.464a1.13254,1.13254,0,1,1,.92554-1.1134,1.03256,1.03256,0,0,1-.92554,1.11352ZM418,1965.4809a.47753.47753,0,0,1-.41426.5191H402.41426a.47748.47748,0,0,1-.41426-.5191V1939.519a.47741.47741,0,0,1,.41426-.519h15.17149a.47741.47741,0,0,1,.41426.519Z" transform="translate(-399.99278 -1918)"/></svg>