<svg id="Layer_1" data-name="Layer 1" xmlns="http://www.w3.org/2000/svg" xmlns:xlink="http://www.w3.org/1999/xlink" viewBox="0 0 334.23804 256.36928"><defs><style>.cls-1,.cls-14,.cls-25,.cls-3{fill:#283149;}.cls-1,.cls-15,.cls-22,.cls-4{opacity:0.1;}.cls-1,.cls-14,.cls-22,.cls-25,.cls-4,.cls-5,.cls-7{isolation:isolate;}.cls-2,.cls-6{fill:none;stroke-miterlimit:10;}.cls-2{stroke:#535461;stroke-width:2px;}.cls-4,.cls-7,.cls-9{fill:#fff;}.cls-25,.cls-5{opacity:0.2;}.cls-6{stroke:#283149;}.cls-14,.cls-7{opacity:0.5;}.cls-8{fill:url(#linear-gradient);}.cls-10{fill:#eee;}.cls-11{fill:#ff5252;}.cls-12{fill:#ff0;}.cls-13{fill:#69f0ae;}.cls-16{fill:#f4f4f4;}.cls-17{fill:url(#linear-gradient-2);}.cls-18{fill:#72351c;}.cls-19{fill:#333;}.cls-20{fill:#4d8af0;}.cls-21{fill:#f55f44;}.cls-23{fill:#fdb797;}.cls-24{fill:#f0e4e4;}.cls-26{fill:url(#linear-gradient-3);}.cls-27{fill:#565171;}.cls-28{fill:#8f5a6a;}.cls-29{fill:#b45181;}.cls-30{opacity:0.7;}.cls-31{fill:url(#linear-gradient-4);}.cls-32{fill:#e0e0e0;}.cls-33{fill:#535461;}.cls-34{fill:url(#linear-gradient-5);}.cls-35{fill:#3e3f49;}</style><linearGradient id="linear-gradient" x1="595.61555" y1="7999.42142" x2="595.61555" y2="8108.92527" gradientTransform="matrix(1, 0, 0, -1, -354.64682, 8115.40932)" gradientUnits="userSpaceOnUse"><stop offset="0" stop-color="gray" stop-opacity="0.25"/><stop offset="0.54" stop-color="gray" stop-opacity="0.12"/><stop offset="1" stop-color="gray" stop-opacity="0.1"/></linearGradient><linearGradient id="linear-gradient-2" x1="698.35776" y1="7988.28586" x2="698.35776" y2="8000.51911" gradientTransform="matrix(1, 0, 0, -1, 139.34, 9131.96004)" xlink:href="#linear-gradient"/><linearGradient id="linear-gradient-3" x1="393.47237" y1="7867.57766" x2="393.47237" y2="8013.0661" gradientTransform="translate(1063.18997 9131.96004) rotate(180)" xlink:href="#linear-gradient"/><linearGradient id="linear-gradient-4" x1="495.02481" y1="7859.04004" x2="495.02481" y2="7931.29984" xlink:href="#linear-gradient"/><linearGradient id="linear-gradient-5" x1="503.46043" y1="7926.84329" x2="503.46043" y2="7991.14497" xlink:href="#linear-gradient"/></defs><title>student vector</title><path class="cls-1" d="M588.23125,1195.43069c11.34829,14.42968,6.93949,35.506-.27058,52.39-2.41609,5.65346-5.14414,11.63159-4.13823,17.69252,1.24465,7.41062,7.85945,12.83169,14.8053,15.703a44.066,44.066,0,0,0,39.44684-3.25011c10.0527-6.2551,17.25323-16.42557,27.47783-22.39417,17.11316-9.989,38.893-6.2169,57.4736.66531,13.14682,4.86718,27.51921,11.19868,40.58008,6.11185,9.19-3.58116,15.54382-12.29372,19.0072-21.53152,1.67121-4.45655,2.884-9.28554,6.07684-12.82215a22.81444,22.81444,0,0,1,6.91085-4.85127c23.16453-11.48518,52.41859-5.33513,74.91781-18.07131,15.19365-8.59478,24.92169-24.82936,29.2286-41.75153s3.8199-34.6656,2.71214-52.09073c-.77669-12.386-2.171-25.60607-10.08456-35.16538-8.372-10.11-22.738-13.87261-35.72244-11.94993s-24.75615,8.773-35.11126,16.8394c-12.93992,10.08454-24.944,22.63928-40.83157,26.73931-10.82305,2.78216-22.20318,1.2733-33.36366.73215-18.657-.88176-37.32044,1.07912-55.87561,3.22145-17.76254,2.0532-35.65241,4.31331-52.57458,10.09091-11.97218,4.07454-21.5665,11.49788-32.87341,16.67067-7.36922,3.38061-15.40693,4.3133-22.38781,8.62024-8.59478,5.3033-16.47651,14.52835-14.2737,25.32277C571.45552,1182.62447,582.20854,1187.77179,588.23125,1195.43069Z" transform="translate(-568.98682 -1063.63072)"/><path class="cls-2" d="M629.40024,1258.51s-1.05047-31.11947-17.88669-48.70375a47.17126,47.17126,0,0,1-12.93673-26.89211,79.34555,79.34555,0,0,1-.39472-14.50608" transform="translate(-568.98682 -1063.63072)"/><path class="cls-3" d="M587.60545,1157.27306c1.15234,3.47611,10.78486,11.4597,10.78486,11.4597s2.95088-12.1632,1.79854-15.63613a6.62868,6.62868,0,1,0-12.58339,4.17324Z" transform="translate(-568.98682 -1063.63072)"/><path class="cls-3" d="M583.63145,1179.96645c2.86493,2.29194,15.27961,3.76261,15.27961,3.76261s-4.13823-11.813-7.00315-14.1018a6.62753,6.62753,0,0,0-8.27645,10.33919Z" transform="translate(-568.98682 -1063.63072)"/><path class="cls-3" d="M594.92692,1212.70621c3.62254.53478,15.0918-4.45655,15.0918-4.45655s-9.53066-8.11093-13.1532-8.64571a6.62875,6.62875,0,0,0-1.9386,13.115h0Z" transform="translate(-568.98682 -1063.63072)"/><path class="cls-3" d="M609.15158,1235.64384c3.4793,1.13961,15.62976-1.85265,15.62976-1.85265s-8.025-9.60386-11.50427-10.74347a6.62924,6.62924,0,1,0-4.13823,12.59613Z" transform="translate(-568.98682 -1063.63072)"/><path class="cls-3" d="M612.33483,1180.02057c-1.69031,3.24692-12.46879,9.60705-12.46879,9.60705s-.98044-12.47516.70986-15.72526a6.62769,6.62769,0,0,1,11.75893,6.11821Z" transform="translate(-568.98682 -1063.63072)"/><path class="cls-3" d="M628.66939,1206.93815c-2.5848,2.59435-14.77028,5.4338-14.77028,5.4338s2.79808-12.19822,5.37969-14.79257a6.62778,6.62778,0,0,1,9.39059,9.35557h0Z" transform="translate(-568.98682 -1063.63072)"/><path class="cls-3" d="M640.76445,1235.26591c-2.10731,2.99226-13.64023,7.85307-13.64023,7.85307s.69395-12.49426,2.80444-15.48969a6.62753,6.62753,0,1,1,11.07539,7.28233q-.12023.18285-.25233.35747Z" transform="translate(-568.98682 -1063.63072)"/><path class="cls-3" d="M777.3514,1237.37957s-5.055-1.71259-7.487,2.74077a8.12365,8.12365,0,0,0,.10824,7.82125,11.48166,11.48166,0,0,0,11.14138,6.30283c5.29056-.28329,7.035-4.31966,7.51884-8.07589a8.29555,8.29555,0,0,0-11.01723-8.88128Z" transform="translate(-568.98682 -1063.63072)"/><path class="cls-4" d="M771.04219,1248.34269a8.12365,8.12365,0,0,1-.10824-7.82125c2.432-4.45655,7.487-2.74077,7.487-2.74077l.25784-.09231a8.22231,8.22231,0,0,1,5.93994.13369,8.22553,8.22553,0,0,0-7.00315-.66848l-.25784.09231s-5.055-1.71259-7.487,2.74077a8.12365,8.12365,0,0,0,.10824,7.82125,12.08583,12.08583,0,0,0,5.72985,5.41153A12.52612,12.52612,0,0,1,771.04219,1248.34269Z" transform="translate(-568.98682 -1063.63072)"/><path class="cls-5" d="M774.74113,1239.52191s1.87494,1.47385,6.4238,0" transform="translate(-568.98682 -1063.63072)"/><path class="cls-3" d="M774.34,1228.959s3.21191,8.69983,2.94451,10.97584l2.5466-.2674s-4.28466-7.6398-3.21191-10.70846Z" transform="translate(-568.98682 -1063.63072)"/><path class="cls-5" d="M774.34,1228.959s3.21191,8.69983,2.94451,10.97584l2.5466-.2674s-4.28466-7.6398-3.21191-10.70846Z" transform="translate(-568.98682 -1063.63072)"/><path class="cls-3" d="M787.45185,1229.53924s-5.055-2.5848-7.32148-.44883-2.61027,7.59523-2.61027,7.59523S785.76791,1237.81886,787.45185,1229.53924Z" transform="translate(-568.98682 -1063.63072)"/><path class="cls-4" d="M787.45185,1229.53924s-5.055-2.5848-7.32148-.44883-2.61027,7.59523-2.61027,7.59523S785.76791,1237.81886,787.45185,1229.53924Z" transform="translate(-568.98682 -1063.63072)"/><path class="cls-6" d="M777.52328,1236.68562s1.32741-6.33785,9.92856-7.1464" transform="translate(-568.98682 -1063.63072)"/><path class="cls-2" d="M632.21742,1198.76037s1.03137-16.82667-7.14-27.16587a25.54239,25.54239,0,0,1-5.593-15.15864,42.97386,42.97386,0,0,1,.53478-7.84035" transform="translate(-568.98682 -1063.63072)"/><path class="cls-3" d="M614.91008,1142.05075c.44247,1.93223,5.22372,6.73257,5.22372,6.73257s2.22828-6.4047,1.77307-8.33375a3.59087,3.59087,0,1,0-7.00315,1.59163Z" transform="translate(-568.98682 -1063.63072)"/><path class="cls-3" d="M611.47983,1154.07708c1.42291,1.38153,8.04408,2.814,8.04408,2.814s-1.62027-6.57979-3.04319-7.95813a3.58831,3.58831,0,0,0-5.00089,5.14732Z" transform="translate(-568.98682 -1063.63072)"/><path class="cls-3" d="M616.021,1172.30755c1.91.4743,8.3624-1.633,8.3624-1.633s-4.72076-4.86082-6.64344-5.33513a3.58852,3.58852,0,0,0-1.719,6.96814Z" transform="translate(-568.98682 -1063.63072)"/><path class="cls-3" d="M622.48622,1185.33978c1.81764.79263,8.51838-.19736,8.51838-.19736s-3.8199-5.58979-5.64709-6.3665a3.58752,3.58752,0,1,0-3.00052,6.51752q.06718.03094.1356.05907Z" transform="translate(-568.98682 -1063.63072)"/><path class="cls-3" d="M627.05419,1155.58276c-1.07594,1.66484-7.21325,4.53613-7.21325,4.53613s.11142-6.774,1.19054-8.4388a3.58831,3.58831,0,0,1,6.02271,3.90267Z" transform="translate(-568.98682 -1063.63072)"/><path class="cls-3" d="M634.42341,1170.92285c-1.52478,1.2733-8.24144,2.171-8.24144,2.171s2.13278-6.43017,3.66073-7.6971a3.5889,3.5889,0,1,1,4.5807,5.52612Z" transform="translate(-568.98682 -1063.63072)"/><path class="cls-3" d="M639.5389,1186.81682c-1.28921,1.50568-7.7544,3.53341-7.7544,3.53341s1.01546-6.68483,2.30786-8.20323a3.58945,3.58945,0,1,1,5.44972,4.673Z" transform="translate(-568.98682 -1063.63072)"/><path class="cls-7" d="M614.91008,1142.05075c.44247,1.93223,5.22372,6.73257,5.22372,6.73257s2.22828-6.4047,1.77307-8.33375a3.59087,3.59087,0,1,0-7.00315,1.59163Z" transform="translate(-568.98682 -1063.63072)"/><path class="cls-7" d="M611.47983,1154.07708c1.42291,1.38153,8.04408,2.814,8.04408,2.814s-1.62027-6.57979-3.04319-7.95813a3.58831,3.58831,0,0,0-5.00089,5.14732Z" transform="translate(-568.98682 -1063.63072)"/><path class="cls-7" d="M616.021,1172.30755c1.91.4743,8.3624-1.633,8.3624-1.633s-4.72076-4.86082-6.64344-5.33513a3.58852,3.58852,0,0,0-1.719,6.96814Z" transform="translate(-568.98682 -1063.63072)"/><path class="cls-7" d="M622.48622,1185.33978c1.81764.79263,8.51838-.19736,8.51838-.19736s-3.8199-5.58979-5.64709-6.3665a3.58752,3.58752,0,1,0-3.00052,6.51752q.06718.03094.1356.05907Z" transform="translate(-568.98682 -1063.63072)"/><path class="cls-7" d="M627.05419,1155.58276c-1.07594,1.66484-7.21325,4.53613-7.21325,4.53613s.11142-6.774,1.19054-8.4388a3.58831,3.58831,0,0,1,6.02271,3.90267Z" transform="translate(-568.98682 -1063.63072)"/><path class="cls-7" d="M634.42341,1170.92285c-1.52478,1.2733-8.24144,2.171-8.24144,2.171s2.13278-6.43017,3.66073-7.6971a3.5889,3.5889,0,1,1,4.5807,5.52612Z" transform="translate(-568.98682 -1063.63072)"/><path class="cls-7" d="M639.5389,1186.81682c-1.28921,1.50568-7.7544,3.53341-7.7544,3.53341s1.01546-6.68483,2.30786-8.20323a3.58945,3.58945,0,1,1,5.44972,4.673Z" transform="translate(-568.98682 -1063.63072)"/><polygon class="cls-8" points="160.592 6.484 160.592 12.008 160.592 115.988 321.346 115.988 321.346 12.008 321.346 6.484 160.592 6.484"/><rect class="cls-9" x="163.13824" y="11.57726" width="156.61596" height="102.50069"/><rect class="cls-10" x="163.13824" y="6.48405" width="156.61596" height="7.6398"/><circle class="cls-11" cx="168.94002" cy="10.23479" r="1.83037"/><circle class="cls-12" cx="173.97274" cy="10.23479" r="1.83037"/><circle class="cls-13" cx="179.00227" cy="10.23479" r="1.83037"/><rect class="cls-14" x="169.18642" y="26.22021" width="58.2535" height="2.5466"/><rect class="cls-14" x="169.18642" y="30.99509" width="58.2535" height="2.5466"/><rect class="cls-14" x="169.18642" y="35.76997" width="58.2535" height="2.5466"/><rect class="cls-14" x="189.2409" y="40.86317" width="38.19902" height="2.5466"/><rect class="cls-14" x="168.86809" y="45.63805" width="30.87754" height="2.5466"/><rect class="cls-14" x="185.73932" y="50.41292" width="23.55606" height="2.5466"/><rect class="cls-14" x="235.07972" y="43.40977" width="68.75823" height="39.47232"/><rect class="cls-10" x="243.35617" y="46.91135" width="68.75823" height="39.47232"/><path class="cls-3" d="M850.81578,1150.33271H812.343V1143.094C821.74314,1138.7011,836.20465,1136.23408,850.81578,1150.33271Z" transform="translate(-568.98682 -1063.63072)"/><g class="cls-15"><path d="M880.78289,1149.3077v1.025H832.7158v-.21965S856.36826,1127.13636,880.78289,1149.3077Z" transform="translate(-568.98682 -1063.63072)"/></g><path class="cls-3" d="M881.10122,1149.3077v1.025H833.03412v-.21965S856.68659,1127.13636,881.10122,1149.3077Z" transform="translate(-568.98682 -1063.63072)"/><circle class="cls-3" cx="251.23661" cy="54.06498" r="3.53659"/><path class="cls-16" d="M850.34016,1115.0154c-.40428,0-.8563,0-1.16189.02547a1.41337,1.41337,0,0,0-.40428.08276l-2.08184.74807c1.68077.04138,3.43472.02865,5.15368.0819h9.658c.98363-.15511,2.02136-.171,2.84264-.23151.5507-.0382.955-.09868,1.46112-.14324,1.82718-.16234,4.49475-.13051,6.87583-.12415s5.25555-.05411,6.09275-.13775H873.667a7.4656,7.4656,0,0,0-1.61708-.18376c-.56981-.03183-.91678-.0955-1.41655-.14006-.82764-.07-1.96725-.07958-3.03046-.08276C861.78395,1114.90717,856.03181,1115.04723,850.34016,1115.0154Z" transform="translate(-568.98682 -1063.63072)"/><path class="cls-16" d="M856.0732,1119.13684h-.25147s-.05833.18154-.086.19186l-.452.12647h3.20872a3.52972,3.52972,0,0,0,.61437.004l.31833-.03184c.39472-.035.97407-.02865,1.48976-.02547.44135.01475,1.32106.05326,1.32106.05326h-1.45792a.39962.39962,0,0,0-.31833-.14557c-.17826,0-.42656-.01592-.65575-.0191C858.54977,1119.28414,856.0732,1119.13684,856.0732,1119.13684Z" transform="translate(-568.98682 -1063.63072)"/><path class="cls-16" d="M841.25835,1125.82167h-.25147s-.05833-.315-.086-.30472l-.452-.0136h3.20872a.8376.8376,0,0,0,.61437.14411l.31833-.03183c.39472-.035.97407-.02865,1.48976-.02547a12.56324,12.56324,0,0,0,1.32106-.08681h-1.45792a1.15978,1.15978,0,0,1-.31833-.0055c-.17826,0-.42656-.01592-.65575-.0191A37.31234,37.31234,0,0,0,841.25835,1125.82167Z" transform="translate(-568.98682 -1063.63072)"/><path class="cls-3" d="M832.94023,1148.42276H831.2858s-.52061-18.24354,1.66721-23.87439h.4184S831.899,1145.19373,832.94023,1148.42276Z" transform="translate(-568.98682 -1063.63072)"/><path class="cls-3" d="M831.79455,1123.50831s-1.3497,3.74032-.72579,5.41153c0,0,.93588-3.42836,2.02773-3.94723s2.22828,3.94723,2.22828,3.94723a8.56917,8.56917,0,0,0-.51887-5.0932,9.0341,9.0341,0,0,1,3.42837,3.63527s.20692-1.55979-2.49249-4.77488a10.74912,10.74912,0,0,1,3.94724,2.07866s.51887-1.14279-2.70258-3.01454c0,0,.417-1.3497,2.9095-.72578,0,0,0-1.76671-3.94724-1.45475,0,0,0-1.14279,2.59752-.93588,0,0,0-1.45475-3.01453-.93588a4.8522,4.8522,0,0,1,1.03774-1.14279,2.0882,2.0882,0,0,0-1.45475.417,2.81109,2.81109,0,0,0-1.45475-2.59753l-.20692,2.59753s-1.7476-2.05956-1.3497-1.66166a4.55857,4.55857,0,0,1,.31833,1.97361,3.23625,3.23625,0,0,0-3.94724.105s2.70258.20691,3.1164,1.14279c0,0-2.28557-.417-2.80444-.105,0,0,1.7667.63665,1.66165,1.03774,0,0-3.1164,0-3.5334,1.14279,0,0,3.22145.417,3.42837.72578,0,0-3.74032,2.70258-3.94724,3.42836,0,0,3.84537-2.28557,4.45655-2.28557s-2.80444,3.3265-2.59752,4.15732C828.26432,1126.63108,831.06876,1123.29822,831.79455,1123.50831Z" transform="translate(-568.98682 -1063.63072)"/><path class="cls-3" d="M853.44832,1147.46778h1.27085s.39714-13.865-1.27085-18.14453h-.31771S854.23942,1145.00869,853.44832,1147.46778Z" transform="translate(-568.98682 -1063.63072)"/><path class="cls-3" d="M854.31922,1128.662s1.03137,2.86493.55707,4.13823c0,0-.713-2.61982-1.54706-3.01772s-1.70622,3.01772-1.70622,3.01772a6.61614,6.61614,0,0,1,.39791-3.88993,6.90131,6.90131,0,0,0-2.61981,2.779s-.15916-1.19053,1.91-3.65119a8.04558,8.04558,0,0,0-3.01772,1.59163s-.39791-.87221,2.06274-2.30149c0,0-.31833-1.03138-2.22828-.55707,0,0,0-1.3497,3.01772-1.111,0,0,0-.87221-1.98316-.713,0,0,0-1.111,2.30148-.71305a3.50192,3.50192,0,0,0-.79263-.87221,1.59161,1.59161,0,0,1,1.111.31833,2.1473,2.1473,0,0,1,1.111-1.98316l.15916,1.98316s1.33378-1.57253,1.03137-1.2733a3.48262,3.48262,0,0,0-.23874,1.50886,2.47643,2.47643,0,0,1,3.01772.07958s-2.06274.15916-2.38107.87221a5.98877,5.98877,0,0,1,2.14232-.07958s-1.3497.47749-1.2733.79263c0,0,2.38107,0,2.69939.87221a11.92958,11.92958,0,0,0-2.61981.55707s2.86493,2.06275,3.01772,2.61981a22.54893,22.54893,0,0,0-3.41244-1.74761c-.4743,0,2.14232,2.5466,1.98316,3.18325C857.01863,1131.04306,854.87629,1128.50284,854.31922,1128.662Z" transform="translate(-568.98682 -1063.63072)"/><path class="cls-3" d="M868.64821,1144.92118h.778s.24255-8.50487-.778-11.14138h-.1953S869.13332,1143.41236,868.64821,1144.92118Z" transform="translate(-568.98682 -1063.63072)"/><path class="cls-3" d="M869.1691,1133.14083a5.41162,5.41162,0,0,1,.3438,2.5466s-.44248-1.62346-.955-1.86857-1.05684,1.86857-1.05684,1.86857a4.10631,4.10631,0,0,1,.24512-2.40972,4.27507,4.27507,0,0,0-1.62345,1.72214s-.09868-.73852,1.181-2.26011a4.98818,4.98818,0,0,0-1.86857.98362s-.24512-.54116,1.2733-1.4261c0,0-.19736-.63665-1.37517-.34379,0,0,0-.8372,1.86857-.68758,0,0,0-.54116-1.22873-.44248,0,0,0-.68758,1.42609-.44248a2.16146,2.16146,0,0,0-.49021-.54115.99.99,0,0,1,.68757.19736,1.3306,1.3306,0,0,1,.68757-1.22874l.09868,1.22874s.82764-.97407.63665-.78626a2.1549,2.1549,0,0,0-.14644.93269,1.53115,1.53115,0,0,1,1.86857.04775s-1.2733.09868-1.47385.54116a3.67729,3.67729,0,0,1,1.32741-.04775s-.8372.296-.78625.49022c0,0,1.47385,0,1.67121.54116a7.47316,7.47316,0,0,0-1.62345.34379s1.76991,1.2733,1.86857,1.62346a13.86031,13.86031,0,0,0-2.11368-1.0823c-.296,0,1.32741,1.57253,1.22873,1.96725C870.85622,1134.61467,869.52881,1133.04216,869.1691,1133.14083Z" transform="translate(-568.98682 -1063.63072)"/><path class="cls-17" d="M840.04061,1135.29039h0l-.17334-.86643a.45665.45665,0,0,0-.15666-.33972l-.80331-.36776h0a.84151.84151,0,0,1-.14333-.2244v-.23346a.51885.51885,0,0,1-.01082-.18145.3184.3184,0,0,0,0-.05093h0c.1504.02129.32914-.22919.32914-.22919v-.0191s-.14542.206-.26866.21328a3.99813,3.99813,0,0,0,.587-.63665v-.03184l-.31833-.191v-.0191s.1402.14026.07195.17826c-.00583-.073-.0219-.14479-.04776-.10273h.0191a1.10423,1.10423,0,0,0,.275-.39386h0v-.0191c-.00179.149-.12572.26455-.275.413h-.035a1.05332,1.05332,0,0,0,.31-.52757v-.0191a.2228.2228,0,0,1-.049.1528.28474.28474,0,1,0-.56344-.08277h0l-.05092-.02865c.03262-.11717.25784-.13137.25784-.13137h-.01942a.28742.28742,0,0,0-.27792.1901.804.804,0,0,0-1.00183.282c-.0614.04436-.139.10772-.13573.16159a.54062.54062,0,0,0-.06787.08238,1.06131,1.06131,0,0,0-.0905.58614.62694.62694,0,0,1-.20684.53862.27975.27975,0,0,0,.21329,0,.81554.81554,0,0,0,.18745-.10772.41341.41341,0,0,0,.13249-.12357h0a.65125.65125,0,0,0,.11957.0602c.01615.13307.01939.28515-.03878.33267h0v-.02534a.74079.74079,0,0,1-.50738.14258.648.648,0,0,0-.52354.31683l-.24238,1.017h0v.01584h0v.01584h0a.07683.07683,0,0,0,.05817.057l.07432.019a1.52236,1.52236,0,0,1-.00323.48793,4.259,4.259,0,0,0-.08726.74772c.01939.12673.0517.77941.06464,1.08991a3.172,3.172,0,0,0-.06464.31683l-.362,2.126s-.26824,1.7014-.2553,2.21784l-.04848.29783s-.73361.903-.51707,1.02971.54616.18376.86287-.29783a.77515.77515,0,0,1,.20037-.29782.28858.28858,0,0,0,.10018-.24713l-.02262-.20911h.10163a6.79539,6.79539,0,0,0,.33333-1.9448s.69-2.30011,1.21666-2.66164h0l.05-.02182.11334,2.22531-.11334,2.45594-.02334.14648s-.75666.88825-.53332,1.01292.56333.18076.89-.293a.76159.76159,0,0,1,.20666-.293.27751.27751,0,0,0,.10333-.2431l-.03332-.31167a5.98217,5.98217,0,0,0,.33333-2.29387l.23-1.46795a1.46317,1.46317,0,0,0,.2-.86331,7.46871,7.46871,0,0,0,.22332-1.75781l.04667-.6919h.14l.01666-.0187h0v-.01558h0Zm-.775,1.036c-.0191.17595-.04138.125-.06686,0h-.11648v.02316c.10741-.02384.11592-.0483.12285-.07322a.277.277,0,0,0,.04138-.1528c.03171.13982.04243.28358.03182.20286Zm-.13876-.38112-.04457-.4743v-.0382l.06048.60164Zm-2.18373.06281a.16557.16557,0,0,0-.0382.12733h0a.5382.5382,0,0,0,.0191.14325l-.07.296v-.56662a1.2506,1.2506,0,0,0,.11778-.191.31832.31832,0,0,1-.01273.191Z" transform="translate(-568.98682 -1063.63072)"/><path class="cls-18" d="M837.5626,1132.36094a1.04416,1.04416,0,0,0-.086.56662.60161.60161,0,0,1-.19736.52206.261.261,0,0,0,.20055,0,.77016.77016,0,0,0,.17826-.105.39463.39463,0,0,0,.12415-.121.471.471,0,0,0,.02866-.24193,2.54529,2.54529,0,0,1,.0382-.42974c0-.08913.09868-.31833,0-.37562S837.60715,1132.2909,837.5626,1132.36094Z" transform="translate(-568.98682 -1063.63072)"/><path class="cls-19" d="M836.10148,1141.75471l-.06686.4361s-.69713.8754-.49021.99636.51887.17826.8181-.28649a.75128.75128,0,0,1,.191-.28649h0a.28329.28329,0,0,0,.09549-.23874l-.06686-.67485Z" transform="translate(-568.98682 -1063.63072)"/><path class="cls-19" d="M838.19925,1141.92979l-.06686.4361s-.69713.87539-.49021.99636.51887.17826.8181-.28649a.75128.75128,0,0,1,.191-.28649h0a.28329.28329,0,0,0,.09549-.23874l-.06686-.67485Z" transform="translate(-568.98682 -1063.63072)"/><path class="cls-20" d="M837.11375,1136.64241a1.649,1.649,0,0,0-.44883,1.06l-.3438,2.05638a18.14644,18.14644,0,0,0-.23556,2.22828l.57935.19736a7.10814,7.10814,0,0,0,.31833-1.91s.69713-2.47976,1.18416-2.65483l.10187,2.19008-.10824,2.47021.49659.09868a6.73946,6.73946,0,0,0,.3438-2.40017l.25784-1.7667a2.61658,2.61658,0,0,0-.11459-1.76034Z" transform="translate(-568.98682 -1063.63072)"/><g class="cls-15"><path d="M838.12732,1137.6515v-.0382c-.487.17507-1.18416,2.65483-1.18416,2.65483a6.965,6.965,0,0,1-.29923,1.89085l.06367.02229a7.10814,7.10814,0,0,0,.31833-1.91S837.64346,1138.008,838.12732,1137.6515Z" transform="translate(-568.98682 -1063.63072)"/><path d="M839.15747,1136.3264H839.089a2.682,2.682,0,0,1,.114,1.79556l-.264,1.80858a6.82526,6.82526,0,0,1-.34542,2.444h.06518a6.89923,6.89923,0,0,0,.35195-2.45708l.264-1.80858A2.67856,2.67856,0,0,0,839.15747,1136.3264Z" transform="translate(-568.98682 -1063.63072)"/></g><path class="cls-21" d="M836.66811,1135.03169a.07322.07322,0,0,0,.0573.07322,1.146,1.146,0,0,1,.43929.21009c.24512.191-.25784-.382-.25784-.382l-.16872.0382Z" transform="translate(-568.98682 -1063.63072)"/><path class="cls-22" d="M836.66811,1135.03169a.07322.07322,0,0,0,.0573.07322,1.146,1.146,0,0,1,.43929.21009c.24512.191-.25784-.382-.25784-.382l-.16872.0382Z" transform="translate(-568.98682 -1063.63072)"/><path class="cls-21" d="M839.0619,1135.54419a1.53757,1.53757,0,0,1,.69076-.27376.06366.06366,0,0,0,.06367-.06366h0a.55076.55076,0,0,0-.75443.33742Z" transform="translate(-568.98682 -1063.63072)"/><path class="cls-22" d="M839.81633,1135.19721a.55076.55076,0,0,0-.75443.33742,1.302,1.302,0,0,1,.7226-.27375" transform="translate(-568.98682 -1063.63072)"/><circle class="cls-18" cx="269.40342" cy="68.90211" r="0.75443"/><path class="cls-23" d="M837.86818,1133.06125s.10824.44248,0,.53478-.31833.25784-.15916.38836.73852.35016.9295.24511.41063-.07639.35971-.296-.47111-.17507-.48067-1.2733Z" transform="translate(-568.98682 -1063.63072)"/><path class="cls-22" d="M836.8018,1134.90754a2.75963,2.75963,0,0,1-.04457.71623,4.20165,4.20165,0,0,0-.08277.72259c.02229.15916.07,1.21282.07,1.21282s-.08277.92314.36608.8372-.07-1.05047-.07-1.05047l.02229-1.2733a1.17471,1.17471,0,0,0,.22918-.56343C837.31111,1135.22586,836.8018,1134.90754,836.8018,1134.90754Z" transform="translate(-568.98682 -1063.63072)"/><path class="cls-23" d="M836.79224,1134.90754a2.75963,2.75963,0,0,1-.04457.71623,4.20165,4.20165,0,0,0-.08277.72259c.02229.15916.07,1.21282.07,1.21282s-.08277.92314.36608.8372-.07-1.05047-.07-1.05047l.02229-1.2733a1.17471,1.17471,0,0,0,.22918-.56343C837.30476,1135.22586,836.79224,1134.90754,836.79224,1134.90754Z" transform="translate(-568.98682 -1063.63072)"/><path class="cls-22" d="M839.66673,1135.04673l-.06048.98362a7.84677,7.84677,0,0,1-.20692,1.7285s.04457.955-.40428.955.07639-1.06.07639-1.06a4.34049,4.34049,0,0,0,.11778-1.41973l-.11778-1.181Z" transform="translate(-568.98682 -1063.63072)"/><path class="cls-23" d="M839.6731,1135.04673l-.06048.98362a7.84677,7.84677,0,0,1-.20692,1.7285s.04457.955-.40428.955.07639-1.06.07639-1.06a4.3405,4.3405,0,0,0,.11778-1.41973l-.11778-1.181Z" transform="translate(-568.98682 -1063.63072)"/><path class="cls-22" d="M838.212,1134.013s.3629.16871.56344-.31832l.7417.36289a.46159.46159,0,0,1,.14325.33424l.15916.85311a.54436.54436,0,0,0-.70574.30748l-.00412.01084.04457.48067h0a.51561.51561,0,0,1-.02229.35971.07958.07958,0,0,0,0,.06367.23556.23556,0,0,1-.21327.31832,4.49591,4.49591,0,0,0-.59527.04457c-.15916.04457-.63665-.09232-.799,0s-.49659-.07-.49659-.07l.09231-.38836s-.06048-.191,0-.25784a1.65852,1.65852,0,0,0-.0382-.83082s-.27376-.25784-.43292-.21328l.22918-.98362a.59847.59847,0,0,1,.49659-.31832.69393.69393,0,0,0,.48067-.13688S837.67719,1133.95256,838.212,1134.013Z" transform="translate(-568.98682 -1063.63072)"/><path class="cls-22" d="M838.25018,1133.99713c.09868.02546.36608.0573.52524-.34379l.7417.36289a.46159.46159,0,0,1,.14325.33424l.15916.85311a.54436.54436,0,0,0-.70574.30748l-.00412.01084.04457.48067.02866.09549a.2706.2706,0,0,1-.0382.24193.08593.08593,0,0,0,0,.08913.23555.23555,0,0,1-.21327.31832,4.49591,4.49591,0,0,0-.59527.04457c-.15916.04457-.63665-.09232-.799,0s-.49659-.07-.49659-.07l.09231-.38836s-.06048-.191,0-.25784a1.65852,1.65852,0,0,0-.0382-.83082s-.27375-.25784-.43292-.21328l.22918-.98362a.59847.59847,0,0,1,.49659-.31833.69394.69394,0,0,0,.48067-.13688s-.17826.31832.29285.39791Z" transform="translate(-568.98682 -1063.63072)"/><path class="cls-21" d="M838.25018,1134.013c.09868.02546.36608.0573.52524-.34379l.7417.3629a.46159.46159,0,0,1,.14325.33424l.15916.85311a.54436.54436,0,0,0-.70574.30748l-.00412.01084.04457.48067h0a.51561.51561,0,0,1-.02229.35971.07958.07958,0,0,0,0,.06367.23555.23555,0,0,1-.21327.31832,4.49608,4.49608,0,0,0-.59527.04457c-.15916.04457-.63665-.09232-.799,0s-.49659-.07-.49659-.07l.09231-.38836s-.06048-.191,0-.25784a1.65852,1.65852,0,0,0-.0382-.83082s-.27376-.25784-.43292-.21328l.22918-.98362a.59847.59847,0,0,1,.49659-.31832.69394.69394,0,0,0,.48067-.13688s-.17826.31832.29285.39791Z" transform="translate(-568.98682 -1063.63072)"/><path class="cls-22" d="M838.5303,1132.69517l-.63665.40427a2.10441,2.10441,0,0,1,.0382.2101.63647.63647,0,0,0,.23237.04457.65259.65259,0,0,0,.42019-.191A2.51831,2.51831,0,0,1,838.5303,1132.69517Z" transform="translate(-568.98682 -1063.63072)"/><circle class="cls-23" cx="269.15195" cy="69.06128" r="0.62392"/><circle class="cls-18" cx="270.07508" cy="68.30684" r="0.27376"/><path class="cls-18" d="M839.11284,1132.22723a.43851.43851,0,0,1-.34887-.25466v.0191a.42537.42537,0,0,0,.34728.27535.29593.29593,0,0,0,.28937-.27215v-.02229A.29782.29782,0,0,1,839.11284,1132.22723Z" transform="translate(-568.98682 -1063.63072)"/><path class="cls-18" d="M838.95687,1132.501a.233.233,0,0,1-.19289-.29923v.0191a.238.238,0,0,0,.1913.31992c.14943.02725.29266-.0718.44535-.22124v-.0191C839.23911,1132.44118,839.09938,1132.5292,838.95687,1132.501Z" transform="translate(-568.98682 -1063.63072)"/><path class="cls-18" d="M838.74358,1133.15675a.44863.44863,0,0,1-.29793-.29923v.0191a.4314.4314,0,0,0,.29633.31992.30783.30783,0,0,0,.34032-.22124h0v-.0191A.30837.30837,0,0,1,838.74358,1133.15675Z" transform="translate(-568.98682 -1063.63072)"/><path class="cls-18" d="M839.11284,1132.084a.43852.43852,0,0,1-.34887-.25466v.0191a.42492.42492,0,0,0,.35046.27216.29624.29624,0,0,0,.28619-.27216v-.0191A.29782.29782,0,0,1,839.11284,1132.084Z" transform="translate(-568.98682 -1063.63072)"/><path class="cls-18" d="M838.73085,1131.93438c.00144-.144.11413-.26221.25784-.38286h-.0191c-.1512.11228-.27376.23485-.27376.386a.24227.24227,0,0,0,.27376.25062h.0191A.24048.24048,0,0,1,838.73085,1131.93438Z" transform="translate(-568.98682 -1063.63072)"/><path class="cls-22" d="M839.00779,1134.52237a.98686.98686,0,0,1,0,.41064s-.0382.35971.02229.42019" transform="translate(-568.98682 -1063.63072)"/><path class="cls-22" d="M837.15514,1134.58921a.98686.98686,0,0,1,0,.41064s-.0382.35971.02229.42019" transform="translate(-568.98682 -1063.63072)"/><path class="cls-22" d="M837.13922,1136.07579a.27379.27379,0,0,0,.18145,0,.38191.38191,0,0,1,.21965,0" transform="translate(-568.98682 -1063.63072)"/><path class="cls-22" d="M837.23153,1135.54419a1.59159,1.59159,0,0,0,.63665-.09868s.77671.191.99955.05412" transform="translate(-568.98682 -1063.63072)"/><path class="cls-23" d="M836.8018,1138.873h.21329c.07383-.05325.13369.00661.15726.08045v.02865a.58575.58575,0,0,1-.15726.20923h-.21329a1.01457,1.01457,0,0,0-.2661-.20923v-.02865C836.66811,1138.87961,836.728,1138.81975,836.8018,1138.873Z" transform="translate(-568.98682 -1063.63072)"/><path class="cls-24" d="M836.66811,1138.873h.25784l.22283.31832h-.07958Z" transform="translate(-568.98682 -1063.63072)"/><path class="cls-24" d="M838.39661,1137.5997h.25784l.22283.31832h-.07958Z" transform="translate(-568.98682 -1063.63072)"/><path class="cls-24" d="M838.39661,1137.5997h.25784l.22283.31832h-.07958Z" transform="translate(-568.98682 -1063.63072)"/><path class="cls-24" d="M838.39661,1137.5997h.25784l.22283.31832h-.07958Z" transform="translate(-568.98682 -1063.63072)"/><path class="cls-24" d="M838.39661,1137.5997h.25784l.22283.31832h-.07958Z" transform="translate(-568.98682 -1063.63072)"/><path class="cls-24" d="M836.66811,1138.873h.25784l.22283.31832h-.07958Z" transform="translate(-568.98682 -1063.63072)"/><path class="cls-24" d="M836.66811,1138.873h.25784l.22283.31832h-.07958Z" transform="translate(-568.98682 -1063.63072)"/><path class="cls-24" d="M836.66811,1138.873h.25784l.22283.31832h-.07958Z" transform="translate(-568.98682 -1063.63072)"/><path class="cls-24" d="M836.66811,1139.19133h0Z" transform="translate(-568.98682 -1063.63072)"/><path class="cls-24" d="M836.66811,1138.873h.25784l.22283.31832h-.07958Z" transform="translate(-568.98682 -1063.63072)"/><path class="cls-24" d="M836.66811,1138.55468h.25784l.22283.31832h-.07958Z" transform="translate(-568.98682 -1063.63072)"/><path class="cls-22" d="M838.2438,1132.2909a1.512,1.512,0,0,0,.086.68758.82126.82126,0,0,1-.0382.65575.21644.21644,0,0,0,.19417-.04775.75428.75428,0,0,0,.14006-.16553.44264.44264,0,0,0,.086-.1719.68448.68448,0,0,0-.04457-.28968,3.74534,3.74534,0,0,1-.09231-.51569c0-.105,0-.41064-.11778-.43929S838.26609,1132.20177,838.2438,1132.2909Z" transform="translate(-568.98682 -1063.63072)"/><path class="cls-18" d="M838.25973,1132.28454a1.512,1.512,0,0,0,.086.68758.8213.8213,0,0,1-.035.66211.21645.21645,0,0,0,.19417-.04775.75428.75428,0,0,0,.14006-.16553.44263.44263,0,0,0,.086-.1719.68449.68449,0,0,0-.04457-.28968,3.74534,3.74534,0,0,1-.09231-.51569c0-.105,0-.41064-.11778-.43929S838.29156,1132.19541,838.25973,1132.28454Z" transform="translate(-568.98682 -1063.63072)"/><path class="cls-22" d="M837.99233,1132.44688c.05092.05412.06367.13688.10824.20055a.39152.39152,0,0,0,.31833.12415.17516.17516,0,0,1,.08914.0191c.04776.03183.05092.10187.08277.14961a.17508.17508,0,0,0,.24721.01381l.01381-.01381a.42654.42654,0,0,0,.07638-.261,1.70146,1.70146,0,0,0,0-.31833.50617.50617,0,0,0-.14006-.33742.58568.58568,0,0,0-.24512-.105.72578.72578,0,0,0-.37881-.02865.6813.6813,0,0,0-.17189.08594l-.22283.14961c-.08277.0573-.23556.1719-.086.23556C837.79179,1132.38322,837.91275,1132.36094,837.99233,1132.44688Z" transform="translate(-568.98682 -1063.63072)"/><path class="cls-18" d="M838.00824,1132.44052c.05092.05412.06367.13688.10824.20055a.39152.39152,0,0,0,.31833.12415.17516.17516,0,0,1,.08914.0191c.04776.03183.05092.10187.08277.14961a.17508.17508,0,0,0,.24721.01381l.01381-.01381a.42656.42656,0,0,0,.09868-.27375,1.70146,1.70146,0,0,0,0-.31832.50617.50617,0,0,0-.14006-.33742.58568.58568,0,0,0-.24512-.105.72578.72578,0,0,0-.37881-.02865.6813.6813,0,0,0-.17189.08594l-.22283.14961c-.08277.0573-.23556.1719-.086.23556A.53563.53563,0,0,1,838.00824,1132.44052Z" transform="translate(-568.98682 -1063.63072)"/><path class="cls-24" d="M838.41252,1137.5997h.25784l.22283.31832h-.07958Z" transform="translate(-568.98682 -1063.63072)"/><path class="cls-24" d="M838.41252,1137.5997h.25784l.22283.31832h-.07958Z" transform="translate(-568.98682 -1063.63072)"/><path class="cls-24" d="M838.41252,1137.5997h.25784l.22283.31832h-.07958Z" transform="translate(-568.98682 -1063.63072)"/><path class="cls-24" d="M838.41252,1137.5997h.25784l.22283.31832h-.07958Z" transform="translate(-568.98682 -1063.63072)"/><path class="cls-24" d="M838.29156,1140.46463h.25784l.22283.31833h-.07958Z" transform="translate(-568.98682 -1063.63072)"/><path class="cls-24" d="M838.29156,1140.783h.25784l.22283.31832h-.07958Z" transform="translate(-568.98682 -1063.63072)"/><path class="cls-24" d="M838.29156,1140.783h.25784l.22283.31832h-.07958Z" transform="translate(-568.98682 -1063.63072)"/><path class="cls-24" d="M838.29156,1140.783h.25784l.22283.31832h-.07958Z" transform="translate(-568.98682 -1063.63072)"/><path class="cls-25" d="M693.926,1284.66591H668.46v-14.32463h25.466Zm-24.19271-.955h23.23773v-12.09636H669.73333Z" transform="translate(-568.98682 -1063.63072)"/><path class="cls-26" d="M651.7212,1263.3772a5.92661,5.92661,0,0,0,5.00407.73214,7.76133,7.76133,0,0,0,1.30195-.57617c16.23458.3438,31.26908.18463,31.85161-1.563.955-2.89675-5.0932-17.16409-8.14594-24.059a7.72905,7.72905,0,0,0,2.22828-2.327c4.24009,4.84809,12.12819,11.10318,16.81712,11.41513,0,0,6.844,16.25687,14.54428,13.688s8.55658-16.25687,4.70485-17.96627l-25.78306-16.25687v-26.97487a9.0769,9.0769,0,0,0,1.18925-4.99771c0-.31833.01591-.63665,0-.955l-.8563-7.70029s-.04457-.25466-.16235-.71623c-1.91-7.42016-6.166-12.41468-12.16639-13.15638a4.38337,4.38337,0,0,0,.52206-1.7285c.12415-1.43883-.4743-2.90631-.13688-4.31012.39472-1.6362,1.91-2.693,3.1546-3.8199,2.658-2.432,4.3324-5.72985,5.9495-8.94812,1.54069-3.06547,3.10367-6.21053,3.50158-9.6166s-.63665-7.18778-3.422-9.19323c-2.16461-1.563-5.211-1.97362-6.7676-4.13823a17.37391,17.37391,0,0,1-1.46747-3.2692,12.89979,12.89979,0,0,0-7.61116-6.56068c-11.37057-4.09366-25.31958.60481-32.57421,10.04634a56.887,56.887,0,0,0-5.768,10.10682l-6.11185,12.63432c-1.05366,2.17416-2.0723,4.88947-.6653,6.85354.68758.955,1.86538,1.54706,2.34287,2.62618.63665,1.43246-.15916,3.3074.77671,4.568a5.91274,5.91274,0,0,0,2.17734,1.38153,8.52466,8.52466,0,0,1,2.63255,2.33332l-13.42059,10.39969a9.03726,9.03726,0,0,0-3.457,6.24235l-1.32742,13.22961a16.09438,16.09438,0,0,0-.59845,4.6189,7.87116,7.87116,0,0,0,.81173,4.13823l.29286-.07c.31833,9.27918.87221,22.62973,1.41973,25.09675.31833,1.46429,2.327,4.04592,5.03272,6.70711l-.955,2.6285h.31833l-.31833.955h.63665c-2.6994,9.7257-10.04316,17.07582-10.04316,17.07582S634.156,1262.87424,651.7212,1263.3772Zm-16.04866-45.06848V1207.909c1.56616.24193,2.72168.78308,3.09093,1.76989Zm4.62079-45.133.05093.0764h-.0191Z" transform="translate(-568.98682 -1063.63072)"/><path class="cls-23" d="M679.06344,1196.66261s.81173,28.84662,1.62664,32.50418,12.59931,14.63977,18.68888,15.04724c0,0,6.5002,15.43877,13.81532,13.00041s8.12685-15.43877,4.45655-17.06541l-24.36143-15.43879V1193.8327Z" transform="translate(-568.98682 -1063.63072)"/><path class="cls-27" d="M679.52054,1232.14226s10.56521,22.75387,9.346,26.421-69.07655,0-69.07655,0,12.59613-12.59613,10.15776-26.421Z" transform="translate(-568.98682 -1063.63072)"/><path class="cls-23" d="M671.3937,1164.57862s-1.62664,15.84622,1.21918,19.50378-11.37694,5.68529-12.58339,5.68529-14.21958-4.45655-16.658-5.68847-4.45655-10.15776-4.45655-10.15776,12.18867,2.43837,15.84622-11.778Z" transform="translate(-568.98682 -1063.63072)"/><path class="cls-28" d="M675.65288,1123.93169a12.24383,12.24383,0,0,1,7.22916,6.22962,16.6483,16.6483,0,0,0,1.39427,3.10686c1.477,2.06275,4.37061,2.45111,6.427,3.93768,2.63892,1.90995,3.61617,5.49747,3.2501,8.73166s-1.85265,6.22325-3.31377,9.13275c-1.53751,3.0591-3.126,6.18824-5.65027,8.49929-1.17781,1.07913-2.623,2.08185-2.99863,3.63528-.31833,1.33378.24829,2.72486.12733,4.09366-.29286,3.37742-4.32922,4.95-7.70029,5.32558-1.4643.16235-3.14187.1719-4.17324-.88176a7.25966,7.25966,0,0,1-1.13005-1.95452,9.36831,9.36831,0,0,0-16.70888-.1719c-.78945,1.52159-1.251,3.3647-2.68985,4.2942-2.20281,1.42291-5.14732-.24829-6.7676-2.30467s-2.80126-4.64118-5.11549-5.8731a5.34462,5.34462,0,0,1-2.06593-1.3115c-.88813-1.19691-.1337-2.97634-.73533-4.33877-.4552-1.025-1.57253-1.59163-2.22828-2.49567-1.337-1.86538-.36926-4.45655.63665-6.50975l5.80625-12.00086a52.93677,52.93677,0,0,1,5.47837-9.60069C651.60342,1124.50467,664.85211,1120.04175,675.65288,1123.93169Z" transform="translate(-568.98682 -1063.63072)"/><path class="cls-22" d="M660.83166,1186.925s-15.84622,0-19.90806-14.627l-13.33782,10.336a8.59476,8.59476,0,0,0-3.28193,5.9304l-1.2733,12.58339s-1.42291,4.673.20373,7.51566c0,0,16.87123-4.26555,17.26913.608l-11.77166,32.91163s18.2846.40747,23.15815-2.84264c0,0,19.90806,4.06183,24.78479-.40747s9.7503-4.06183,5.68847-14.21958c0,0,8.12684-8.12685,4.45655-19.50378s-.20373.20373-.20373.20373,7.92312-3.86129,7.51565-11.17321l-.81173-7.32148s-.04457-.24193-.156-.678c-2.47657-9.63888-9.13275-14.96128-18.48833-11.56793a8.57909,8.57909,0,0,1-5.52931-.14325S672.20542,1187.74951,660.83166,1186.925Z" transform="translate(-568.98682 -1063.63072)"/><path class="cls-29" d="M660.83166,1186.11331s-15.84622,0-19.90806-14.627l-13.33782,10.336a8.59478,8.59478,0,0,0-3.28193,5.92722l-1.2733,12.58339s-1.42291,4.673.20373,7.51566c0,0,16.87123-4.26555,17.26914.608l-11.778,32.91163s18.2846.40747,23.15815-2.84264c0,0,19.90806,4.06183,24.7848-.40747s9.7503-4.06183,5.68847-14.21958c0,0,8.12684-8.12685,4.45655-19.50378s-.20373.20373-.20373.20373,7.92312-3.86128,7.51565-11.17321l-.81173-7.32148s-.04457-.24193-.156-.678c-2.47657-9.63888-9.13275-14.96128-18.48833-11.56793a8.5791,8.5791,0,0,1-5.52931-.14325S672.20542,1186.925,660.83166,1186.11331Z" transform="translate(-568.98682 -1063.63072)"/><path class="cls-23" d="M623.37247,1199.92544s.81173,28.84662,1.62664,32.50417,12.59613,14.627,18.68887,15.03449c0,0,6.5002,15.43877,13.81531,13.00041s8.12684-15.43877,4.45655-17.06541l-24.37734-15.43877V1197.0828Z" transform="translate(-568.98682 -1063.63072)"/><path class="cls-22" d="M640.7167,1200.9409s-9.33647,6.341-17.46968,5.81262c0,0-.81173-10.8899,1.62664-11.4979S637.87405,1195.25561,640.7167,1200.9409Z" transform="translate(-568.98682 -1063.63072)"/><path class="cls-29" d="M640.7167,1200.53663s-9.33647,6.341-17.46968,5.80943c0,0-.81173-10.8899,1.62664-11.4979S637.87405,1194.84815,640.7167,1200.53663Z" transform="translate(-568.98682 -1063.63072)"/><path class="cls-22" d="M653.924,1162.952l16.658,2.43837s-.37562,3.6671-.44884,7.87855a18.69841,18.69841,0,0,1-19.60564-3.18325A18.423,18.423,0,0,0,653.924,1162.952Z" transform="translate(-568.98682 -1063.63072)"/><circle class="cls-23" cx="94.6875" cy="91.60187" r="18.68887"/><path class="cls-22" d="M658.75619,1151.64189a5.80136,5.80136,0,0,0,2.49885.35652q4.9595-.03184,9.90946-.36607c2.502-.16871,5.1696-.46158,7.09865-2.06275,2.59753-2.15506,3.00818-6.1946,1.668-9.29191s-4.07456-5.37969-6.96177-7.12412a20.78349,20.78349,0,0,0-5.25873-2.38425c-5.35741-1.45475-11.28144.31832-15.53745,3.89948a27.49393,27.49393,0,0,0-8.40378,14.07952c-.49659,1.85583-1.13324,4.065-2.97,4.62845,1.22237,2.0341,4.20507,2.3556,6.35059,1.337,3.15779-1.50249,4.77488-7.25145,7.61116-8.15549C657.9158,1145.56188,656.07588,1150.41315,658.75619,1151.64189Z" transform="translate(-568.98682 -1063.63072)"/><path class="cls-28" d="M658.75619,1151.23444a5.80137,5.80137,0,0,0,2.49885.35652q4.9595-.03182,9.90946-.36607c2.502-.16871,5.1696-.46158,7.09865-2.06275,2.59753-2.15506,3.00818-6.19461,1.668-9.29191s-4.07456-5.37969-6.96177-7.12412a20.78357,20.78357,0,0,0-5.24918-2.36834c-5.35741-1.45475-11.28144.31832-15.53745,3.89948a27.494,27.494,0,0,0-8.40378,14.07952c-.49659,1.85583-1.13324,4.065-2.97,4.62845,1.22237,2.0341,4.20507,2.3556,6.35059,1.337,3.15779-1.5025,4.77488-7.25145,7.61116-8.15549C657.9158,1145.15761,656.07588,1150.00569,658.75619,1151.23444Z" transform="translate(-568.98682 -1063.63072)"/><path class="cls-22" d="M682.5669,1223.69478a71.97661,71.97661,0,0,0-18.68887-2.43836" transform="translate(-568.98682 -1063.63072)"/><path class="cls-22" d="M640.7167,1201.75581s6.09592,4.45655,4.45655,6.90766" transform="translate(-568.98682 -1063.63072)"/><g class="cls-30"><polygon class="cls-31" points="240.173 184.109 40.583 184.109 40.583 201.617 52.361 201.617 52.361 205.015 52.361 256.369 229.032 256.369 229.032 205.015 229.032 201.617 240.173 201.617 240.173 184.109"/></g><rect class="cls-32" x="53.95272" y="194.29588" width="173.16887" height="62.0734"/><rect class="cls-22" x="53.95272" y="197.47913" width="173.16887" height="9.86808"/><rect class="cls-32" x="42.81134" y="187.61105" width="195.45163" height="16.55291"/><rect class="cls-33" x="79.73705" y="183.1545" width="37.24404" height="5.41153" rx="2.06911" ry="2.06911"/><g class="cls-30"><path class="cls-34" d="M111.32127,124.26435H186.306a8.98313,8.98313,0,0,1,8.98313,8.98313V179.5829A8.98313,8.98313,0,0,1,186.306,188.566H111.32127a8.98314,8.98314,0,0,1-8.98314-8.98314V133.24749A8.98314,8.98314,0,0,1,111.32127,124.26435Z"/></g><path class="cls-35" d="M112.79193,125.53765h70.77a8.54386,8.54386,0,0,1,8.54386,8.54386v45.94067A8.54386,8.54386,0,0,1,183.562,188.566h-70.77a8.54385,8.54385,0,0,1-8.54385-8.54385V134.0815A8.54385,8.54385,0,0,1,112.79193,125.53765Z"/><path class="cls-33" d="M114.06524,125.53765h70.77a8.54386,8.54386,0,0,1,8.54386,8.54386v45.94067a8.54386,8.54386,0,0,1-8.54386,8.54386h-70.77a8.54385,8.54385,0,0,1-8.54385-8.54385V134.0815A8.54385,8.54385,0,0,1,114.06524,125.53765Z"/><circle class="cls-32" cx="153.40893" cy="156.7312" r="2.84264"/></svg>