<svg id="Layer_1" data-name="Layer 1" xmlns="http://www.w3.org/2000/svg" xmlns:xlink="http://www.w3.org/1999/xlink" viewBox="0 0 554.0484 681.99999"><defs><style>.cls-1{fill:#f9f9f9;}.cls-2{fill:url(#linear-gradient);}.cls-3{fill:#fff;}.cls-36,.cls-38,.cls-4{fill:none;}.cls-5{fill:url(#linear-gradient-2);}.cls-6{fill:url(#linear-gradient-3);}.cls-7{opacity:0.83;}.cls-8{fill:url(#linear-gradient-4);}.cls-9{fill:url(#linear-gradient-5);}.cls-10{fill:url(#linear-gradient-6);}.cls-11{fill:url(#linear-gradient-7);}.cls-12,.cls-13{fill:#283149;}.cls-13,.cls-16,.cls-18{opacity:0.1;}.cls-13,.cls-16,.cls-32,.cls-37,.cls-40{isolation:isolate;}.cls-14{fill:url(#linear-gradient-8);}.cls-15{fill:#444176;}.cls-17{fill:#565387;}.cls-19{fill:#ced2df;}.cls-20{fill:#88455e;}.cls-21{fill:#ec8c9c;}.cls-22{fill:#ebf1f6;}.cls-23{fill:url(#linear-gradient-9);}.cls-24{fill:url(#linear-gradient-10);}.cls-25{fill:#ffbdc6;}.cls-26{fill:#7679b4;}.cls-27{fill:#a66477;}.cls-28{fill:#f2f1f2;}.cls-29{fill:#565388;}.cls-30{fill:url(#linear-gradient-11);}.cls-31{fill:#493545;}.cls-32{opacity:0.05;}.cls-33{fill:#3e3d77;}.cls-34{fill:#c77485;}.cls-35{fill:#ffaac4;}.cls-36{stroke:#535461;stroke-width:2px;}.cls-36,.cls-38{stroke-miterlimit:10;}.cls-37{fill:#dee3f3;opacity:0.5;}.cls-38{stroke:#283149;}.cls-39{fill:#a8a8a8;}.cls-40{opacity:0.2;}.cls-41{fill:#ffd037;}</style><linearGradient id="linear-gradient" x1="260.2266" y1="-8250.03518" x2="587.85814" y2="-8689.5088" gradientTransform="translate(428.67999 8758.08008)" gradientUnits="userSpaceOnUse"><stop offset="0" stop-color="#d4145a"/><stop offset="1" stop-color="#93278f"/></linearGradient><linearGradient id="linear-gradient-2" x1="464.22761" y1="-8092.72902" x2="529.61067" y2="-8180.43117" xlink:href="#linear-gradient"/><linearGradient id="linear-gradient-3" x1="136.22762" y1="-8184.72901" x2="201.61067" y2="-8272.43116" xlink:href="#linear-gradient"/><linearGradient id="linear-gradient-4" x1="174.72084" y1="-8650.99904" x2="212.11744" y2="-8701.16115" xlink:href="#linear-gradient"/><linearGradient id="linear-gradient-5" x1="480.72084" y1="-8093.99904" x2="518.11744" y2="-8144.16115" xlink:href="#linear-gradient"/><linearGradient id="linear-gradient-6" x1="137.72084" y1="-8219.99904" x2="175.11744" y2="-8270.16115" xlink:href="#linear-gradient"/><linearGradient id="linear-gradient-7" x1="160.22761" y1="-8620.72902" x2="225.61067" y2="-8708.43117" xlink:href="#linear-gradient"/><linearGradient id="linear-gradient-8" x1="698.36382" y1="8604.8649" x2="698.36382" y2="8787.82637" gradientTransform="matrix(1, 0, 0, -1, 89.24, 9059.80004)" gradientUnits="userSpaceOnUse"><stop offset="0" stop-color="gray" stop-opacity="0.25"/><stop offset="0.54" stop-color="gray" stop-opacity="0.12"/><stop offset="1" stop-color="gray" stop-opacity="0.1"/></linearGradient><linearGradient id="linear-gradient-9" x1="557.20026" y1="8682.56855" x2="557.20026" y2="8682.66576" xlink:href="#linear-gradient-8"/><linearGradient id="linear-gradient-10" x1="550.91573" y1="8630.19542" x2="550.91573" y2="8778.38904" xlink:href="#linear-gradient-8"/><linearGradient id="linear-gradient-11" x1="816.34648" y1="8631.78628" x2="816.34648" y2="8811.65643" xlink:href="#linear-gradient-8"/></defs><title>landing page vector</title><path class="cls-1" d="M623.25488,0,497.87183,258.99506c-75.6344,156.23273,13.56125,334.47919,199.22406,398.12445l6.61963,2.26923C810.8537,696.11578,926.71918,686.57025,1020,641.84711V0Z" transform="translate(-470.9516)"/><path class="cls-2" d="M655.38751,0,538.57922,246.2359C468.11728,394.772,551.213,564.23724,724.17871,624.74713l6.16693,2.15741C830.1568,661.82227,938.09851,652.74695,1025,610.22705V0Z" transform="translate(-470.9516)"/><path class="cls-3" d="M480.09915,551h179c5.79108,0,5.80066-9,0-9h-179C474.30808,542,474.29849,551,480.09915,551Z" transform="translate(-470.9516)"/><line class="cls-4" x1="365.0484" y1="621" x2="544.0484" y2="621"/><path class="cls-5" d="M836.09912,626h179c5.79108,0,5.80066-9,0-9h-179C830.308,617,830.29846,626,836.09912,626Z" transform="translate(-470.9516)"/><path class="cls-6" d="M508.09915,534h179c5.79108,0,5.80066-9,0-9h-179C502.30808,525,502.29849,534,508.09915,534Z" transform="translate(-470.9516)"/><g class="cls-7"><line class="cls-4" x1="100.0484" y1="82" x2="202.0484" y2="82"/><path class="cls-8" d="M571.09912,85h102c3.86072,0,3.86713-6,0-6h-102C567.2384,79,567.232,85,571.09912,85Z" transform="translate(-470.9516)"/></g><g class="cls-7"><line class="cls-4" x1="406.0484" y1="639" x2="508.0484" y2="639"/><path class="cls-9" d="M877.09912,642h102c3.86072,0,3.86713-6,0-6h-102C873.2384,636,873.232,642,877.09912,642Z" transform="translate(-470.9516)"/></g><path class="cls-10" d="M534.09912,516h102c3.86072,0,3.86713-6,0-6h-102C530.2384,510,530.232,516,534.09912,516Z" transform="translate(-470.9516)"/><path class="cls-3" d="M475.09915,505h102c3.86072,0,3.86713-6,0-6h-102C471.23843,499,471.232,505,475.09915,505Z" transform="translate(-470.9516)"/><g class="cls-7"><line class="cls-4" x1="61.0484" y1="93" x2="240.0484" y2="93"/><path class="cls-11" d="M532.09912,98h179c5.79108,0,5.80066-9,0-9h-179C526.308,89,526.29846,98,532.09912,98Z" transform="translate(-470.9516)"/></g><circle class="cls-12" cx="155.17601" cy="243.84371" r="20.54465"/><path class="cls-13" d="M623.61753,285.6666c8.62619,19.48405-2.37751,41.9201-15.33005,58.81454-4.33519,5.66536-9.12114,11.60471-9.72214,18.7107-.72474,8.69248,5.16158,16.68231,12.14384,21.90576a51.13429,51.13429,0,0,0,45.28751,7.65839c13.09838-4.14959,24.11091-13.52262,37.32418-17.301,22.09578-6.32823,45.5173,4.16285,64.44011,17.23469,13.39446,9.24047,27.739,20.50047,43.88663,18.52069,11.36166-1.392,21.00423-9.36861,27.549-18.75932,3.15971-4.53406,5.90841-9.61609,10.50876-12.67413a26.30571,26.30571,0,0,1,9.1609-3.47345c29.33878-6.27078,60.47613,9.03275,89.426,1.16224,19.55476-5.303,35.14555-20.77,44.84116-38.566s14.22087-37.88983,17.99036-57.79814c2.678-14.1413,4.90083-29.41832-1.255-42.42389-6.51383-13.77009-21.592-22.11787-36.74529-23.68225s-30.35073,2.75313-44.31085,8.84272c-17.44242,7.62746-34.54011,18.30414-53.57783,18.33949-12.96581.02651-25.3306-4.94945-37.72633-8.74551-20.72585-6.34149-42.27805-9.49234-63.75516-12.40015-20.56233-2.78407-41.32794-5.37369-62.014-3.72977-14.63624,1.16224-27.56227,6.75689-41.76544,9.34651-9.25814,1.68812-18.56045.44192-27.64623,3.27017-11.1893,3.5-22.69678,11.60912-23.31546,24.38048C608.42889,266.45653,619.0437,275.33019,623.61753,285.6666Z" transform="translate(-470.9516)"/><path class="cls-14" d="M850.05875,302.74537c-1.90073-4.95435-6.80166-16.59906-10.02889-14.28881-4.07742,2.92008,4.07742,15.82007,4.07742,15.82007.23148,2.36812-4.35343,7.29574-6.81055,9.75289v-.01523a1.06,1.06,0,0,1-.10606.26515l-.20329-.11048a1.32575,1.32575,0,0,1-.28726.52588,5.16473,5.16473,0,0,0-.02209-.52588c-.46843,1.9842-8.64387,4.4987-8.64387,4.4987h-.49032s-8.18428-.61307-10.92414-4.99686a24.24334,24.24334,0,0,0-5.36044-6.2531,4.56509,4.56509,0,0,0-2.541-.96337,32.695,32.695,0,0,1-14.9235-5.13506l-.22538-.15467-.0486.14142c-.28726-.411-.56566-.84848-.82638-1.29923h0l-.13257-.243a11.58257,11.58257,0,0,0,6.28825-9.87239v-.22979a21.3179,21.3179,0,0,0,.88383-3.78722v-1.30181l1.73446-1.54373a7.13285,7.13285,0,0,0,2.01837-2.422,2.86971,2.86971,0,0,0,.21292-1.24207,2.15148,2.15148,0,0,0-.81623-1.92521c-1.33079-.91825-3.54878,0-4.51138-1.27756-.4436-.57667-.36375-1.36185-.58111-2.04055a3.65128,3.65128,0,0,0-3.51773-2.147,15.19689,15.19689,0,0,0-4.31176.91825,25.31608,25.31608,0,0,1-9.18248.86058,5.9975,5.9975,0,0,0-2.51519.08872,3.46451,3.46451,0,0,0-2.04054,2.37324,5.57565,5.57565,0,0,0-.19518,1.21545,7.64774,7.64774,0,0,0-1.92523,5.06145v3.21212a7.81222,7.81222,0,0,0,1.88163,5.07357,11.335,11.335,0,0,0,4.7471,8.27v.10169l-.04843.03535c-.07145,1.05354-.23409,2.0989-.39348,3.12435v-.22538c-.09262,0-6.27943,3.29228-12.90817,3.32642h-.72917a5.18084,5.18084,0,0,0-3.53532,1.37114c-1.96211,1.8472-5.40019,4.76827-7.51256,4.76827-.44192,0-11.59586,2.17864-13.44308,2.541L738.71,310.71l-.10606.19887-.20328-.19887a8.3973,8.3973,0,0,0-1.12247.16351,26.74941,26.74941,0,0,1-6.12053-13.50051s7.63188-8.69248,4.82572-16.79279c-2.39519-6.90272-8.993,7.89262-10.8667,12.35154a3.56184,3.56184,0,0,0-.1149,2.45263l6.20011,19.98339a15.97418,15.97418,0,0,0-.49052,4.62567h-.72962L734.74,326.0972a25.12408,25.12408,0,0,0,9.1813,1.49918,32.09752,32.09752,0,0,0,11.98412-2.3h.38843l-.19887.44192h5.3781l3.42042,9.94429c-.1149.94128-1.76766,14.07944-3.09341,17.01817a7.38442,7.38442,0,0,0-.52146,3.09341,23.617,23.617,0,0,0,.98546,5.988l2.9962-.11048-.1149.23421a155.97593,155.97593,0,0,0-9.28023,23.12986l-4.3617,8.83832,3.27017,39.69166h.13257l.25188-.012h0c.35353.053.88383.13257,1.58207.221l-.25632.44192-7.20764,11.93172s-5.13948,10.522,6.231,8.53781c0,0,4.20262-1.21969,5.91726-8.39639l7.4772-7.0132s.3491-4.65778-1.76766-6.51825c-.13257-2.15213-.46843-8.43618.0486-9.94752.62309-1.82954-2.65149-22.86913-2.65149-22.86913s11.83451-24.5484,19.00237-25.15825a3.92858,3.92858,0,0,1,1.55113.20328c5.89074,1.91791,13.02766,16.16084,15.12676,20.59327h0l-.03553.20329v.03978l.44192.17235v.23865l-.44192.137v.03094l.44192.11048v.16351l.44192.06187v.07515h0l-.39756.053.93244,27.59763h0l.09281.26386h.04418l-.07954.35481-.40655,2.85036s5.13948,10.82693,4.82571,12.19686,3.42485,6.863,8.719,5.33835,2.14336-10.12,2.14336-10.12l-5.0997-10.50876-.22538-.46843a10.022,10.022,0,0,0,1.4318-1.065s-1.55555-11.28212,0-13.72147,2.024-13.57124,2.024-13.57124-1.09152-7.623-2.96084-10.97718l-7.83073-27.95116a15.783,15.783,0,0,0,5.6963,3.12316h-.05679a3.83273,3.83273,0,0,0,1.93189-.48074,5.44353,5.44353,0,0,0,.89027-.62764,1.40814,1.40814,0,0,0,.1469-.14689h0c2.19451-1.84286-2.51056-9.06293-5.17691-13.354-2.56843-4.13974.97039-15.38829,1.23749-16.22515a4.24663,4.24663,0,0,1,.76119-.44513,4.69634,4.69634,0,0,1,1.74492-.37837c2.55507.089,5.69771,1.558,9.58818,2.29689a45.23431,45.23431,0,0,0,8.186.63654h.16024c1.09058,0,2.07877-.02225,2.88-.05341a4.86536,4.86536,0,0,0,2.09214-.56532h0a6.3167,6.3167,0,0,0,1.48676-1.20187l6.82837-7.71417-.17806.08458a3.83691,3.83691,0,0,0,0-2.71532l7.21564-12.46376A4.74066,4.74066,0,0,0,850.05875,302.74537Z" transform="translate(-470.9516)"/><path class="cls-15" d="M769.59549,438.2291l-7.21649,6.916c-1.65276,7.07065-5.714,8.26825-5.714,8.26825-10.97276,1.95326-6.01446-8.39639-6.01446-8.39639l6.96017-11.77706.85732-1.45389s4.9627-1.50252,8.26825-.601a2.8279,2.8279,0,0,1,1.12688.60985C769.93577,433.59341,769.59549,438.2291,769.59549,438.2291Z" transform="translate(-470.9516)"/><path class="cls-15" d="M814.092,444.39383c-5.113,1.50252-8.719-3.90655-8.39639-5.2632s-4.67105-12.01129-4.67105-12.01129l.38889-2.81058.36237-2.60289,8.39639.601.791,1.66161,4.92295,10.36292S819.20493,442.89131,814.092,444.39383Z" transform="translate(-470.9516)"/><path class="cls-16" d="M767.94273,432.9703c-.791,1.35668-7.20322.67172-10.32756.24747l.85732-1.45389s4.9627-1.50252,8.26825-.601a2.8279,2.8279,0,0,1,1.12688.60985C767.91179,432.50629,767.94273,432.9703,767.94273,432.9703Z" transform="translate(-470.9516)"/><path class="cls-16" d="M810.972,423.95963c-4.29983,2.8636-8.87809.69823-9.56748.34028l.36237-2.60289,8.39639.601Z" transform="translate(-470.9516)"/><path class="cls-17" d="M812.13871,408.91684c-1.50252,2.404,0,13.53145,0,13.53145-4.9627,4.512-10.82251,1.202-10.82251,1.202l-.88383-27.20874s-9.77075-22.4007-16.68673-21.7997-18.33949,24.80472-18.33949,24.80472,3.15528,20.74352,2.55428,22.53769,0,10.522,0,10.522c-1.05176,1.803-12.02453,0-12.02453,0l-3.15528-39.08743,4.18935-8.72338a154.6437,154.6437,0,0,1,8.94879-22.80284c1.21527-2.54985,2.0284-4.1054,2.0284-4.1054l7.99866-1.666,25.96254-5.38253,9.32883,33.95679c1.803,3.30553,2.85478,10.82251,2.85478,10.82251S813.6412,406.51282,812.13871,408.91684Z" transform="translate(-470.9516)"/><g class="cls-18"><path d="M803.72019,423.65032l-.88383-27.20874s-9.77075-22.4007-16.68673-21.7997a3.76551,3.76551,0,0,0-.90592.20328c6.74364,2.24052,15.18863,21.59642,15.18863,21.59642l.88383,27.20874a10.60618,10.60618,0,0,0,5.97913,1.09152A10.63639,10.63639,0,0,1,803.72019,423.65032Z" transform="translate(-470.9516)"/><path d="M758.32222,432.51954l-3.15528-39.08743,4.207-8.73665a154.64371,154.64371,0,0,1,8.94879-22.80284c1.21527-2.54985,2.0284-4.1054,2.0284-4.1054l7.99866-1.666,23.69993-4.92736-.12815-.47285-25.97581,5.40021-7.99866,1.666s-.81314,1.55554-2.0284,4.1054A154.44865,154.44865,0,0,0,756.97,384.69545l-4.207,8.719,3.15527,39.08743a56.46238,56.46238,0,0,0,9.54536.76893A70.99724,70.99724,0,0,1,758.32222,432.51954Z" transform="translate(-470.9516)"/></g><path class="cls-19" d="M740.0709,311.43027s-8.56875.44192-7.36674,9.47025l2.404.3005,3.606-3.90653,1.803-3.30553v-.75126Z" transform="translate(-470.9516)"/><path class="cls-16" d="M740.0709,311.43027s-8.56875.44192-7.36674,9.47025l2.404.3005,3.606-3.90653,1.803-3.30553v-.75126Z" transform="translate(-470.9516)"/><path class="cls-19" d="M835.36579,314.7358s7.07065,3.75628,5.2632,8.118l-2.25376.88383-3.005-1.65276-.44192-3.90653.3005-2.70452Z" transform="translate(-470.9516)"/><path class="cls-16" d="M835.36579,314.7358s7.07065,3.75628,5.2632,8.118l-2.25376.88383-3.005-1.65276-.44192-3.90653.3005-2.70452Z" transform="translate(-470.9516)"/><path class="cls-20" d="M783.96615,275.80186H789.955a9.28023,9.28023,0,0,1,9.28023,9.28023h0a9.28023,9.28023,0,0,1-9.28023,9.28023h-5.98881a9.28023,9.28023,0,0,1-9.28023-9.28023h0A9.28023,9.28023,0,0,1,783.96615,275.80186Z" transform="translate(-470.9516)"/><path class="cls-21" d="M739.98273,312.70741l-5.26322,8.39639-.44192-1.49368-7.15019-23.29779a3.58393,3.58393,0,0,1,.11048-2.41728c1.80743-4.39264,8.17986-19.00237,10.49107-12.17477,2.70452,7.95448-4.6622,16.53648-4.6622,16.53648a26.48028,26.48028,0,0,0,6.28846,13.76126C739.74409,312.4732,739.98273,312.70741,739.98273,312.70741Z" transform="translate(-470.9516)"/><path class="cls-21" d="M834.23888,316.31345s8.26825-7.81749,7.95448-10.97276c0,0-7.81749-12.62553-3.90655-15.467,3.09341-2.26261,7.791,9.13881,9.61166,13.98662a4.72845,4.72845,0,0,1-.31377,3.97724l-9.8812,17.49543Z" transform="translate(-470.9516)"/><path class="cls-21" d="M780.7185,294.38s1.50252,9.6205-2.85478,13.231,12.47972,3.58835,12.47972,3.58835l6.01446-5.56371s-6.916-6.46523-4.81247-11.27327Z" transform="translate(-470.9516)"/><path class="cls-16" d="M780.418,305.49093s6.46523,4.81247,12.926-.601l10.522,21.79969-.601,26.60773s-21.7997,11.27327-30.81918,4.3617-1.50252-10.522-1.50252-10.522l-2.10352-20.443,2.25376-13.231s4.05678-6.315,4.3617-6.315S780.418,305.49093,780.418,305.49093Z" transform="translate(-470.9516)"/><path class="cls-22" d="M780.418,305.19043s6.46523,4.8213,12.93045-.601l10.522,21.79969-.601,26.60773s-21.7997,11.27327-30.81918,4.3617-1.50252-10.522-1.50252-10.522l-2.10352-20.443,2.25376-13.231s4.05678-6.315,4.3617-6.315S780.418,305.19043,780.418,305.19043Z" transform="translate(-470.9516)"/><path class="cls-16" d="M780.418,302.88685s-6.12937,3.49113-12.78461,3.31879a4.71081,4.71081,0,0,0-3.39833,1.29923c-1.89581,1.82069-5.2146,4.702-7.26952,4.702-.44192,0-13.231,2.55427-13.231,2.55427l-3.38065-3.38065s-5.03783,9.84588-7.44186,9.39513l4.3617,5.714s8.26824,3.606,19.09076-.75126h6.315l3.30552,10.22151s-1.65276,13.832-3.005,16.837.44192,8.86925.44192,8.86925l11.87427-.44192s.601-5.86421,1.50252-6.62873-3.15528-26.60773-3.15528-26.60773-2.70452-14.58321,7.21649-19.842Z" transform="translate(-470.9516)"/><path class="cls-16" d="M775.94139,356.13887a39.2453,39.2453,0,0,0-.93244,5.4223l-9.09021.34469c1.21527-2.54985,2.0284-4.1054,2.0284-4.1054Z" transform="translate(-470.9516)"/><path class="cls-16" d="M739.98273,312.70741l-5.26322,8.39639-.44192-1.49368c1.93117-1.91791,4.19377-5.92609,5.09529-7.59653A8.90956,8.90956,0,0,0,739.98273,312.70741Z" transform="translate(-470.9516)"/><path class="cls-19" d="M780.418,302.89129s-6.43429,3.49113-13.08511,3.31879a4.71081,4.71081,0,0,0-3.39833,1.29923c-1.89581,1.82069-5.2146,4.702-7.26952,4.702-.44192,0-13.231,2.55427-13.231,2.55427l-3.39391-3.38509s-5.03783,9.84588-7.44186,9.39513l4.3617,5.714s8.26824,3.606,19.09074-.75126h6.315l3.30555,10.2171s-1.65276,13.832-3.005,16.837.44192,8.86925.44192,8.86925l11.87427-.44192s.601-5.86421,1.50252-6.62873-3.15528-26.60773-3.15528-26.60773-2.70452-14.58321,7.21649-19.842Z" transform="translate(-470.9516)"/><path class="cls-16" d="M793.34845,302.03073a29.25339,29.25339,0,0,0,14.32247,5.2146,4.3529,4.3529,0,0,1,2.45263.95012,23.73954,23.73954,0,0,1,5.17484,6.18682c3.30552,5.41347,11.42351,4.81247,11.42351,4.81247s7.8926-2.47914,8.34337-4.41916c0,0,.22538,10.606,5.18808,8.04287l-6.52707,7.5214a4.60482,4.60482,0,0,1-3.29228,1.58648,48.39234,48.39234,0,0,1-10.3099-.57007c-5.41347-1.05176-9.32-3.606-12.17477-1.35226,0,0-3.75628,11.724-1.202,15.93547s7.07065,11.27327,4.9627,13.0807-4.6622,1.65276-8.86925-2.70452-4.6622-11.724-4.6622-11.724l1.05176-18.94049s-4.05678-14.28271-7.95448-17.13748Z" transform="translate(-470.9516)"/><path class="cls-16" d="M840.84995,322.62841l-6.54477,7.55233a4.60032,4.60032,0,0,1-1.57764,1.1755h0a4.58256,4.58256,0,0,1-1.70579.40214,47.81851,47.81851,0,0,1-10.3099-.57007c-5.06436-.98548-8.8118-3.28343-11.61355-1.73231a4.11024,4.11024,0,0,0-.56566.37563s-3.75628,11.724-1.202,15.93547,7.07065,11.27327,4.9627,13.0807a4.86094,4.86094,0,0,1-1.17548.76452c-1.89141.85289-4.238.1149-7.69374-3.469-4.207-4.3617-4.6622-11.724-4.6622-11.724l1.05176-18.94049s-4.05678-14.28271-7.95448-17.13748l1.71906-6.16473a31.20912,31.20912,0,0,0,14.40644,5.06435,4.3529,4.3529,0,0,1,2.45263.95012,23.75734,23.75734,0,0,1,5.17484,6.18682c3.30552,5.41347,11.42351,4.81247,11.42351,4.81247a43.86811,43.86811,0,0,0,5.68745-2.26261h0a8.66916,8.66916,0,0,0,2.65149-1.76766,1.32572,1.32572,0,0,0,.28726-.5303S835.89167,325.18268,840.84995,322.62841Z" transform="translate(-470.9516)"/><path class="cls-19" d="M840.71718,322.77867l-6.54034,7.56117a4.60046,4.60046,0,0,1-1.27272,1.02525h0a4.5869,4.5869,0,0,1-2.00629.55239,47.81851,47.81851,0,0,1-10.3099-.57007c-4.88316-.95012-8.54666-3.12435-11.30863-1.88256a4.08753,4.08753,0,0,0-.88383.52588s-3.75628,11.724-1.202,15.93547,7.07065,11.27327,4.9627,13.0807a5.214,5.214,0,0,1-.88383.61427c-1.94444,1.07385-4.34846.44192-7.99426-3.31879-4.207-4.3617-4.6622-11.724-4.6622-11.724l1.05176-18.94051s-4.05678-14.28271-7.95448-17.13748l1.803-6.46523.21653.15025a31.20912,31.20912,0,0,0,14.40644,5.06435,4.3529,4.3529,0,0,1,2.45263.95012,23.75734,23.75734,0,0,1,5.17484,6.18682c3.30552,5.41347,11.42351,4.81247,11.42351,4.81247a43.86813,43.86813,0,0,0,5.68745-2.26261h0c1.36553-.69822,2.47914-1.46274,2.65149-2.161v.38C835.66166,316.98073,836.32454,325.03685,840.71718,322.77867Z" transform="translate(-470.9516)"/><path class="cls-16" d="M791.678,294.80423H780.63011a27.03719,27.03719,0,0,1,.20769,5.303,11.35722,11.35722,0,0,0,11.6754.83964C791.45264,298.98474,790.80744,296.75749,791.678,294.80423Z" transform="translate(-470.9516)"/><circle class="cls-21" cx="316.38238" cy="290.90772" r="10.97276"/><path class="cls-16" d="M785.05369,288.95445a11.71373,11.71373,0,0,1,3.65465-.33586c1.09594.221,2.0284.97663,3.12435,1.20643,2.11237.44192,4.07445-1.11362,5.66978-2.5631l3.44694-3.1376a7.035,7.035,0,0,0,1.94444-2.37751,2.386,2.386,0,0,0-.58333-2.81058c-1.25945-.88383-3.42927,0-4.33961-1.255a6.55047,6.55047,0,0,1-.56124-2.00188,3.51782,3.51782,0,0,0-3.38506-2.10794,14.9747,14.9747,0,0,0-4.14517.88383,23.86335,23.86335,0,0,1-8.83831.84405,5.64764,5.64764,0,0,0-2.41727.084,3.38069,3.38069,0,0,0-1.96211,2.32889c-.68054,2.404.4817,6.27962,1.64834,8.43174S782.72481,289.2417,785.05369,288.95445Z" transform="translate(-470.9516)"/><path class="cls-20" d="M785.05369,288.654a11.71373,11.71373,0,0,1,3.65465-.33586c1.09594.221,2.0284.97663,3.12435,1.20643,2.11237.44192,4.07445-1.11362,5.66978-2.5631l3.44694-3.1376a7.035,7.035,0,0,0,1.94444-2.37751,2.386,2.386,0,0,0-.58333-2.81058c-1.25945-.88383-3.42927,0-4.33961-1.255a6.55047,6.55047,0,0,1-.56124-2.00188,3.51782,3.51782,0,0,0-3.38506-2.10794,14.9747,14.9747,0,0,0-4.14517.88383,23.86335,23.86335,0,0,1-8.83831.84406,5.64764,5.64764,0,0,0-2.41727.084,3.38069,3.38069,0,0,0-1.96211,2.3289c-.68054,2.404.4817,6.27962,1.64834,8.43174S782.72481,288.91909,785.05369,288.654Z" transform="translate(-470.9516)"/><path class="cls-16" d="M765.91433,336.08474a6.19557,6.19557,0,0,1,3.606,1.803,6.47778,6.47778,0,0,0,3.30552,1.95327" transform="translate(-470.9516)"/><path class="cls-16" d="M744.26489,316.23831s1.96211,4.37938.75126,4.8213-.75126,3.606-.75126,3.606" transform="translate(-470.9516)"/><g class="cls-18"><path d="M744.941,314.69485s12.77578-2.55427,13.2177-2.55427c2.05931,0,5.37368-2.88128,7.26952-4.702a4.64,4.64,0,0,1,2.05931-1.14456H767.324a4.71081,4.71081,0,0,0-3.39833,1.29923c-1.89581,1.82069-5.2146,4.702-7.26952,4.702-.358,0-8.53339,1.62184-11.85218,2.28029Z" transform="translate(-470.9516)"/><path d="M780.28963,303.573v-.56123a31.89779,31.89779,0,0,1-9.79284,3.13318A30.26251,30.26251,0,0,0,780.28963,303.573Z" transform="translate(-470.9516)"/><path d="M764.63718,361.6363s-1.803-5.86421-.44192-8.86925,3.005-16.837,3.005-16.837l-3.29667-10.19176H757.571l-.38446.44192H762.379l3.29228,9.90451s-1.65276,13.832-3.005,16.837.44192,8.86925.44192,8.86925l11.87847-.44192v-.0928Z" transform="translate(-470.9516)"/></g><g class="cls-18"><path d="M812.13871,356.60288a5.214,5.214,0,0,1-.88383.61427c-1.94444,1.07385-4.34846.44192-7.99426-3.31879-3.34088-3.46019-4.3131-8.83831-4.57381-10.87553l-.08839,1.55554s.44192,7.36674,4.6622,11.724c3.6458,3.774,6.04982,4.39264,7.99426,3.31879a5.214,5.214,0,0,0,.88383-.61427c.63194-.54356.6673-1.56438.33586-2.8371A1.392,1.392,0,0,1,812.13871,356.60288Z" transform="translate(-470.9516)"/><path d="M838.42383,323.004l-4.25565,4.91852a4.60046,4.60046,0,0,1-1.27272,1.02525h0a4.5869,4.5869,0,0,1-2.00629.55239,47.8185,47.8185,0,0,1-10.3099-.57007c-4.88316-.95012-8.54666-3.12435-11.30863-1.88256a4.08754,4.08754,0,0,0-.88383.52588s-2.42611,7.57444-2.05492,12.73159a49.71774,49.71774,0,0,1,2.05492-10.32756,4.08754,4.08754,0,0,1,.88383-.52588c2.7664-1.24178,6.42544.93244,11.30863,1.88256a48.37983,48.37983,0,0,0,10.3099.57007,4.58708,4.58708,0,0,0,2.00629-.55239h0a4.60017,4.60017,0,0,0,1.27272-1.012l6.54477-7.55233A2.57636,2.57636,0,0,1,838.42383,323.004Z" transform="translate(-470.9516)"/></g><path class="cls-23" d="M646.23918,377.13428a.34029.34029,0,0,0,.40214.053A1.37,1.37,0,0,1,646.23918,377.13428Z" transform="translate(-470.9516)"/><path class="cls-24" d="M691.22164,303.71567c-.79873-.23074-1.93916-.60793-3.31032-1.08718a17.35936,17.35936,0,0,0,3.06627-6.17692l-.11538.04438c.03994-.13756.07987-.27068.11538-.41268-2.6314,1.06942-5.54235-.74106-7.39721-3.06627s-3.10621-5.20955-5.13855-7.34839a23.51834,23.51834,0,0,0-2.72459-2.34741,3.76705,3.76705,0,0,0-1.97466-.96736c-1.1848-.03549-2.11222,1.12711-3.25264,1.46879a4.43748,4.43748,0,0,1-2.26752-.08431c-2.942-.67449-5.76867-1.9214-8.77281-2.24978a10.28148,10.28148,0,0,0-4.76137.53693c-1.50873.57243-2.19654,1.71284-3.41683,2.627-1.33123.98067-3.93156.95849-5.48024,1.13154a39.27033,39.27033,0,0,1-5.66217.23518,13.25479,13.25479,0,0,0-3.25708.11981c-2.24978.49255-4.05582,2.28085-5.742,3.99369a2.95974,2.95974,0,0,0-.94961,1.48654,1.87718,1.87718,0,0,0,0,.49255,3.19946,3.19946,0,0,0,.22631,1.309,17.30613,17.30613,0,0,0,2.17878,4.33537,12.52027,12.52027,0,0,1,1.88148,3.07958,5.97707,5.97707,0,0,1,.28843,1.775,12.90885,12.90885,0,0,1-.19968,1.90809,23.96206,23.96206,0,0,1-1.45991,5.08087,9.23,9.23,0,0,0-.852,2.66246,4.24228,4.24228,0,0,0,0,.568c-.11094,2.92871,2.8444,5.03649,3.41683,7.94745a4.74855,4.74855,0,0,1,.08431.73217,4.95858,4.95858,0,0,1-2.62253,4.29544c.13312.05325.27068.09762.40824.142a3.70263,3.70263,0,0,1-.40824.22187,8.28128,8.28128,0,0,0,.852.27512,19.791,19.791,0,0,0-4.30875,5.32492c-5.13411,9.55827-39.90587,28.27982-39.90587,28.27982l.51474.29287-.41712.27068c-3.00858,2.00129-10.06855,7.83652-3.68751,15.216,0,0,4.98324-7.86314,8.47551-11.2134.15531-.15087.31062-.28843.44374-.41712a1.02059,1.02059,0,0,1,.13312.80762l22.86168-12.84639s8.12495-5.6888,10.39248-6.97121a18.70365,18.70365,0,0,1,5.15186-2.21872l-.26625.11094a10.43693,10.43693,0,0,1,2.62253-.37274c4.04694.06213,8.43113,3.02634,9.8733,14.76335,1.93472,15.71739,1.03836,18.55292.41712,18.939a1.14076,1.14076,0,0,1-.22631-.03994.386.386,0,0,0,.06213.04438,1.18916,1.18916,0,0,1-.2485-.04438.355.355,0,0,0,.33725.07987.315.315,0,0,0,.25294-.03107h0a2.6245,2.6245,0,0,0,.30618,0,3.25962,3.25962,0,0,1-.03107.44374c-.03107,0-.18194.08431,0,.09318h0c-.04881.88749-.04438,1.85042,0,2.85771-2.01016.11094-4.02032.23074-5.76867.33725l.15531-.8298.071-.37274c1.54423-.12425,3.00858-.57686,3.18165-1.82822.37718-2.75122-3.39908-4.22-6.61178-4.40194s-22.48006,1.10049-22.48006,1.10049-2.88877,3.74076,6.27454,4.88118q.40825.213.84755.44374a101.85081,101.85081,0,0,1,10.79184,7.66789l.32393.25737-1.04726.852c5.66661,1.28243,11.14685,22.93711,14.16874,32.837s9.63367,9.54049,15.11391,8.0717c5.13412-1.37559,5.76867-16.2854,5.853-18.158v-.19081l9.13224,11.28.69224.85642q.39937.20857.78986.3905c6.91352,3.28813,14.55036-3.01745,12.38045-10.2061-2.19654-7.24634-5.60449-17.96274-7.87645-22.49337-1.90366-3.794-4.362-10.09517-5.853-14.04006a4.73991,4.73991,0,0,0,.56355-.27068s-.03549-.17749-.09318-.50143l.09318-.04881s-2.21872-11.41309-2.31634-19.52472v-.70555c1.65073-.37718,2.698-.52361,2.698-.52361l.03107-.355-.19081.03994.91855-10.51229s3.37245-7.17534.78986-10.16173a6.27454,6.27454,0,0,1-1.51317-3.10621c-.44374-2.74677,0-7.33064,6.01272-11.138,9.2565-5.87073,12.86857-10.64985,12.86857-10.64985S696.88825,305.38415,691.22164,303.71567Zm-18.31748,7.48039v-4.839c1.71021-.084,3.45578.1149,5.17483,0a13.09392,13.09392,0,0,0,2.49682-.41983l.4154.28724A45.51714,45.51714,0,0,1,672.90415,311.19606Zm-26.07722,75.85039c.67613.46843,1.35668.95454,2.024,1.44507.4154,2.38635.78219,4.07005.8087,4.18935A33.082,33.082,0,0,0,646.82694,387.04644Z" transform="translate(-470.9516)"/><path class="cls-25" d="M661.43666,383.06921l-.39772,2.161-.30492,1.65276-.55682,3.02271L654.777,393.684s-.48611-.4154-1.2904-1.07385a94.6558,94.6558,0,0,0-10.279-7.51256,11.49022,11.49022,0,0,0-2.82384-1.30366Z" transform="translate(-470.9516)"/><path class="cls-16" d="M661.43666,382.97521l-.39772,2.161a16.793,16.793,0,0,1-3.56184-.18119l-12.599.18119c-.59659-.03535-1.15339-.084-1.67486-.137a11.49021,11.49021,0,0,0-2.82384-1.30366Z" transform="translate(-470.9516)"/><path class="cls-26" d="M657.4771,384.77823s6.30172,1.07828,6.65967-1.62184-3.23925-4.12307-6.29289-4.32634-21.42406,1.08711-21.42406,1.08711-3.23924,4.31751,8.45826,5.03783Z" transform="translate(-470.9516)"/><path class="cls-16" d="M661.43666,383.06921l-.39772,2.161-.30492,1.65276-.55682,3.02271L654.777,393.684s-.48611-.4154-1.2904-1.07385a94.6558,94.6558,0,0,0-10.279-7.51256,11.49022,11.49022,0,0,0-2.82384-1.30366Z" transform="translate(-470.9516)"/><path class="cls-16" d="M661.43666,382.97521l-.39772,2.161a16.793,16.793,0,0,1-3.56184-.18119l-12.599.18119c-.59659-.03535-1.15339-.084-1.67486-.137a11.49021,11.49021,0,0,0-2.82384-1.30366Z" transform="translate(-470.9516)"/><path class="cls-16" d="M657.4771,384.77823s6.30172,1.07828,6.65967-1.62184-3.23925-4.12307-6.29289-4.32634-21.42406,1.08711-21.42406,1.08711-3.23924,4.31751,8.45826,5.03783Z" transform="translate(-470.9516)"/><rect class="cls-27" x="167.04123" y="296.12997" width="33.14366" height="38.88857"/><rect class="cls-16" x="167.04123" y="296.12997" width="33.14366" height="38.88857"/><path class="cls-25" d="M599.70106,362.82063a5.276,5.276,0,0,0-2.00629,1.41855c-3.32762,3.28785-8.0738,10.99927-8.0738,10.99927-6.08076-7.23858.64962-12.96138,3.53532-14.92791.69823-.47726,1.16666-.73358,1.16666-.73358Z" transform="translate(-470.9516)"/><path class="cls-25" d="M661.07871,308.28384s1.62184,11.33955,7.19881,14.03965-7.19881,7.73795-7.19881,7.73795l-17.46009-6.47848s9.89891-3.23923,7.91913-12.7802Z" transform="translate(-470.9516)"/><path class="cls-25" d="M642.37685,376.49792l-.39772,2.161-.30492,1.65276-.55681,3.0227-5.40021,3.77837s-.48611-.4154-1.29039-1.07385a94.65631,94.65631,0,0,0-10.279-7.51256,11.49022,11.49022,0,0,0-2.82384-1.30366Z" transform="translate(-470.9516)"/><path class="cls-16" d="M642.37685,376.34647l-.39772,2.161a16.793,16.793,0,0,1-3.56184-.18119l-12.599.18119c-.59659-.03535-1.1534-.084-1.67486-.137a11.49021,11.49021,0,0,0-2.82384-1.30366Z" transform="translate(-470.9516)"/><path class="cls-26" d="M638.39961,378.1495s6.30172,1.07828,6.65967-1.62184-3.23924-4.14075-6.30171-4.31751-21.41965,1.07828-21.41965,1.07828-3.23924,4.31751,8.45826,5.03783Z" transform="translate(-470.9516)"/><path class="cls-16" d="M641.65652,380.31607l-.55681,3.0227-5.40021,3.77837s-.48611-.4154-1.29039-1.07385l7.14136-5.85538Z" transform="translate(-470.9516)"/><path class="cls-26" d="M677.26586,421.47931q-.37121-.18117-.75126-.38446l-.65845-.83965-8.69689-11.04789v.19444c-.05745,1.834-.685,16.46135-5.57255,17.80919-5.219,1.44065-11.52074,1.7986-14.39762-7.91912s-8.10031-30.95618-13.50052-32.21564l8.00751-6.57128s5.303,6.18682,7.46838,12.14384c-.07954-.38-3.743-17.4866-.72032-20.5093h26.27629s4.04795,11.55166,6.84086,17.2789c2.16538,4.44567,5.41347,14.95443,7.51256,22.06484A8.452,8.452,0,0,1,677.26586,421.47931Z" transform="translate(-470.9516)"/><path class="cls-16" d="M676.55459,375.41522c-4.05237,2.3996-21.8704,1.423-27.67717,1.03408l-1.57764-.1149c-.17235,0,.02651-.09722.02651-.09722l.16351-1.63509,4.31751-10.97718L674.93718,350.226a20.01472,20.01472,0,0,0-.58774,6.04982C674.46433,364.22151,676.55459,375.41522,676.55459,375.41522Z" transform="translate(-470.9516)"/><path class="cls-28" d="M676.55459,374.75559c-4.05237,2.3996-21.8704,1.423-27.67717,1.03408l-1.57764-.1149H647.039l.28724-.07513,1.423-.37563,3.05806-12.24107,23.12986-13.40772a20.01471,20.01471,0,0,0-.58774,6.04982C674.46433,363.55745,676.55459,374.75559,676.55459,374.75559Z" transform="translate(-470.9516)"/><path class="cls-16" d="M674.34944,355.7323c-4.702,1.0827-15.05164,4.26891-19.02888,11.93172-2.65149,5.11738-4.86107,7.3137-6.43871,8.23289l-1.57764-.1149.02651-.09722,1.423-.37563,3.05806-12.24107,23.12986-13.40772A20.01651,20.01651,0,0,0,674.34944,355.7323Z" transform="translate(-470.9516)"/><path class="cls-16" d="M594.30086,359.5814l5.40021,3.23923a5.276,5.276,0,0,0-2.00629,1.41855c-.44192-1.32575-3.279-3.14644-4.56057-3.92421C593.83242,359.8377,594.30086,359.5814,594.30086,359.5814Z" transform="translate(-470.9516)"/><path class="cls-16" d="M646.35409,376.00739a.3226.3226,0,0,1-.38-.0486A1.29936,1.29936,0,0,0,646.35409,376.00739Z" transform="translate(-470.9516)"/><path class="cls-29" d="M658.55537,321.60318a10.70656,10.70656,0,0,1-8.28149-3.05806s-14.39761,4.14075-19.25868,13.50051S593.037,359.76257,593.037,359.76257s5.7449,3.23923,5.219,4.86107l21.7776-12.599s7.73794-5.5814,9.89891-6.84086,14.03966-8.99739,16.55858,12.05988,0,18.56045,0,18.56045,3.60161,1.25946,8.83831-8.83831S676.749,354.548,676.749,354.548l.88383-10.606s3.21272-7.0353.75126-9.96961a6.231,6.231,0,0,1-1.44065-3.0448c-.411-2.69569,0-7.19,5.7449-10.92415,8.83831-5.7449,12.24107-10.438,12.24107-10.438s.18119-3.42042-5.219-5.03783-27.359-10.438-27.359-10.438l-.72032,3.05806L678.91,309.38862s-8.63944,7.01762-15.467,6.84086C663.41644,316.19854,664.6759,321.422,658.55537,321.60318Z" transform="translate(-470.9516)"/><path class="cls-16" d="M661.85627,313.22a35.35339,35.35339,0,0,1-.99431-4.41916l-9.541,2.53659a10.51766,10.51766,0,0,1-.21653,5.50185,10.26126,10.26126,0,0,0,10.7518-3.62371Z" transform="translate(-470.9516)"/><circle class="cls-25" cx="183.01669" cy="306.39244" r="10.26128"/><path class="cls-16" d="M659.42153,283.05488c2.84594.3226,5.55488,1.5467,8.35662,2.20958a4.12744,4.12744,0,0,0,2.161.084c1.08711-.33586,1.97094-1.476,3.09341-1.44065a3.25186,3.25186,0,0,1,1.88256.95012,22.58655,22.58655,0,0,1,2.594,2.30238c1.93117,2.0991,3.13318,4.92736,4.89642,7.20764s4.54289,4.05678,7.04856,3.00944c-1.70138,6.62873-7.28718,11.6975-13.32375,12.10848-2.40845.16351-4.86107-.33586-7.20764.37121a6.31053,6.31053,0,0,1-1.82069.44192c-1.32575,0-2.4217-1.23295-3.26134-2.43054-1.96211-2.81942-3.53532-6.01889-5.7449-8.58642a4.69625,4.69625,0,0,0-2.62056-1.81186,4.85261,4.85261,0,0,0-2.899.81312,13.76294,13.76294,0,0,0-4.24239,2.94316,5.883,5.883,0,0,0-1.4318,5.17483,12.63912,12.63912,0,0,1,.88383,2.89454c0,1.63509-1.423,2.83268-1.71021,4.41916a17.05718,17.05718,0,0,0-.07071,2.01513,8.2202,8.2202,0,0,1-3.0448,5.34276,3.843,3.843,0,0,0-1.392,1.93117c-.1149.56123,0,1.15782-.07512,1.72789-.21654,1.41855-1.63067,2.13445-2.88129,2.32006a8.35216,8.35216,0,0,1-4.32193-.51262,4.9679,4.9679,0,0,0,2.41728-5.303c-.55681-2.92106-3.49113-5.01574-3.24366-7.99425a9.24923,9.24923,0,0,1,.81312-2.6294,24.06222,24.06222,0,0,0,1.38761-4.98481,8.445,8.445,0,0,0-.084-3.97724,12.5564,12.5564,0,0,0-1.79418-3.0227,17.15518,17.15518,0,0,1-2.077-4.25565,2.983,2.983,0,0,1-.19886-1.40529,2.91218,2.91218,0,0,1,.88383-1.45832c1.60857-1.6837,3.332-3.4381,5.47092-3.92421a12.26737,12.26737,0,0,1,3.09341-.11931,36.34307,36.34307,0,0,0,5.39579-.22979c1.476-.17235,3.97724-.15025,5.22344-1.11362,1.16224-.88383,1.82069-2.01071,3.25692-2.57636A9.5321,9.5321,0,0,1,659.42153,283.05488Z" transform="translate(-470.9516)"/><path class="cls-16" d="M665.12666,389.00855s5.93935,11.69749,4.14075,15.29911" transform="translate(-470.9516)"/><path class="cls-16" d="M675.85615,420.29616l-8.69689-11.04789v.19444s-.50379-3.57068,1.15339-2.36866c3.62812,2.625,9.4349,6.92923,9.55863,7.67165S676.69578,418.46663,675.85615,420.29616Z" transform="translate(-470.9516)"/><g class="cls-18"><path d="M663.58879,316.19854s.73358,3.04038-1.6395,4.56057a4.07627,4.07627,0,0,0,3.70325-4.7064A11.51665,11.51665,0,0,1,663.58879,316.19854Z" transform="translate(-470.9516)"/><path d="M595.20236,359.04226s33.11715-18.35717,37.97822-27.71694c3.48671-6.71712,11.88752-10.743,16.35087-12.48411-3.25692,1.09153-14.21642,5.27647-18.33508,13.20444-4.86107,9.35977-37.97822,27.71694-37.97822,27.71694Z" transform="translate(-470.9516)"/><path d="M670.03191,314.77115a39.442,39.442,0,0,0,11.02137-6.12937l-17.2789-12.24107.39331-1.67927-1.65276-.66287-.72032,3.05806,17.2789,12.24107A41.69471,41.69471,0,0,1,670.03191,314.77115Z" transform="translate(-470.9516)"/><path d="M670.14239,356.24935a42.81393,42.81393,0,0,1,6.77456-1.71021l.03094-.34912A45.8542,45.8542,0,0,0,670.14239,356.24935Z" transform="translate(-470.9516)"/><path d="M649.2,375.23285h-.15908a.3226.3226,0,0,1-.38-.0486,1.3262,1.3262,0,0,0,.38.0486c.59217-.34469,1.48042-3.03153-.38-18.587-1.98862-16.60719-9.79285-15.30354-14.06617-13.39446,4.36613-1.202,10.37617-.16351,12.08639,14.11478,1.86046,15.55543.97222,18.2467.38,18.587A3.97715,3.97715,0,0,0,649.2,375.23285Z" transform="translate(-470.9516)"/><path d="M647.06115,375.83063a1.3262,1.3262,0,0,1-.38-.0486A.3226.3226,0,0,0,647.06115,375.83063Z" transform="translate(-470.9516)"/></g><path class="cls-27" d="M659.42153,282.70576c2.84594.3226,5.55488,1.5467,8.35662,2.20958a4.12744,4.12744,0,0,0,2.161.084c1.08711-.33586,1.97094-1.476,3.09341-1.44065a3.25186,3.25186,0,0,1,1.88256.95012,22.58656,22.58656,0,0,1,2.594,2.30238c1.93117,2.0991,3.13318,4.92736,4.89642,7.20764s4.54289,4.05678,7.04856,3.00944c-1.70138,6.62873-7.28718,11.6975-13.32375,12.10848-2.40845.16351-4.86107-.33586-7.20764.37121a6.31053,6.31053,0,0,1-1.82069.44192c-1.32575,0-2.4217-1.23295-3.26134-2.43054-1.96211-2.81942-3.53532-6.01889-5.7449-8.58642a4.69625,4.69625,0,0,0-2.62056-1.81186,4.85261,4.85261,0,0,0-2.899.81312,13.76294,13.76294,0,0,0-4.24239,2.94316,5.883,5.883,0,0,0-1.4318,5.17483,12.63912,12.63912,0,0,1,.88383,2.89454c0,1.63509-1.423,2.83268-1.71021,4.41916a17.05718,17.05718,0,0,0-.07071,2.01513,8.2202,8.2202,0,0,1-3.0448,5.34276,3.843,3.843,0,0,0-1.392,1.93117c-.1149.56123,0,1.15782-.07512,1.72789-.21654,1.41854-1.63067,2.13445-2.88129,2.32006a8.35216,8.35216,0,0,1-4.32193-.51262,4.9679,4.9679,0,0,0,2.41728-5.303c-.55681-2.92106-3.49113-5.01574-3.24366-7.99425a9.24923,9.24923,0,0,1,.81312-2.6294,24.06223,24.06223,0,0,0,1.38761-4.98481,8.445,8.445,0,0,0-.084-3.97724,12.5564,12.5564,0,0,0-1.79418-3.0227,17.15517,17.15517,0,0,1-2.077-4.25565,2.983,2.983,0,0,1-.19886-1.40529,2.91218,2.91218,0,0,1,.88383-1.45832c1.60857-1.6837,3.332-3.4381,5.47092-3.92421a12.26737,12.26737,0,0,1,3.09341-.11931,36.34306,36.34306,0,0,0,5.39579-.22979c1.476-.17235,3.97724-.15025,5.22344-1.11362,1.16224-.88383,1.82069-2.01071,3.25692-2.57636A9.5321,9.5321,0,0,1,659.42153,282.70576Z" transform="translate(-470.9516)"/><path class="cls-30" d="M952.19477,259.88059v-.371c.23-.053.23-.1149.20349-.05864h-.20349v-.47608c-.044-4.09656-5.70932-12.81555-7.98077-10.27012-1.98862,2.23609,1.012,7.89261,2.541,10.438l.137.2298-.07512-.04861s-6.32381,18.861-7.07065,19.59453-5.95259,15.56427-12.81555,17.23471c-1.35668.3226-2.48356.61427-3.42927.88383l.07512-.2519A27.34054,27.34054,0,0,0,924.783,292.366c.221-1.60858,0-3.55741-.81314-4.33961-.39773-.38889-.88383-.44192-1.21084-1.06059a4.89606,4.89606,0,0,1-.33586-1.70138l-.58333-7.15019.40655-.12374c2.457-.78661,4.839-2.65149,5.11739-5.16157a2.65306,2.65306,0,0,1-.26074.084,4.47825,4.47825,0,0,0,.07512-.44192c-2.06374.81312-3.97724-1.32575-5.96586-2.2847-3.27458-1.60416-7.01762-.09281-10.39829.274-3.8314.41982-7.46838-1.17107-11.38375-.88383-2.13.16351-4.4987,1.60857-4.38379,3.70767.0663,1.1534.88383,2.13,1.21969,3.23482.84847,2.67358-1.03849,5.356-2.69128,7.6363a11.36761,11.36761,0,0,0-2.31563,5.082c-3.80489-3.97724-7.91912-8.57316-8.39639-10.301l-11.00805-18.861s-.26074.27841-.68054.68939c-.0663-.20328-.14584-.44192-.23423-.68055-1.40529-3.93747-5.38253-13.47842-10.4248-11.72844s2.09025,11.52957,5.19251,15.42727l.44192.53914a1.3964,1.3964,0,0,1-.78662-.03535L877.63941,285.344s2.23167,4.03027,4.27774,5.12622c0,0,15.25051,19.22775,15.43611,23.07241s6.85854,14.10151,6.85854,14.10151l-1.67485,19.748h.64518a1.21758,1.21758,0,0,0-.57006.4431c-2.89454,3.20831-6.59337,10.08452-1.53786,21.7776,7.43745,17.23471,8.55548,23.98719,8.55548,23.98719s-14.1413.73357-16.92536,1.28157c-2.4659.4861-12.051.82638-14.24293.88383-.7822-.91034-3.09341-2.92548-6.21333,0-3.90655,3.66347-6.695,15.909-6.695,15.909s-1.48925,9.89007,3.53532,7.32254c0,0,5.95259-8.24174,7.623-8.60851.8308-.18117,1.71021-1.40529,2.38193-2.58519l.03536.02209h0c.03978,0,.20329-.08839.46843-.19444h0c1.23736-.49052,4.64454-1.67045,7.33139-1.0827,1.47159.32259,7.78213.39773,14.39762.38-1.49368,3.5795-4.17168,12.81555-4.17168,12.81555s-1.11809,8.6129,2.594,8.25938c2.65149-.26074,6.71712-7.03529,8.83831-10.902,1.53786-1.12688,5.94377-5.166,9.20068-4.86107l21.94551-8.42291s5.20578-2.9299,2.41727-12.63438c-2.20958-7.71584-8.498-23.50991-10.98159-29.66579h0l-.07512-.15908c-.601-1.48925-.96337-2.37308-.96337-2.37308h0a36.32092,36.32092,0,0,1-1.993-8.71015c-.02209-.23421-.03978-.47285-.05745-.70707a3.90671,3.90671,0,0,0,.86174-.49937s-2.04607-20.69049,0-22.89122h0l-.16815-.03977h0v-.02651h0l.23888-.04419h0l.07954-.10165h0l.09721-.12374h0c.11048-.14583.243-.327.39331-.548h0a15.16927,15.16927,0,0,0,2.72661-10.25245h0q-.03977-.30051-.09721-.60542h0a12.62545,12.62545,0,0,0-1.27272-3.58835c-.08839-.46832-.398-1.41855-.398-1.41855v-1.255a2.4823,2.4823,0,0,0,.44192-.63636v-.07954l-.44192-.243v-.10165l.44192-.23864v-.66263q.03946-.13139.0876-.25841l.03943-.10074.0876-.21024.04379-.10511c.035-.07884.07445-.15767.11388-.23652l.03066-.0657q.07884-.14454.16644-.28469l.04817-.07446.14455-.20586.07007-.092.15329-.184.07007-.07884c.07884-.08322.15767-.16644.24528-.24527,2.39581-2.19,13.08723-18.33,13.08723-18.33s2.57979-3.631,2.57979-5.98737C948.09516,279.69977,952.65468,264.50142,952.19477,259.88059ZM923.46606,396.55648c-.26514-2.51008-.5303-5.62115-.77335-8.83831l4.207,6.558S926.502,396.27364,923.46606,396.55648Z" transform="translate(-470.9516)"/><path class="cls-31" d="M879.60152,395.16885s-2.51892-3.97724-6.30172-.358-6.47847,15.65706-6.47847,15.65706-1.44065,9.72214,3.42042,7.19879c0,0,5.7449-8.10032,7.38-8.45827s3.42042-4.86107,3.42042-4.86107Z" transform="translate(-470.9516)"/><path class="cls-31" d="M906.59815,404.88657s-3.42042-1.62182-4.4987-.358-4.6799,13.85846-4.6799,13.85846-1.07827,8.28149,2.51892,7.91912,9.89889-13.32816,9.89889-13.32816Z" transform="translate(-470.9516)"/><path class="cls-32" d="M906.59815,404.88657s-3.42042-1.62182-4.4987-.358-4.6799,13.85846-4.6799,13.85846-1.07827,8.28149,2.51892,7.91912,9.89889-13.32816,9.89889-13.32816Z" transform="translate(-470.9516)"/><path class="cls-33" d="M918.47684,380.40886l7.73795,12.05987s-.53912,2.7001-5.219,2.161L904.97633,404.7098s-1.392,12.272,3.058,11.15837c.72032-.18117,5.7449-5.40019,9.35977-5.03785l21.24288-8.28147s5.03785-2.8813,2.33772-12.41782-11.6268-31.65-11.6268-31.65l-14.11036,7.8926Z" transform="translate(-470.9516)"/><path class="cls-32" d="M918.47684,380.40886l7.73795,12.05987s-.53912,2.7001-5.219,2.161L904.97633,404.7098s-1.392,12.272,3.058,11.15837c.72032-.18117,5.7449-5.40019,9.35977-5.03785l21.24288-8.28147s5.03785-2.8813,2.33772-12.41782-11.6268-31.65-11.6268-31.65l-14.11036,7.8926Z" transform="translate(-470.9516)"/><path class="cls-33" d="M923.33791,398.2269c1.07827,6.84084-5.03785,7.38-5.03785,7.38s-27.54018.53912-30.77943-.18117-7.56117,1.25945-7.56117,1.25945c-5.5814-3.42042-1.07827-11.87869-1.07827-11.87869s11.52074-.358,14.22084-.88383,16.37739-1.27272,16.37739-1.27272-1.07827-6.65967-8.28149-23.5762c-4.892-11.4898-1.32575-18.25111,1.48925-21.402a11.852,11.852,0,0,1,2.47032-2.17423l22.14,1.07828a28.7256,28.7256,0,0,0,.12375,3.3453A35.62759,35.62759,0,0,0,930.36,360.969c-1.25945,0-9.35977,7.56117-9.35977,7.56117S922.25521,391.39048,923.33791,398.2269Z" transform="translate(-470.9516)"/><path class="cls-16" d="M880.65748,395.5268s11.52074-.358,14.22084-.88383,16.37739-1.25945,16.37739-1.25945-1.07828-6.65967-8.28149-23.5762c-4.892-11.4898-1.32575-18.25111,1.48925-21.402a11.852,11.852,0,0,1,2.47032-2.17423l20.51371.99873v-.64078l-22.14-1.07827a11.852,11.852,0,0,0-2.47032,2.17423c-2.80176,3.15528-6.38126,9.91216-1.48925,21.402,7.22088,16.90326,8.29031,23.56293,8.29031,23.56293s-13.69938.72032-16.37739,1.25945-14.22084.88383-14.22084.88383-4.4987,8.46269,1.07827,11.89639c0,0,.16793-.07954.44192-.19444C876.85257,402.68142,880.65748,395.5268,880.65748,395.5268Z" transform="translate(-470.9516)"/><rect class="cls-31" x="431.30671" y="279.33718" width="11.04789" height="28.28259"/><rect class="cls-16" x="431.30671" y="279.33718" width="11.04789" height="28.28259"/><path class="cls-31" d="M919.81583,275.29042c.38446.10606.81753.11931,1.07827.64962a3.977,3.977,0,0,1,.26074,1.32575l.70266,8.73226a4.861,4.861,0,0,0,.327,1.67044c.29608.59217.78662.66287,1.17109,1.04291.77335.76893.99873,2.69569.78662,4.26448a28.01946,28.01946,0,0,1-1.16666,4.33077,40.78174,40.78174,0,0,1-1.84278,6.03214c-.844,1.71463-2.37751,2.65149-3.36739,1.21084s-.85732-4.34845-1.04291-6.73038c-.30935-3.97724-1.86047-7.40651-1.96653-11.41026-.08839-3.23923.7822-6.26195,1.32575-9.33325.38889-2.10794.411-4.66663.97664-6.56245C917.53114,272.76709,918.43263,274.91038,919.81583,275.29042Z" transform="translate(-470.9516)"/><path class="cls-16" d="M919.81583,275.29042c.38446.10606.81753.11931,1.07827.64962a3.977,3.977,0,0,1,.26074,1.32575l.70266,8.73226a4.861,4.861,0,0,0,.327,1.67044c.29608.59217.78662.66287,1.17109,1.04291.77335.76893.99873,2.69569.78662,4.26448a28.01946,28.01946,0,0,1-1.16666,4.33077,40.78174,40.78174,0,0,1-1.84278,6.03214c-.844,1.71463-2.37751,2.65149-3.36739,1.21084s-.85732-4.34845-1.04291-6.73038c-.30935-3.97724-1.86047-7.40651-1.96653-11.41026-.08839-3.23923.7822-6.26195,1.32575-9.33325.38889-2.10794.411-4.66663.97664-6.56245C917.53114,272.76709,918.43263,274.91038,919.81583,275.29042Z" transform="translate(-470.9516)"/><path class="cls-34" d="M872.57947,262.877l-4.31752,3.60161s-.51261-.601-1.27714-1.57322c-3.0006-3.83141-9.89892-13.44307-5.02458-15.16212s8.72783,7.654,10.08894,11.52516C872.39388,262.2495,872.57947,262.877,872.57947,262.877Z" transform="translate(-470.9516)"/><path class="cls-34" d="M950.51572,261.61756c-1.7986,2.7001-4.31752,0-4.31752,0s-.32259-.48169-.77778-1.25946c-1.48041-2.50566-4.38379-8.06054-2.46147-10.26128,2.20958-2.5145,7.68492,6.0675,7.85285,10.09335A2.3952,2.3952,0,0,1,950.51572,261.61756Z" transform="translate(-470.9516)"/><path class="cls-34" d="M906.23578,290.59277s3.60162,11.52074,2.51892,14.93674,7.74234,7.39325,7.74234,7.39325h10.08009s3.60162-7.38,2.7001-9.541-8.63944-3.77837-8.63944-3.77837-4.4987,0-4.31752-12.05988Z" transform="translate(-470.9516)"/><path class="cls-16" d="M872.57947,262.877l-4.31752,3.60161s-.51261-.601-1.27714-1.57322c1.56879-.27841,4.00375-2.56753,5.06876-3.637C872.39388,262.2495,872.57947,262.877,872.57947,262.877Z" transform="translate(-470.9516)"/><path class="cls-16" d="M950.51572,261.61756c-1.7986,2.7001-4.31752,0-4.31752,0s-.32259-.48169-.77778-1.25946l.05745-.18119c1.16666.83522,4.79477.12374,5.33392,0A2.3952,2.3952,0,0,1,950.51572,261.61756Z" transform="translate(-470.9516)"/><path class="cls-16" d="M927.41236,349.91669c-5.56812,2.541-23.66015-1.9842-24.74727-2.25377a11.852,11.852,0,0,1,2.47032-2.17423l22.14,1.07827A28.72868,28.72868,0,0,0,927.41236,349.91669Z" transform="translate(-470.9516)"/><path class="cls-35" d="M908.57792,300.674s-4.31752,1.44065-10.438-4.14075c0,0-13.69938-13.50051-14.58321-16.73976l-10.606-18.56045s-4.4987,4.86107-6.30172,4.14075l11.87869,20.69932s2.161,3.97724,4.14075,5.03783c0,0,14.76,18.90072,14.93674,22.67911s6.65082,13.89825,6.65082,13.89825,2.161,16.37739-1.62182,19.25869c0,0,21.05729,5.40021,25.556,1.7986,0,0-1.97977-20.32811,0-22.49792,0,0,6.12052-7.19881,1.97977-15.11793,0,0-.88383-4.31751,1.44065-6.47848s12.78019-18.1804,12.78019-18.1804,2.51892-3.60161,2.51892-5.93935c0,0,4.6799-15.83825,3.97724-19.979,0,0-4.14075.88383-5.40019,0,0,0-6.12052,18.56045-6.84084,19.25867s-5.7449,15.29911-12.41782,16.92095-7.73795,2.33774-7.73795,2.33774,12.957,8.10031,6.65967,11.6975S908.57792,300.674,908.57792,300.674Z" transform="translate(-470.9516)"/><path class="cls-16" d="M916.75778,293.54595a34.39646,34.39646,0,0,1-.26074-5.113L906.41695,291.491a13.59207,13.59207,0,0,1,.63194,2.06816c1.15339.5082,2.70894,1.71021,4.04793,1.71021A9.17856,9.17856,0,0,0,916.75778,293.54595Z" transform="translate(-470.9516)"/><circle class="cls-34" cx="439.96405" cy="285.37493" r="9.35977"/><path class="cls-16" d="M899.77937,270.95523c-2.05931.15909-4.35728,1.58206-4.24238,3.6458.06187,1.13573.83965,2.09468,1.17991,3.1818.81753,2.6294-1.00316,5.26764-2.60289,7.51256s-3.09341,5.219-1.72348,7.59653a18.72905,18.72905,0,0,0,1.26387,1.64835c1.69254,2.28471,1.67045,5.36927,2.42169,8.11358a14.2341,14.2341,0,0,0,16.7221,10.16406A8.90027,8.90027,0,0,1,910.92,306.799c.10163-1.57322.60985-3.21714,0-4.67105-.78662-1.86931-3.09341-2.6073-4.28216-4.24239s-1.10921-3.90211-.53473-5.851,1.56879-3.75628,2.04607-5.7449a17.30859,17.30859,0,0,1,.44192-1.71906c.8308-2.35983,3.31437-3.72977,5.7449-4.31751s4.98482-.6231,7.3579-1.39645,4.6799-2.58521,4.95388-5.07319c-1.99747.79987-3.84909-1.286-5.77584-2.24493-3.173-1.57322-6.79224-.09281-10.06243.26957C907.08425,272.22353,903.54892,270.68124,899.77937,270.95523Z" transform="translate(-470.9516)"/><path class="cls-31" d="M899.5982,270.59728c-2.05931.15909-4.35728,1.58206-4.24238,3.6458.06187,1.13573.83965,2.09468,1.17991,3.1818.81753,2.6294-1.00316,5.26764-2.60289,7.51256s-3.09341,5.219-1.72348,7.59653a18.72905,18.72905,0,0,0,1.26387,1.64835c1.69254,2.28471,1.67045,5.36927,2.42169,8.11358A14.2341,14.2341,0,0,0,912.617,312.46a8.90027,8.90027,0,0,1-1.87814-6.01889c.10163-1.57322.60985-3.21714,0-4.67105-.78662-1.86931-3.09341-2.6073-4.28216-4.24239s-1.10921-3.90211-.53473-5.851,1.56879-3.75628,2.04607-5.7449a17.30859,17.30859,0,0,1,.44192-1.71906c.8308-2.35983,3.31437-3.72977,5.7449-4.31751s4.98482-.6231,7.3579-1.39645,4.6799-2.58521,4.95388-5.07319c-1.99747.79987-3.84909-1.286-5.77584-2.24493-3.173-1.57322-6.79224-.09281-10.06243.26957C906.91189,271.86116,903.38984,270.3012,899.5982,270.59728Z" transform="translate(-470.9516)"/><path class="cls-16" d="M920.18705,306.16706s3.74744,3.3453,4.48545,4.8213" transform="translate(-470.9516)"/><path class="cls-16" d="M928.29619,326.14607a40.30481,40.30481,0,0,0-6.84084.53914c-2.16095.53914-7.38,0-7.38,0" transform="translate(-470.9516)"/><g class="cls-18"><path d="M925.13648,310.92089a4.49887,4.49887,0,0,1-1.29481.49494,4.94941,4.94941,0,0,0,3.45578-.49494c6.30172-3.60161-6.65967-11.6975-6.65967-11.6975h-2.161S931.4382,307.3237,925.13648,310.92089Z" transform="translate(-470.9516)"/><path d="M950.91785,260.8663a1.885,1.885,0,0,0-.04418-.327,21.14115,21.14115,0,0,1-2.24051.34028A9.92555,9.92555,0,0,0,950.91785,260.8663Z" transform="translate(-470.9516)"/><path d="M904.79955,346.93376c3.77837-2.88128,1.62182-19.25869,1.62182-19.25869s-6.47847-10.08009-6.65967-13.85846S884.825,291.1375,884.825,291.1375c-1.97977-1.07827-4.14075-5.03783-4.14075-5.03783s-12.24107-19.979-14.03966-20.69932l11.87869,20.69932s2.161,3.97724,4.14075,5.03783c0,0,14.76,18.90072,14.93674,22.67911s6.65525,13.87173,6.65525,13.87173,2.161,16.37739-1.62182,19.25869c0,0,12.9437,3.31879,20.70373,3.01828C915.56018,349.69133,904.79955,346.93376,904.79955,346.93376Z" transform="translate(-470.9516)"/><path d="M908.684,300.81547l-.10606-.137a2.8455,2.8455,0,0,1-.37562.084C908.37021,300.78453,908.52932,300.80221,908.684,300.81547Z" transform="translate(-470.9516)"/></g><g class="cls-18"><path d="M950.87367,260.51719l-.11048.0221c-.19,5.52836-4.02584,18.51626-4.02584,18.51626,0,2.33774-2.51892,5.93935-2.51892,5.93935s-10.438,16.01944-12.78019,18.18041-1.44065,6.47848-1.44065,6.47848l.02209.04419c-.07069-1.45391.10606-3.70768,1.59531-5.08645,2.33772-2.161,12.78019-18.18041,12.78019-18.18041s2.51892-3.60161,2.51892-5.93935C946.9141,280.51829,951.594,264.68,950.87367,260.51719Z" transform="translate(-470.9516)"/><path d="M928.01778,324.79381c.26956,1.529.08839-.08839.18117,1.44065,0,0,4.41916-5.18367,3.21273-11.59145A15.7582,15.7582,0,0,1,928.01778,324.79381Z" transform="translate(-470.9516)"/></g><ellipse class="cls-13" cx="320.74408" cy="488.8461" rx="188.99402" ry="18.1539"/><path class="cls-36" d="M718.43492,470.42706s-6.43429-21.85273,1.20643-37.934a34.51363,34.51363,0,0,0,2.79291-21.65386,58.04559,58.04559,0,0,0-3.06689-10.16406" transform="translate(-470.9516)"/><path class="cls-12" d="M724.13122,390.6999c0,2.678-4.86107,10.44247-4.86107,10.44247s-4.86107-7.76446-4.86107-10.44247a4.86107,4.86107,0,1,1,9.69563,0Z" transform="translate(-470.9516)"/><path class="cls-12" d="M732.1343,405.35058c-1.45391,2.24936-9.74423,6.12937-9.74423,6.12937s.15025-9.15208,1.60416-11.40142a4.86107,4.86107,0,1,1,8.14009,5.272Z" transform="translate(-470.9516)"/><path class="cls-12" d="M731.7852,430.70327c-2.39076,1.20642-11.4898.37122-11.4898.37122s4.75059-7.82633,7.14136-9.03275a4.86107,4.86107,0,1,1,4.36613,8.65714Z" transform="translate(-470.9516)"/><path class="cls-12" d="M727.20254,449.82054c-2.15213,1.59089-11.2821,2.31121-11.2821,2.31121s3.35856-8.51572,5.51511-10.111a4.86107,4.86107,0,0,1,5.7449,7.7954Z" transform="translate(-470.9516)"/><path class="cls-12" d="M712.1995,412.0014c1.92234,1.86487,10.87112,3.80046,10.87112,3.80046s-2.20958-8.88691-4.11423-10.75624a4.86107,4.86107,0,1,0-6.75689,6.95577Z" transform="translate(-470.9516)"/><path class="cls-12" d="M706.93165,434.433c2.39076,1.20642,11.4898.37122,11.4898.37122s-4.73291-7.82633-7.12368-9.01066a4.86107,4.86107,0,0,0-4.36613,8.65714Z" transform="translate(-470.9516)"/><path class="cls-12" d="M705.1863,456.90886c2.15213,1.59089,11.2821,2.31121,11.2821,2.31121s-3.35856-8.51572-5.51511-10.111a4.86107,4.86107,0,1,0-5.7449,7.7954Z" transform="translate(-470.9516)"/><path class="cls-13" d="M724.13122,390.6999c0,2.678-4.86107,10.44247-4.86107,10.44247s-4.86107-7.76446-4.86107-10.44247a4.86107,4.86107,0,1,1,9.69563,0Z" transform="translate(-470.9516)"/><path class="cls-13" d="M732.1343,405.35058c-1.45391,2.24936-9.74423,6.12937-9.74423,6.12937s.15025-9.15208,1.60416-11.40142a4.86107,4.86107,0,1,1,8.14009,5.272Z" transform="translate(-470.9516)"/><path class="cls-13" d="M731.7852,430.70327c-2.39076,1.20642-11.4898.37122-11.4898.37122s4.75059-7.82633,7.14136-9.03275a4.86107,4.86107,0,1,1,4.36613,8.65714Z" transform="translate(-470.9516)"/><path class="cls-13" d="M727.20254,449.82054c-2.15213,1.59089-11.2821,2.31121-11.2821,2.31121s3.35856-8.51572,5.51511-10.111a4.86107,4.86107,0,0,1,5.7449,7.7954Z" transform="translate(-470.9516)"/><path class="cls-13" d="M712.1995,412.0014c1.92234,1.86487,10.87112,3.80046,10.87112,3.80046s-2.20958-8.88691-4.11423-10.75624a4.86107,4.86107,0,1,0-6.75689,6.95577Z" transform="translate(-470.9516)"/><path class="cls-13" d="M706.93165,434.433c2.39076,1.20642,11.4898.37122,11.4898.37122s-4.73291-7.82633-7.12368-9.01066a4.86107,4.86107,0,0,0-4.36613,8.65714Z" transform="translate(-470.9516)"/><path class="cls-13" d="M705.1863,456.90886c2.15213,1.59089,11.2821,2.31121,11.2821,2.31121s-3.35856-8.51572-5.51511-10.111a4.86107,4.86107,0,1,0-5.7449,7.7954Z" transform="translate(-470.9516)"/><path class="cls-36" d="M848.64092,470.74083s-6.43429-21.85273,1.20642-37.934a34.51354,34.51354,0,0,0,2.79291-21.65386,58.04788,58.04788,0,0,0-3.06689-10.16406" transform="translate(-470.9516)"/><path class="cls-12" d="M854.32837,390.6999c0,2.678-4.86107,10.44247-4.86107,10.44247s-4.86107-7.76446-4.86107-10.44247a4.86107,4.86107,0,0,1,9.69563,0Z" transform="translate(-470.9516)"/><path class="cls-12" d="M862.34472,405.65992c-1.45389,2.24936-9.74423,6.12937-9.74423,6.12937s.15026-9.15208,1.60416-11.40142a4.86107,4.86107,0,1,1,8.14008,5.272Z" transform="translate(-470.9516)"/><path class="cls-12" d="M862.00886,431.01262c-2.39075,1.20642-11.4898.37122-11.4898.37122s4.75059-7.82633,7.14134-9.03275a4.86107,4.86107,0,1,1,4.34846,8.66153Z" transform="translate(-470.9516)"/><path class="cls-12" d="M857.40853,450.12989c-2.15213,1.59089-11.28212,2.31121-11.28212,2.31121s3.35855-8.51572,5.5151-10.111a4.86107,4.86107,0,0,1,5.7449,7.7954Z" transform="translate(-470.9516)"/><path class="cls-12" d="M842.41432,412.31075c1.92232,1.86487,10.87111,3.80046,10.87111,3.80046s-2.20958-8.88691-4.11423-10.75624a4.86107,4.86107,0,1,0-6.75688,6.95575Z" transform="translate(-470.9516)"/><path class="cls-12" d="M837.33671,434.74238c2.39075,1.20642,11.4898.37122,11.4898.37122s-4.75059-7.82633-7.14134-9.03275A4.86107,4.86107,0,0,0,837.319,434.738Z" transform="translate(-470.9516)"/><path class="cls-12" d="M835.39672,457.2182c2.15213,1.59089,11.28212,2.31121,11.28212,2.31121s-3.35855-8.51572-5.5151-10.111a4.86107,4.86107,0,0,0-5.7449,7.7954Z" transform="translate(-470.9516)"/><path class="cls-13" d="M854.32837,390.6999c0,2.678-4.86107,10.44247-4.86107,10.44247s-4.86107-7.76446-4.86107-10.44247a4.86107,4.86107,0,0,1,9.69563,0Z" transform="translate(-470.9516)"/><path class="cls-13" d="M862.34472,405.65992c-1.45389,2.24936-9.74423,6.12937-9.74423,6.12937s.15026-9.15208,1.60416-11.40142a4.86107,4.86107,0,1,1,8.14008,5.272Z" transform="translate(-470.9516)"/><path class="cls-13" d="M862.00886,431.01262c-2.39075,1.20642-11.4898.37122-11.4898.37122s4.75059-7.82633,7.14134-9.03275a4.86107,4.86107,0,1,1,4.34846,8.66153Z" transform="translate(-470.9516)"/><path class="cls-13" d="M857.40853,450.12989c-2.15213,1.59089-11.28212,2.31121-11.28212,2.31121s3.35855-8.51572,5.5151-10.111a4.86107,4.86107,0,0,1,5.7449,7.7954Z" transform="translate(-470.9516)"/><path class="cls-13" d="M842.41432,412.31075c1.92232,1.86487,10.87111,3.80046,10.87111,3.80046s-2.20958-8.88691-4.11423-10.75624a4.86107,4.86107,0,1,0-6.75688,6.95575Z" transform="translate(-470.9516)"/><path class="cls-13" d="M837.33671,434.74238c2.39075,1.20642,11.4898.37122,11.4898.37122s-4.75059-7.82633-7.14134-9.03275A4.86107,4.86107,0,0,0,837.319,434.738Z" transform="translate(-470.9516)"/><path class="cls-13" d="M835.39672,457.2182c2.15213,1.59089,11.28212,2.31121,11.28212,2.31121s-3.35855-8.51572-5.5151-10.111a4.86107,4.86107,0,0,0-5.7449,7.7954Z" transform="translate(-470.9516)"/><path class="cls-37" d="M880.10469,221.44625h-2.486a1.99088,1.99088,0,0,0,.18975-3.97724q-.09482-.00453-.18975,0H854.57881a1.99088,1.99088,0,0,0,0,3.97724h3.069a1.99088,1.99088,0,0,0,0,3.97724H853.472a1.99088,1.99088,0,1,0-.18984,3.97724q.09486.00453.18984,0H876.4939a1.99088,1.99088,0,1,0,.18984-3.97724q-.09486-.00453-.18984,0h3.61079a1.99088,1.99088,0,0,0,0-3.97724Z" transform="translate(-470.9516)"/><path class="cls-37" d="M750.0736,232.49414h-2.07895s1.5144-.31463,1.559-1.131a1.48041,1.48041,0,0,0-1.39736-1.55905.22057.22057,0,0,0-.16169.03858h-17.111a1.424,1.424,0,0,0-1.39737,1.52047c.04124.754,1.39737,1.131,1.39737,1.131h2.14951a1.549,1.549,0,1,0,0,3.09341h-3.39a1.549,1.549,0,1,0,0,3.09341H747.547a1.549,1.549,0,1,0,0-3.09341h2.52657a1.549,1.549,0,0,0,0-3.09341Z" transform="translate(-470.9516)"/><path class="cls-38" d="M606.48447,442.14447s7.73352,15.17979,1.43181,23.4834.57449,30.93409.57449,30.93409" transform="translate(-470.9516)"/><path class="cls-12" d="M608.79127,437.3983a8.94454,8.94454,0,0,1-2.14771,5.303,7.62075,7.62075,0,0,1,0-10.606A8.94454,8.94454,0,0,1,608.79127,437.3983Z" transform="translate(-470.9516)"/><path class="cls-38" d="M610.49264,442.14447s-7.73352,15.17979-1.43181,23.4834-.57449,30.93409-.57449,30.93409" transform="translate(-470.9516)"/><path class="cls-12" d="M608.20352,437.3983a8.94454,8.94454,0,0,0,2.14771,5.303,7.62075,7.62075,0,0,0,0-10.606A8.94454,8.94454,0,0,0,608.20352,437.3983Z" transform="translate(-470.9516)"/><path class="cls-16" d="M608.20352,437.3983a8.94454,8.94454,0,0,0,2.14771,5.303,7.62075,7.62075,0,0,0,0-10.606A8.94454,8.94454,0,0,0,608.20352,437.3983Z" transform="translate(-470.9516)"/><path class="cls-38" d="M613.65234,442.14447s7.73352,15.17979,1.43181,23.4834.57449,30.93409.57449,30.93409" transform="translate(-470.9516)"/><path class="cls-12" d="M615.937,437.3983a8.94454,8.94454,0,0,1-2.14771,5.303,7.62075,7.62075,0,0,1,0-10.606A8.94454,8.94454,0,0,1,615.937,437.3983Z" transform="translate(-470.9516)"/><path class="cls-12" d="M614.73061,449.55983a8.92879,8.92879,0,0,1-5.22344,2.3289,7.60855,7.60855,0,0,1,7.34906-7.63189A9.0225,9.0225,0,0,1,614.73061,449.55983Z" transform="translate(-470.9516)"/><path class="cls-12" d="M614.93389,460.0332a8.92879,8.92879,0,0,1-5.22344,2.3289,7.60855,7.60855,0,0,1,7.34906-7.63189A8.92269,8.92269,0,0,1,614.93389,460.0332Z" transform="translate(-470.9516)"/><path class="cls-12" d="M603.93019,465.79137a8.92423,8.92423,0,0,1,1.85163,5.409,7.61116,7.61116,0,0,1-6.94691-8.00308A8.92555,8.92555,0,0,1,603.93019,465.79137Z" transform="translate(-470.9516)"/><path class="cls-12" d="M605.69786,443.47022a8.9267,8.9267,0,0,1,3.2304,4.71965,7.60747,7.60747,0,0,1-8.83389-5.85538A8.83633,8.83633,0,0,1,605.69786,443.47022Z" transform="translate(-470.9516)"/><path class="cls-16" d="M605.69786,443.47022a8.9267,8.9267,0,0,1,3.2304,4.71965,7.60747,7.60747,0,0,1-8.83389-5.85538A8.83633,8.83633,0,0,1,605.69786,443.47022Z" transform="translate(-470.9516)"/><path class="cls-38" d="M617.65167,442.14447s-7.73352,15.17979-1.43181,23.4834-.57449,30.93409-.57449,30.93409" transform="translate(-470.9516)"/><path class="cls-12" d="M615.36255,437.3983a8.94454,8.94454,0,0,0,2.14771,5.303,7.62075,7.62075,0,0,0,0-10.606A8.94454,8.94454,0,0,0,615.36255,437.3983Z" transform="translate(-470.9516)"/><path class="cls-16" d="M615.36255,437.3983a8.94454,8.94454,0,0,0,2.14771,5.303,7.62075,7.62075,0,0,0,0-10.606A8.94454,8.94454,0,0,0,615.36255,437.3983Z" transform="translate(-470.9516)"/><path class="cls-12" d="M615.98123,449.78518a9.05,9.05,0,0,0-2.20958,5.303,8.91669,8.91669,0,0,0,5.25-2.267,9.05,9.05,0,0,0,2.20958-5.303A8.91687,8.91687,0,0,0,615.98123,449.78518Z" transform="translate(-470.9516)"/><path class="cls-16" d="M615.98123,449.78518a9.05,9.05,0,0,0-2.20958,5.303,8.91669,8.91669,0,0,0,5.25-2.267,9.05,9.05,0,0,0,2.20958-5.303A8.91687,8.91687,0,0,0,615.98123,449.78518Z" transform="translate(-470.9516)"/><path class="cls-12" d="M620.00708,464.28443a9.05,9.05,0,0,0-2.20958,5.303,8.91669,8.91669,0,0,0,5.25-2.267,9.05,9.05,0,0,0,2.20958-5.303A8.88757,8.88757,0,0,0,620.00708,464.28443Z" transform="translate(-470.9516)"/><path class="cls-38" d="M614.09425,461.09823s4.65337-7.33579,11.1893-7.51256" transform="translate(-470.9516)"/><path class="cls-38" d="M610.45729,456.66581s-4.65337-7.33579-11.1893-7.51256" transform="translate(-470.9516)"/><path class="cls-38" d="M609.85186,467.13921s4.65337-7.33579,11.1893-7.51256" transform="translate(-470.9516)"/><circle class="cls-12" cx="154.10657" cy="453.54589" r="1.20643"/><circle class="cls-12" cx="128.43128" cy="449.21512" r="1.20642"/><path class="cls-38" d="M613.27671,469.54323s-4.65337-7.33579-11.1893-7.51256" transform="translate(-470.9516)"/><circle class="cls-12" cx="131.2507" cy="462.10137" r="1.20642"/><circle class="cls-12" cx="150.17794" cy="459.68852" r="1.20643"/><path class="cls-39" d="M639.00945,487.72807s-11.21582-2.24494-14.212-5.23672-16.4481-8.224-17.94619-4.48543-20.19112,16.45251-7.47721,18.69744,29.91326,2.99178,33.65186,1.49368S639.00945,487.72807,639.00945,487.72807Z" transform="translate(-470.9516)"/><path class="cls-40" d="M599.374,495.31133c12.71391,2.24494,29.91326,2.99178,33.65186,1.49368,2.84594-1.14015,4.82572-6.62873,5.60791-9.15648l.37563.07954s-2.24493,8.9753-5.98353,10.469-20.938.74684-33.65187-1.49368c-3.6679-.6496-4.71965-2.16979-4.32193-4.09214C595.36145,493.84859,596.643,494.82963,599.374,495.31133Z" transform="translate(-470.9516)"/><path class="cls-12" d="M979.52746,445.58259s3.70323,4.86107-1.71021,12.15268-9.8768,13.48285-8.06938,18.04342c0,0,8.16659-13.58006,14.813-13.77008S986.84115,453.74475,979.52746,445.58259Z" transform="translate(-470.9516)"/><path class="cls-16" d="M979.52746,445.58259a5.99679,5.99679,0,0,1,.75569,1.52019c6.48734,7.61862,9.93868,14.72905,3.70768,14.91023-5.80678.16793-12.77137,10.54852-14.4418,13.1735a5.63235,5.63235,0,0,0,.19887.59658s8.16659-13.58006,14.813-13.77008S986.84115,453.74475,979.52746,445.58259Z" transform="translate(-470.9516)"/><path class="cls-41" d="M986.41251,451.75171c0,1.70579-.19,3.09341-.44192,3.09341s-.44192-1.3832-.44192-3.09341.23865-.88383.47283-.88383S986.41251,450.05034,986.41251,451.75171Z" transform="translate(-470.9516)"/><path class="cls-41" d="M988.77674,453.78893c-1.4981.81753-2.80173,1.32575-2.91221,1.10037s1.00758-1.03849,2.50568-1.85163.90595-.221,1.02085,0S990.27042,452.9714,988.77674,453.78893Z" transform="translate(-470.9516)"/><path class="cls-12" d="M959.96827,445.58259s-3.70325,4.86107,1.71021,12.15268,9.8768,13.48285,8.06938,18.04342c0,0-8.16659-13.58006-14.813-13.77008S952.65457,453.74475,959.96827,445.58259Z" transform="translate(-470.9516)"/><path class="cls-16" d="M959.96827,445.58259a5.99679,5.99679,0,0,0-.75569,1.52019c-6.48732,7.61862-9.93868,14.72905-3.70768,14.91023,5.80678.16793,12.77137,10.54852,14.4418,13.1735a5.63235,5.63235,0,0,1-.19887.59658s-8.16659-13.58006-14.813-13.77008S952.65457,453.74475,959.96827,445.58259Z" transform="translate(-470.9516)"/><path class="cls-41" d="M953.08325,451.75171c0,1.70579.19,3.09341.44192,3.09341s.44192-1.3832.44192-3.09341-.23862-.88383-.47285-.88383S953.08325,450.05034,953.08325,451.75171Z" transform="translate(-470.9516)"/><path class="cls-41" d="M950.719,453.78893c1.4981.81753,2.80176,1.32575,2.91224,1.10037s-1.00758-1.03849-2.50565-1.85163-.90592-.221-1.02082,0S949.22088,452.9714,950.719,453.78893Z" transform="translate(-470.9516)"/><path class="cls-39" d="M954.26315,475.14229s10.35408-.31817,13.474-2.541,15.909-4.86107,16.7-1.32575,15.55983,17.72523,3.87118,17.818-27.16014-1.82069-30.27564-3.7165S954.26315,475.14229,954.26315,475.14229Z" transform="translate(-470.9516)"/><path class="cls-40" d="M988.516,487.84174c-11.68867.09281-27.16014-1.82069-30.27564-3.7165-2.37308-1.44507-3.31879-6.62873-3.63253-9.01948h-.34471s.654,8.35221,3.76955,10.248,18.587,3.81373,30.27564,3.7165c3.37624-.02651,4.53848-1.22854,4.47661-3.005C992.31649,487.148,991.0482,487.81965,988.516,487.84174Z" transform="translate(-470.9516)"/><path class="cls-37" d="M662.65574,247.51926H660.1696a1.99088,1.99088,0,0,0,.18984-3.97724q-.09486-.00453-.18984,0H637.14774a1.99088,1.99088,0,0,0,0,3.97724h3.06875a1.99088,1.99088,0,0,0,0,3.97724h-4.178a1.99088,1.99088,0,0,0,0,3.97724h23.02185a1.99088,1.99088,0,0,0,.18984-3.97724q-.09486-.00453-.18984,0h3.59535a1.99088,1.99088,0,0,0,0-3.97724Z" transform="translate(-470.9516)"/></svg>